<svg id="Livello_1" data-name="Livello 1" xmlns="http://www.w3.org/2000/svg" viewBox="0 0 573.93 634.55"><defs><style>.cls-1,.cls-5{fill:#c6c6c6;}.cls-1{stroke:#1d1d1b;stroke-miterlimit:10;stroke-width:1.85px;}.cls-2{fill:#fff;}.cls-3,.cls-6,.cls-7{fill:#1d1d1b;}.cls-4{fill:#bdbf0e;}.cls-6{font-size:55.78px;}.cls-6,.cls-7{font-family:AubangeBelgium-Regular, Aubange Belgium;}.cls-7{font-size:33.99px;}.cls-8{fill:none;}</style></defs><path class="cls-1" d="M514.46,567.71C521.84,513.8,498,449.44,445,414.52c-39.51-26-92.43-34-134.8-17.36-38.76,15.18-31.79,36.4-77.62,61.27-58.76,31.89-94.89,10.4-121.53,43.92-14.52,18.26-23,48.74-13.28,71.49,9.77,22.95,31.73,23.9,38.81,49,5.57,19.78-6.42,26.9-2,44.94,7.54,31.11,51.81,45.38,69.44,51.06,46.1,14.86,88.69,9.34,116,3C349,715.07,499.09,680.07,514.46,567.71Z" transform="translate(-12.91 -104.21)"/><path class="cls-2" d="M18.65,258.24c7.22,12.1,24,22.64,37.05,17.79a21.86,21.86,0,0,0,9.62-7.43l28.87,4.2c.26.52,4.56,8.76,13.89,9.65a18,18,0,0,0,14.15-5.35c-.45,14.24,9.06,28.24,22.46,33.09s29.66.16,38.42-11.08c4.82-6.17,9.24-15,17.06-14.55,5.1.29,8.84,4.66,13,7.68s11,4.25,13.5-.21c-.72,13.4,10.53,23.36,20.91,22.39s19.58-12.85,16.38-25.89c9.61,12.26,18.06,15.33,24.08,15.81,10.12.8,13.51-6.16,27.23-7,9.59-.6,18.82,3.64,28.4,4.43a40.8,40.8,0,0,0,38.52-21.14c2.88,14.33,16,26,30.51,27.18s29.38-8.1,34.6-21.75c10.86,10,29.78,9.18,39.78-1.64-.13-3.43,5.78-3.57,7.46-.58s.7,6.67.41,10.09c-1.31,15.2,15.36,29,30,24.85s21.72-24.58,12.68-36.87c11.88-14.86,10.44-38-1.39-52.5,9.43,5.23,21.17,4.64,29.16-1.83,12-9.69,11.87-29.56,1.78-38.28-7.19-6.22-17.23-4.83-19.58-4.45a109.65,109.65,0,0,1,2.67-15.13c2.84-11.35,5.24-13.9,5.34-20.48,0-1.22,0-12.51-8-18.69s-22.46-6-30.26,3.56c-7.63,9.38-6,24.18,4.45,32.05l-12.46,3.56c3.47-9.72-1.4-20.21-10-23.64-9.47-3.77-21.32,1.85-24.39,12.84,4.73-17-2.33-36.57-16.8-46.62s-35.31-9.81-49.56.56-20.86,30.13-15.74,47a67.53,67.53,0,0,0-62.37,13.45,19.39,19.39,0,0,0-12.07-15.7c-8.94-3.47-16.74,1.45-17.51,1.95-.15-7.66-.53-16-5.43-21.88s-16.05-6.79-19.28.16a27.13,27.13,0,0,0-11.07,5.78c-5.41,4.79-5.09,8.78-8,9.61-6.37,1.84-10.89-16.86-26.23-24-11.52-5.36-26.91-3.16-37.52,4.9a38.22,38.22,0,0,0-12.59,17.51l-19.36-.72a11.11,11.11,0,0,0-9-10.81c-5.7-.94-11.64,3.35-12.52,9.79a64.7,64.7,0,0,1-15.74-14c-7.77-9.64-9.29-17.83-13.75-17.38-5.27.52-8.73,6.39-8.31,11.67s3.68,9.88,7.25,13.8c-11.63,4.73-23.85,9.9-31.4,19.93s-8,26.53,2.35,33.6C63,189.78,43.09,192.26,29.59,204,14.13,217.44,8.71,241.58,18.65,258.24Zm473.76-57.38c-.93-5-6.19-7-5.34-8.9s6.41-2,10.68,0c6.67,3.14,12.74,12.78,8.9,19.58-4.21,7.48-17.85,7-19.58,3.56C485.54,212.1,493.67,207.6,492.41,200.86Zm-73.88-61.42c2-3.69,8.13-5.57,11.57-3.56,6.13,3.58,3.49,19.32-.89,20.47C425,157.48,414.93,146,418.53,139.44ZM92.74,252.49A12.82,12.82,0,0,1,89.61,247a8.73,8.73,0,0,1,4.91-3.44c3.87-.92,8.07,1.37,8,2.67,0,.46-.58.55-1.52,1.66a9.31,9.31,0,0,0-1.53,2.51c.37.75.82,1.73,1.3,2.88.68,1.66,1,2.5.86,2.74C101,257,96,255.79,92.74,252.49Zm-52.11-16c2.63-6.34,18-3,20.06-9,1.63-4.78-7.13-10.59-5.34-13.36,1.25-1.93,6.79-1,10.68.89,7.07,3.48,13.87,12.81,11.57,22.26-3,12.42-20,17.65-29.37,12.46C43.28,247.09,38.93,240.63,40.63,236.53Z" transform="translate(-12.91 -104.21)"/><path class="cls-3" d="M18,258.61c7.81,12.77,26.95,25.66,41.71,16.2a23,23,0,0,0,4.5-3.8c.91-1,1.07-1.5,2.49-1.48a39.26,39.26,0,0,1,4.81.7l18.18,2.65c.7.1,1.43.24,2.14.31-.69-.07,1.87.13,1.73,0,.16.11.19.45.33.59a27.24,27.24,0,0,1,1.77,2.5,19.21,19.21,0,0,0,7.19,5.53,18.13,18.13,0,0,0,19.87-4.24l-1.24-.51c-.36,19.3,15.83,36.31,35.34,35.7a36.16,36.16,0,0,0,24.48-10.55c5.71-5.84,11.29-20.33,21.71-16.31,5.14,2,8.33,7.07,13.56,8.93,3.79,1.35,8.32,1.21,10.66-2.48l-1.35-.36c-.42,11.63,8.75,24,21.31,23.14,13-.92,20-15.2,17.4-26.83l-1.21.71c5.18,6.51,11.61,12.78,19.82,15.15,6.31,1.82,11.85.4,17.67-2.24a40.44,40.44,0,0,1,13.39-3.84c5.91-.5,11.67.83,17.38,2.18,9.75,2.29,19.05,3.36,28.66-.13A41.77,41.77,0,0,0,382.78,281l-1.33-.17c3.15,14.65,16.19,26.45,31.21,27.71s29.78-8.38,35.3-22.28l-1.22.32c10.32,9.18,27,9.63,37.85,1.07a12.15,12.15,0,0,0,3.15-3c.52-.91.22-1.52,1.4-2a4.23,4.23,0,0,1,3.05.17c4.53,1.95,1.83,9.58,1.93,13.31.17,6.77,3.7,13.12,8.74,17.52,10.24,8.94,25.49,8.81,34-2.38a27.53,27.53,0,0,0,5.53-17.54,23,23,0,0,0-2.11-8.81c-.45-1-1.64-2.29-1.51-3.27.09-.66,1.19-1.65,1.58-2.26.64-1,1.23-2,1.77-3,7.79-15.09,5.13-34.34-5.34-47.45l-.88,1.14c12.92,6.9,29.94,3.48,36.61-10.31,5.11-10.55,3.52-25.8-7-32.57-5.3-3.42-12-4-18.12-3l.92.7a110.15,110.15,0,0,1,3.43-17.91c1.14-4.08,2.8-8,3.84-12.13a26.64,26.64,0,0,0-2.06-18c-8.31-16.74-34.34-13.63-40.37,3.32-3.41,9.61.19,20.37,8.1,26.57l.32-1.21L509.13,169l.9.89c3.41-10.22-1.74-22.61-12.76-25.24-10.16-2.41-20.13,4.36-23,14.06l1.4.38c5.43-20.26-5-43.25-24.51-51.46-20.12-8.46-44.31-.88-55,18.35a44.75,44.75,0,0,0-4,34l.89-.89A69.11,69.11,0,0,0,330,172.78l1.21.32c-2.11-14.38-18.23-22.18-30.65-14.19l1.1.63c-.15-7.07-.4-14.84-4.51-20.9a14.78,14.78,0,0,0-13.48-6.39,10.36,10.36,0,0,0-6.19,2.61c-.76.71-1.23,1.87-2.06,2.43-1.17.79-3.07,1-4.4,1.64a24.86,24.86,0,0,0-9.07,7c-1.33,1.68-2.73,5.94-5,6.59-3.39,1-6.74-5.24-8.26-7.36-3.34-4.65-6.82-9.24-11.36-12.8-10.65-8.35-25.55-8.52-37.51-2.93A37.52,37.52,0,0,0,183,145.08a43.14,43.14,0,0,0-2,4,5.57,5.57,0,0,1-.62,1.52c-.47.51-1.34.2-2.28.17l-16.67-.62.73.72c-.34-5.75-4.37-11.12-10.4-11.63-6.3-.52-11.49,4.45-12.51,10.42l1.07-.44a64.05,64.05,0,0,1-18.54-17.87c-2-2.88-3.57-5.93-5.39-8.89-1-1.64-2.22-3.67-4.1-4.43-4.69-1.91-9.2,3.74-10.36,7.59-2.14,7.08,2.45,13.81,7,18.83l.32-1.21C96.53,148.44,81.57,154.49,75,167.43c-5.07,9.93-4.73,23.77,5,30.71l.74-1.26c-14.68-6.38-32-6.21-45.8,2.31-12.55,7.73-20.66,21.72-21.87,36.33a39.39,39.39,0,0,0,5,23.09.72.72,0,0,0,1.25-.73c-7-12.08-6.06-27.27.12-39.5a44.53,44.53,0,0,1,34.22-24.21,50.44,50.44,0,0,1,26.36,4,.73.73,0,0,0,.74-1.26C71,190,71.55,175.6,77.25,166.31c7-11.36,20.55-16.83,32.34-21.63a.74.74,0,0,0,.32-1.22c-4.58-5.1-9.35-12.3-5.84-19.28,1.19-2.38,4.28-5.67,7.31-4.89,1.94.49,3.14,2.92,4.08,4.5,3.31,5.5,6.5,10.92,10.87,15.68a67.78,67.78,0,0,0,13.25,11.05.74.74,0,0,0,1.07-.44c.87-5.08,5-9.48,10.39-9.38s9.36,5,9.67,10.21a.74.74,0,0,0,.72.73l19.36.72a.75.75,0,0,0,.7-.53,37.26,37.26,0,0,1,26.39-23.72c12.66-3.06,25,.56,33.69,10.25,3.13,3.49,5.64,7.45,8.52,11.15,1.4,1.8,3.2,4.19,5.64,4.51,3.6.47,4.83-3.67,6.44-6a22.91,22.91,0,0,1,8.77-7.45,27.23,27.23,0,0,1,4.17-1.66c1.55-.49,1.41-.49,2.3-1.79,3.72-5.44,12.51-3.86,16.66.14,5.78,5.56,5.93,14.86,6.08,22.3a.74.74,0,0,0,1.1.63c11.68-7.52,26.54-.13,28.51,13.31.09.6.85.63,1.21.32a67.61,67.61,0,0,1,61.67-13.26.73.73,0,0,0,.89-.9c-5.7-19.47,3.83-41.86,22.52-50.28,19.39-8.73,43.13-1.68,53.75,16.87a43.22,43.22,0,0,1,4.43,32.49.73.73,0,0,0,1.4.38c2.68-8.92,11.87-15.26,21.25-13,10.29,2.43,14.91,14,11.74,23.44a.74.74,0,0,0,.9.9L522,166.85a.74.74,0,0,0,.32-1.22,22.61,22.61,0,0,1-8.24-23.48,20.65,20.65,0,0,1,19.73-15.09c8.87-.21,16.63,4.57,19.59,13.06a25.26,25.26,0,0,1,.39,15.8c-1.38,4.55-3,9-4.2,13.59a112.28,112.28,0,0,0-2.69,15.33c-.06.52.5.76.91.7,6.69-1.07,14.22-.06,19.35,4.68s7.09,12.09,6.65,18.87c-.5,7.65-4.23,15.09-10.77,19.31-8,5.14-18.22,4.75-26.41.38a.73.73,0,0,0-.88,1.14c11.52,14.43,13,36.63,1.38,51.46a.76.76,0,0,0-.11.88c5.8,8.17,4.82,19.49-.85,27.48-6.43,9.07-17.92,11.43-27.62,6.11a25.94,25.94,0,0,1-11.07-11.74,20.7,20.7,0,0,1-1.89-8c-.08-3.05.85-6.06.58-9.11-.31-3.51-2.53-6.36-6.32-6a4,4,0,0,0-3.07,1.66c-.35.56-.38,1.2-.74,1.76a13.84,13.84,0,0,1-3.78,3.14c-10.29,7-25.15,6.26-34.47-2a.74.74,0,0,0-1.21.32c-5.28,13.29-19.55,22.46-33.9,21.21s-26.8-12.62-29.81-26.64a.73.73,0,0,0-1.33-.17,40.16,40.16,0,0,1-20.45,18.08c-9.69,3.85-19.08,2.9-29,.56-9.14-2.16-18.05-3.49-27.11-.21-6.33,2.29-11.68,5.87-18.73,4.7C277.08,301.88,270,295,264.44,288c-.49-.61-1.36.06-1.22.71,2.46,10.91-4.34,24.6-16.66,25-11.51.39-19.58-11.09-19.2-21.72a.73.73,0,0,0-1.35-.37c-2.78,4.38-9.09,2.39-12.52-.05s-6.53-6-10.8-7.33c-7.83-2.34-13.17,4.72-17.16,10.29-5.62,7.86-12.33,13.66-22,15.9a32.47,32.47,0,0,1-26.49-5.16A34.55,34.55,0,0,1,123,277.1a.74.74,0,0,0-1.24-.52,16.61,16.61,0,0,1-24.85-1.11c-.72-.87-1.21-2.07-2-2.87-1.22-1.3-4.65-1.1-6.4-1.36l-23-3.34a.71.71,0,0,0-.7.18c-13.3,17-36.38,4.74-45.53-10.2A.72.72,0,0,0,18,258.61Z" transform="translate(-12.91 -104.21)"/><path class="cls-3" d="M493.11,200.67c-.57-2.76-2.36-4.69-4.25-6.65-.38-.39-1.37-1.2-1.09-1.83.45-1,2.8-1,3.66-.95,6.85.1,12.86,5.3,15,11.66a10,10,0,0,1-.73,8.82,11.31,11.31,0,0,1-6.37,4.3,18.1,18.1,0,0,1-7.28.62c-1.26-.16-3.76-.52-4.35-1.9-.35-.82.33-1.8.75-2.45.72-1.12,1.57-2.16,2.33-3.27,1.71-2.51,2.85-5.27,2.33-8.35-.15-.92-1.55-.53-1.4.38.55,3.31-1.34,6.13-3.21,8.67-1.09,1.49-3.12,3.75-2.06,5.75.89,1.66,3.18,2.25,4.89,2.52a19.22,19.22,0,0,0,8.26-.53,13.18,13.18,0,0,0,7-4.5,11,11,0,0,0,1.55-9.41c-1.82-7-8.11-12.92-15.39-13.68-1.83-.2-7.52-.09-6.36,3.23.41,1.18,1.59,2.08,2.43,3a10.27,10.27,0,0,1,2.89,5C491.9,202,493.3,201.58,493.11,200.67Z" transform="translate(-12.91 -104.21)"/><path class="cls-3" d="M419.16,139.81c1.92-3.37,7.92-5.62,11.19-2.87,2.65,2.23,2.81,6.59,2.55,9.75a20.4,20.4,0,0,1-1.12,5.25,7.29,7.29,0,0,1-2.11,3.39c-1,.71-2.16.25-3.11-.26a14.86,14.86,0,0,1-4-3.43c-2.56-2.95-5.44-7.91-3.38-11.83.43-.83-.82-1.57-1.26-.74-2.12,4.06,0,8.93,2.55,12.28a18.87,18.87,0,0,0,4.67,4.55c1.24.8,2.88,1.58,4.39,1.12a5.59,5.59,0,0,0,3-3.08,19,19,0,0,0,1.7-5.85c.53-3.82.45-8.77-2.38-11.76-3.79-4-11.42-1.6-13.91,2.74A.73.73,0,0,0,419.16,139.81Z" transform="translate(-12.91 -104.21)"/><path class="cls-3" d="M93.25,252a12.32,12.32,0,0,1-2.94-5.14l-.07.56A7.63,7.63,0,0,1,96,244.11a9,9,0,0,1,3.91.71,6.61,6.61,0,0,1,1.32.75,2.63,2.63,0,0,1,.39.35c.07.08.18.3.21.32v-.05c0,.12,0,.09,0-.08,0,0,.28,0,0,0-.12,0-.36.3-.46.39a9.39,9.39,0,0,0-1.55,1.78,8.3,8.3,0,0,0-1,1.76c-.22.63.32,1.33.58,1.9a21.89,21.89,0,0,1,1.5,3.7c.07.31,0,.19.17-.11,0,0,0,0,0,0a3.85,3.85,0,0,1-.91,0A12.36,12.36,0,0,1,93.25,252a.73.73,0,0,0-1,1,15,15,0,0,0,4.48,3.08,9.39,9.39,0,0,0,4,1c1.06,0,1.9-.59,1.62-1.75a15.74,15.74,0,0,0-1-2.47c-.4-1-.82-1.9-1.27-2.82l.07.56a8.28,8.28,0,0,1,2.13-3c.51-.45,1-.85.92-1.61-.23-1.57-2.43-2.46-3.72-2.88a8.91,8.91,0,0,0-9.26,2,4.87,4.87,0,0,0-1.34,1.66,2.57,2.57,0,0,0,.3,1.31,15.59,15.59,0,0,0,.62,1.46A13.41,13.41,0,0,0,92.22,253C92.87,253.68,93.9,252.65,93.25,252Z" transform="translate(-12.91 -104.21)"/><path class="cls-3" d="M41.26,236.89c1.36-3.07,5.58-3.59,8.49-4.08,3.14-.52,6.85-.7,9.58-2.51s2.62-5.06,1.11-7.76c-.94-1.67-2.18-3.15-3.28-4.72-.57-.82-2.06-2.66-.88-3.52,1.59-1.16,4.78-.21,6.42.28a19.38,19.38,0,0,1,6.9,3.73c4.1,3.45,7.24,8.48,7.68,13.9.75,9.36-6.85,16.27-15.38,18.26-4.11,1-8.76.94-12.63-.93a16.16,16.16,0,0,1-6.22-5.47c-1.43-2.09-2.68-4.82-1.72-7.35.33-.87-1.07-1.25-1.4-.39-1.77,4.65,2.31,9.92,5.72,12.62a17.85,17.85,0,0,0,11.9,3.57c8.57-.33,17.67-5.3,20.43-13.82,3.5-10.79-4.85-22.72-15.25-25.62-2.45-.68-9.83-1.61-8.11,3.18a20.49,20.49,0,0,0,3,4.69c1.12,1.55,2.59,3.47,2.51,5.48-.18,4-6.87,4.35-9.74,4.81-3.56.57-8.75,1.13-10.43,4.92C39.63,237,40.88,237.75,41.26,236.89Z" transform="translate(-12.91 -104.21)"/><path class="cls-2" d="M208.84,400.23a28,28,0,0,0,20.31,12.18c2.71.77,6.14,1.33,7.63-.36.59-.68.57-1.43.6-3.78.08-5.94.13-8.94.53-10.34.07-.27,0,0,2.27-5.88l1.07-2.77c1.6-4.09,4.78-7.24,6.67-9.61,1.26-1.6.52-1.05,6.88-17.27.92-2.35,2-5.08,1.52-8.52-.15-1.08-.65-4.59-2.81-5.3-1.9-.62-4.1,1.38-4.61,1.88-2.56,2.47-2.06,5.17-3.6,9.13a20.73,20.73,0,0,1-5.16,7.49c-.89-7.21.58-12,1.75-14.68,2.31-5.28,3.46-7.93,5.78-10.09,1-.87,2.52-2.13,2.61-4a4.07,4.07,0,0,0-2-3.82c-2.83-1.26-7.31,3.7-8.12,4.6-2.6,2.87-3.52,5.4-6.81,13.36-1.56,3.79-2.81,6.76-3.48,8.33-2.23-9.4-.64-15,1.4-18.37.72-1.21,4.77-7.64,5-11.88a7.11,7.11,0,0,0-.76-3.63,4,4,0,0,0-2.07-2.18c-1.45-.43-3.43.73-4.7,2.94-.16-1.6-.57-3.3-1.67-3.73-2.62-1-7.64,5.74-10,9.71a37.5,37.5,0,0,0-4.74,13.18c-1.42-5.58-2.7-6.95-3.68-7-3.55-.08-11.37,17.38-6.51,32,2.07,6.23,6,10.5,6.82,20.15A41,41,0,0,1,208.84,400.23Z" transform="translate(-12.91 -104.21)"/><path class="cls-3" d="M209.6,400.43c1.58-5.26-.13-10.53-2.11-15.43-2.08-5.12-4.09-10.12-5-15.61a51,51,0,0,1,.16-17.29,42.28,42.28,0,0,1,2.15-8,5.8,5.8,0,0,1,2.23-3.06c1.15-.66,2.77-.64,3.41.68s.26,2.85.13,4.15l-.51,5.15-1,10.56c-.1,1,1.48,1,1.58,0l1-10.31.48-4.91a15,15,0,0,0,.13-4.18,3.69,3.69,0,0,0-4.54-3c-2.45.51-3.74,2.74-4.54,4.91a52,52,0,0,0,.63,36c2.42,6.25,6.37,13,4.31,19.94-.3,1,1.22,1.38,1.51.41Z" transform="translate(-12.91 -104.21)"/><path class="cls-3" d="M238.17,408.27a29.49,29.49,0,0,1,.88-11.6,32.64,32.64,0,0,1,4.72-8.92c4.24-6.27,8.19-12.79,10.71-20a45.45,45.45,0,0,0,2.31-10.54,16.46,16.46,0,0,0,0-5.94c-.78-2.91-3.56-4.49-6.38-3.1-3.23,1.59-3.92,5.21-4.79,8.32-1.07,3.79-3.46,7.09-6,10-.67.75.44,1.87,1.12,1.11a31.49,31.49,0,0,0,5.62-8.41c.93-2.19,1.09-4.64,2.21-6.75.88-1.66,2.62-3.8,4.77-3.14,1.51.46,2,2.12,2.18,3.53a22.75,22.75,0,0,1-.3,4.73c-1.1,10.91-6.86,20.61-12.88,29.52a33.35,33.35,0,0,0-4.77,9.14,30.43,30.43,0,0,0-.93,12c.11,1,1.68,1,1.57,0Z" transform="translate(-12.91 -104.21)"/><path class="cls-3" d="M210.84,360.86c1.39-10,2.78-20.57,8.42-29.21a26.17,26.17,0,0,1,4.26-5.07c.77-.71,2.36-2.37,3.5-1.72.94.54,1,2.06.84,3-.44,2.37-2.09,4.57-3.06,6.76a54.14,54.14,0,0,0-2.51,6.86,55.71,55.71,0,0,0-2.17,16.59.85.85,0,0,0,1.7,0,54,54,0,0,1,2.37-17,49.65,49.65,0,0,1,3.21-8c1.07-2.11,2.51-4.28,2.18-6.77-.24-1.8-1.49-3.57-3.5-3.28-2.22.32-4.26,2.67-5.66,4.27a38.35,38.35,0,0,0-7.18,13.11c-2.18,6.46-3.11,13.26-4.05,20-.15,1.07,1.5,1.53,1.65.45Z" transform="translate(-12.91 -104.21)"/><path class="cls-3" d="M229.49,328.1c1-1.33,2.6-3.12,4.41-3.07,1.46,0,1.62,2,1.65,3.1a12.94,12.94,0,0,1-2.29,7.8c-2.3,3.31-3.17,7.21-3.67,11.17a91.91,91.91,0,0,0-.53,13.68.86.86,0,0,0,1.71,0,89.29,89.29,0,0,1,.52-13.68,28.77,28.77,0,0,1,1.87-7.6c.81-1.89,2.19-3.41,3-5.31,1.07-2.55,1.78-6.42.5-9.06-2-4.2-7-.2-8.63,2.1-.65.89.83,1.75,1.47.87Z" transform="translate(-12.91 -104.21)"/><path class="cls-3" d="M231.31,361.52a89.36,89.36,0,0,1,4.54-13c2-4.51,4.57-9,8.58-12,.9-.68,2.21-1.65,3.39-1.34,1.94.5,2,2.84,1.16,4.22s-1.94,2.37-2.81,3.62a26,26,0,0,0-3.14,6.66,92,92,0,0,0-3.65,17.22c-.13,1,1.38,1.42,1.52.42a92.52,92.52,0,0,1,3.61-17.11,23,23,0,0,1,3.39-6.9c1.32-1.71,3.43-3.53,3.23-5.94a3.93,3.93,0,0,0-4.86-3.64c-2.31.66-4.45,2.74-6,4.5a33.86,33.86,0,0,0-4.4,6.64,83.34,83.34,0,0,0-6.09,16.26.79.79,0,0,0,1.52.42Z" transform="translate(-12.91 -104.21)"/><path class="cls-3" d="M220.42,376.3a24.11,24.11,0,0,1,3.37,11.3c0,1,1.62,1,1.57,0a25.81,25.81,0,0,0-3.58-12.09.79.79,0,0,0-1.36.79Z" transform="translate(-12.91 -104.21)"/><path class="cls-4" d="M403.13,696.43c-.58-10.95-.88-16.43-1.38-20.76-2.8-24.13-6-51.82-25.38-71.79-5-5.12-14.27-13.11-30-18.55-4.24-1.31-78.21-25.21-99-81.71-9.76-26.56-8.38-57-8.38-57a150.56,150.56,0,0,1,5.71-34.75l-42.38-16.47q-3.75,27.29-7.49,54.56c-1.49,10.87-1.45,28.59-.15,50.33.77,12.93,2.06,24.08,3.33,32.92.45,3.25,1.44,9.94,3,18.32,8.44,44.1,26.33,95.14,35.42,93.59.59-.1,1.61-.5,2.67-2.44l-3.7,6c0,3.94-.1,7.07-.23,9.25a42,42,0,0,0-.11,5.26c.17,3.32.84,4.86.61,13.87-.17,6.89-.55,13.78-1,20.66-.05.88-.11,1.76-.17,2.64.3,5.83.45,11.72.26,17.57.17-.51.29-.9.35-1.12L235,736.6c75.71,2,131.62,1.86,145.77,0,9.23-1.24,13.49-4.93,15.14-6.6,4.68-4.72,5.87-10.37,6.88-15.21C403.66,710.44,403.7,707.09,403.13,696.43Z" transform="translate(-12.91 -104.21)"/><path class="cls-2" d="M345.18,514.19a80.62,80.62,0,0,0,5.14,23.34c5.1,13.18,14.42,22.42,10.75,29.24a8.14,8.14,0,0,1-2.13,2.49c3.69,4.16,6.69,7.46,8.61,9.54C377.63,589.74,382,593.74,383.72,601a28.5,28.5,0,0,1,.64,4.39,23,23,0,0,1-1.15,8.3,56.69,56.69,0,0,0-6.84-9.53,61.27,61.27,0,0,0-11-9.57A65.1,65.1,0,0,0,350.48,587,69.75,69.75,0,0,1,352,601.22c0,9.5-2,11.11-2.91,11.63a4.78,4.78,0,0,1-2.91.44A92.84,92.84,0,0,1,351,626.23c3.61,12.54,3.57,22.41,3.47,31.1-.22,18-3.7,23.83-5.45,26.32a28.77,28.77,0,0,1-2.89,3.46,13.82,13.82,0,0,1-6.19,1.45,14,14,0,0,1-8.05-2.62,37.55,37.55,0,0,1,.15,13.67c-.45,2.56-4.08,21.58-16,23.52-8.52,1.4-19.29-6.33-23.09-19.53,1.74,5.84,1.22,11-1,12.46a16.39,16.39,0,0,1-4.51,1.54,6.91,6.91,0,0,1-2.06.24c-2.86-.34-4.55-4.6-4.8-5.22-1.7-4.29,0-6.4-1.45-11.7a21.4,21.4,0,0,0-1.72-4.39,17.29,17.29,0,0,1-15.27,9.09c-9.12-.24-13.84-8.4-14.72-9.93-4.58-7.93-2-16-1.59-17.35a20,20,0,0,1-6.93-6.93,21.14,21.14,0,0,1-2.24-15.2A5.18,5.18,0,0,1,234,658.5a4.2,4.2,0,0,1-2.23.17c-3-.88-1.88-14.55-.91-28.39,0,0,1.25-17.84.63-17.88-.09,0,.2,3.1-1.77,5.29-1.16,1.3-3.28,2.46-5.12,1.86s-2.73-2.88-3-3.56c-1.15-3.41.34-6.68,1.39-9.18,2-4.73,3.16-9.79,5.15-14.53,1.76-4.2,4.16-10.24,6.7-17.88-.35.44-2.3,2.8-5.15,2.73a6.06,6.06,0,0,1-3.16-1.15c-2.89-2.19-2.12-9.82,1.38-18.79-1.53.23-3.45.26-4.57-.88-2.6-2.65.85-9.91,4.13-16.56,3.72-7.56,8.89-17.7,15.54-29.8Z" transform="translate(-12.91 -104.21)"/><path class="cls-3" d="M341.46,558.06A137,137,0,0,1,349,583c.88,4.36,1.54,8.77,2,13.2.21,2.16.37,4.34.49,6.51s.34,4.48-.41,6.54c-.85,2.33-3.2,3.81-5.55,2.54-2.09-1.13-3-3.48-3.83-5.58-.33-.84-1.7-.48-1.37.38,1.28,3.28,3.56,7.85,7.88,7,4.48-.82,4.9-6.14,4.75-9.76A136.59,136.59,0,0,0,348.37,574a138.52,138.52,0,0,0-5.54-16.35c-.34-.83-1.72-.47-1.37.38Z" transform="translate(-12.91 -104.21)"/><path class="cls-3" d="M346.64,613.53A137.07,137.07,0,0,1,353.89,655c.13,6.48.07,13.23-1.2,19.6-1,5.09-3.38,10.92-8.74,12.71a11.52,11.52,0,0,1-13.89-6.18c-.35-.84-1.57-.12-1.22.71a12.85,12.85,0,0,0,12.24,7.41c5.5-.22,9.48-4.22,11.47-9.1,2.41-5.93,2.58-12.78,2.74-19.09A138,138,0,0,0,348,613.15c-.29-.86-1.66-.49-1.37.38Z" transform="translate(-12.91 -104.21)"/><path class="cls-3" d="M332,686.53c.71,9.94-1.4,20.57-6.76,29.07-2.49,3.95-6.14,6.88-11,6.85a17.5,17.5,0,0,1-11.91-5.36c-3.83-3.77-6.31-8.63-8.74-13.35-.42-.81-1.64-.1-1.23.71,4.36,8.48,9.89,18.2,20.4,19.33,10.74,1.16,16-9.95,18.59-18.59a51.64,51.64,0,0,0,2.05-18.66c-.06-.9-1.48-.91-1.41,0Z" transform="translate(-12.91 -104.21)"/><path class="cls-3" d="M292.55,703.9c.72,3.59,1.52,7.72-.66,11a5.3,5.3,0,0,1-8.19,1c-2.77-2.39-3.3-6.19-3.57-9.63s-.43-7-2.1-10.19c-.43-.81-1.65-.09-1.23.72,3.08,5.83.47,13.37,4.66,18.78a7.7,7.7,0,0,0,6.76,3.25,7.36,7.36,0,0,0,5.62-4.59c1.51-3.41.78-7.23.08-10.73-.18-.89-1.55-.52-1.37.38Z" transform="translate(-12.91 -104.21)"/><path class="cls-3" d="M276.77,694.39c-1.7,6.69-8.71,10.91-15.43,10.09-7.24-.89-13-6.61-15.1-13.42a26.05,26.05,0,0,1-.46-12.86c.19-.89-1.18-1.27-1.36-.38-1.66,8-.08,17,6,22.79,5.44,5.22,13.66,7.14,20.44,3.36a14.87,14.87,0,0,0,7.27-9.2.71.71,0,0,0-1.36-.38Z" transform="translate(-12.91 -104.21)"/><path class="cls-3" d="M244.81,676.76a20.54,20.54,0,0,1-7.61-22.07.71.71,0,0,0-1.37-.38A22,22,0,0,0,244.1,678c.74.53,1.45-.7.71-1.23Z" transform="translate(-12.91 -104.21)"/><path class="cls-3" d="M243.39,552.92q-7.94,16.89-14.45,34.38-3.28,8.75-6.24,17.6c-1.46,4.37-4.27,10.9.36,14.41a5,5,0,0,0,6.23-.3c2.36-1.91,2.89-5,3.28-7.83.12-.89-1.25-1.28-1.37-.38-.32,2.37-.65,5.12-2.49,6.84a3.7,3.7,0,0,1-6-.87c-1.37-2.38-.67-5.2.1-7.65s1.7-5.14,2.58-7.7q5.33-15.51,11.63-30.66,3.62-8.64,7.6-17.12c.39-.82-.83-1.54-1.22-.72Z" transform="translate(-12.91 -104.21)"/><path class="cls-3" d="M230.35,616.15a138.81,138.81,0,0,0-1.24,24.62c.11,4.17.33,8.34.56,12.51.12,2.33.06,6.37,3.34,6.39a4.38,4.38,0,0,0,4.19-5.36c-.18-.89-1.55-.51-1.37.38a2.91,2.91,0,0,1-2.13,3.46c-2.28.62-2.46-2-2.55-3.64-.23-4.17-.45-8.34-.58-12.51a139.12,139.12,0,0,1,1.15-25.48c.14-.89-1.23-1.27-1.37-.37Z" transform="translate(-12.91 -104.21)"/><rect class="cls-3" x="279.01" y="547.51" width="13.41" height="20.72" rx="6.71" transform="translate(476.22 1046.52) rotate(-171.82)"/><path class="cls-3" d="M329.07,507.67a93.7,93.7,0,0,1,5.61,18,77.38,77.38,0,0,1,1.82,18.14,14.72,14.72,0,0,1-2.07,7.67,10.62,10.62,0,0,1-6.11,4.13c-5.26,1.48-11.13.78-16.52.66l-39.66-.84c-4.79-.1-9.75-.16-14.3-1.87a12.93,12.93,0,0,1-5.47-3.7,12,12,0,0,1-2.46-7.82,48.47,48.47,0,0,1,1.41-9.79q1.1-5.24,2.55-10.38A155.29,155.29,0,0,1,261,501.91c.37-.82-.86-1.55-1.22-.71A157.46,157.46,0,0,0,253,519.91a119.3,119.3,0,0,0-4.24,18.93c-.65,5.33.31,10.73,4.88,14,3.85,2.78,8.88,3.49,13.5,3.78,6.62.4,13.29.34,19.93.48l21.31.45,10.41.22a43,43,0,0,0,7.86-.4c5.08-.85,9.24-3.72,10.65-8.85a29.56,29.56,0,0,0,.59-9.29A94.73,94.73,0,0,0,330.3,507c-.36-.84-1.58-.12-1.23.71Z" transform="translate(-12.91 -104.21)"/><path class="cls-3" d="M249.18,499.27a221.64,221.64,0,0,0-16.83,28.34q-3.61,7.27-6.69,14.79c-1,2.51-2,5-2.95,7.58-.67,1.85-1.39,4.17-.35,6a4.23,4.23,0,0,0,5.15,1.66c2.47-.83,3.79-3.25,4.9-5.43.42-.81-.81-1.53-1.22-.72-1,1.91-2.12,4.29-4.38,4.88a2.93,2.93,0,0,1-2.82-.56c-.92-.91-.79-2.33-.54-3.48a44.93,44.93,0,0,1,2.31-6.44q1.34-3.39,2.77-6.73a222.3,222.3,0,0,1,13-25.54q4.17-7,8.84-13.66c.52-.75-.71-1.46-1.23-.72Z" transform="translate(-12.91 -104.21)"/><path class="cls-3" d="M227.75,556c-1.63,5.56-5.73,11.33-3.6,17.34a7.27,7.27,0,0,0,4.67,4.67,5.73,5.73,0,0,0,5.94-1.27c.64-.65-.36-1.65-1-1a4.56,4.56,0,0,1-5.34.59,6.45,6.45,0,0,1-3.34-5.26c-.62-5.22,2.63-9.87,4-14.69a.71.71,0,0,0-1.37-.38Z" transform="translate(-12.91 -104.21)"/><path class="cls-3" d="M289.31,561.08a99.64,99.64,0,0,1,27,41.32c.74,2.21,1.8,4.69,1.83,7.05a3.15,3.15,0,0,1-1.32,2.93,1.85,1.85,0,0,1-2.56-.3c-.48-.77-1.71-.06-1.23.72a3.09,3.09,0,0,0,3.83,1.12,4.14,4.14,0,0,0,2.66-3.66c.25-2.38-.73-4.84-1.46-7.07s-1.52-4.41-2.39-6.57a101.47,101.47,0,0,0-14.17-24.47,99.89,99.89,0,0,0-11.19-12.07c-.67-.62-1.68.38-1,1Z" transform="translate(-12.91 -104.21)"/><path class="cls-3" d="M310.47,609.63a78.47,78.47,0,0,1,8.35,34.13,79.26,79.26,0,0,1-.36,8.72,43.9,43.9,0,0,1-1.37,8.37c-.71,2.38-2.73,4.82-5.34,3-2.22-1.55-3.24-4.49-4.26-6.88a141.5,141.5,0,0,1-6.86-20.25.71.71,0,0,0-1.37.38,143.69,143.69,0,0,0,6.75,20c1.1,2.6,2.15,5.55,4.35,7.46a4.47,4.47,0,0,0,5.84.46c2-1.56,2.48-4.35,2.89-6.7a78.94,78.94,0,0,0-.3-28.61,79.83,79.83,0,0,0-7.09-20.77c-.41-.82-1.64-.1-1.23.71Z" transform="translate(-12.91 -104.21)"/><path class="cls-3" d="M298.53,632.67c.56,1.2,1.28,2.63,1,4-.24,1-1.1,2-2.24,1.68-1.84-.54-2.4-3.6-2.85-5.13-1.34-4.5-2.46-9.07-3.35-13.68A145.43,145.43,0,0,1,288.41,591a.71.71,0,0,0-1.42,0,147.73,147.73,0,0,0,2.31,26.8q1.21,6.83,3.08,13.51c.72,2.58,1.43,7.65,4.65,8.44a3.16,3.16,0,0,0,3.57-2c.89-2,0-4-.85-5.83-.38-.82-1.61-.1-1.22.72Z" transform="translate(-12.91 -104.21)"/><path class="cls-3" d="M280.36,557.74c-7.16,5.91-12.1,13.91-15.73,22.36a136.07,136.07,0,0,0-4.8,13.16c-.72,2.24-1.39,4.5-2.06,6.77s-1.43,4.77-.46,7c.76,1.79,2.66,3.38,4.71,2.73a3.14,3.14,0,0,0,2-4.34c-.42-.81-1.65-.09-1.22.72a1.72,1.72,0,0,1-1.13,2.25,2.52,2.52,0,0,1-2.79-1.44c-1.22-2.08-.28-4.66.34-6.78,1.1-3.71,2.23-7.42,3.49-11.09a84.68,84.68,0,0,1,9.9-20.74,47.32,47.32,0,0,1,8.78-9.64c.71-.58-.3-1.58-1-1Z" transform="translate(-12.91 -104.21)"/><path class="cls-3" d="M278.92,589.19a117.3,117.3,0,0,1,5.33,36.17,66.67,66.67,0,0,1-.83,12.15c-.4,2-1.3,4.15-3.28,5.09s-4.8-.38-4.16-2.78a.71.71,0,0,0-1.37-.38c-.91,3.4,2.88,5.74,5.83,4.56,4-1.59,4.51-6.25,4.82-10a118.84,118.84,0,0,0-5-45.22c-.27-.87-1.64-.5-1.37.37Z" transform="translate(-12.91 -104.21)"/><path class="cls-3" d="M275.26,643.06a22.33,22.33,0,0,1-1.86,14.25c-.95,1.91-2.65,4.66-5.2,4-1.86-.48-3-2.61-3.61-4.26a76.39,76.39,0,0,1-3.68-14.79,110.74,110.74,0,0,1-1.58-15.74,111.88,111.88,0,0,1,.88-17.64c.12-.9-1.3-.89-1.42,0a113.24,113.24,0,0,0,1.09,35.62q.84,4.39,2,8.72a22.76,22.76,0,0,0,2.62,6.83,5.53,5.53,0,0,0,4.38,2.78c2.19,0,3.85-1.66,4.94-3.39a23.46,23.46,0,0,0,2.77-16.75c-.18-.89-1.55-.51-1.37.38Z" transform="translate(-12.91 -104.21)"/><path class="cls-3" d="M318.09,534.19c-2.85-.22-5.86-.41-8.53.8a7,7,0,0,0-4.19,5.35,4.62,4.62,0,0,0,2.93,4.74,3.66,3.66,0,0,0,4.89-1.74c1.09-2.42-.42-5.3-1.78-7.29-.51-.75-1.74,0-1.22.72,1,1.45,2.08,3.29,1.93,5.11a2.23,2.23,0,0,1-3.05,2,3.24,3.24,0,0,1-2.29-3.42,5.66,5.66,0,0,1,3.41-4.19c2.44-1.12,5.31-.84,7.9-.64.91.07.91-1.35,0-1.42Z" transform="translate(-12.91 -104.21)"/><path class="cls-3" d="M280.3,531c-2.86-.22-5.86-.41-8.54.81a7,7,0,0,0-4.19,5.34,4.64,4.64,0,0,0,2.94,4.74,3.64,3.64,0,0,0,4.88-1.73c1.1-2.43-.42-5.3-1.77-7.3-.51-.75-1.74,0-1.22.72,1,1.45,2.08,3.29,1.93,5.11a2.23,2.23,0,0,1-3.06,2,3.25,3.25,0,0,1-2.29-3.42,5.67,5.67,0,0,1,3.42-4.18c2.43-1.13,5.31-.85,7.9-.65.91.07.9-1.34,0-1.42Z" transform="translate(-12.91 -104.21)"/><rect class="cls-3" x="221.21" y="486.57" width="158.03" height="26.35" rx="11.55" transform="translate(560.35 910.63) rotate(-176.93)"/><path class="cls-3" d="M349,532.56a47.7,47.7,0,0,0,13.76-5.94,39.61,39.61,0,0,0,8.07-6.55,38.12,38.12,0,0,0,5.8-8.06c-1.77-1.61-15.61-13.81-31.48-11,0,0-9.65,1.33-19,11-1.05,1.08,14.7-5.85,19,2.16.91,1.71,1.46,4.33,2.39,8.79A91.32,91.32,0,0,1,349,532.56Z" transform="translate(-12.91 -104.21)"/><path class="cls-3" d="M345.42,515.31c.48,8.46,1.78,17,5.13,24.88a40.76,40.76,0,0,0,4,7.33,53.41,53.41,0,0,1,4.83,7.37,16.28,16.28,0,0,1-.19,15.07c-.44.81.79,1.53,1.22.72A17.19,17.19,0,0,0,362,557.87a28,28,0,0,0-5-9.44,46,46,0,0,1-7.75-16.53,84.38,84.38,0,0,1-2.41-16.59c0-.91-1.47-.91-1.42,0Z" transform="translate(-12.91 -104.21)"/><path class="cls-3" d="M353.29,563a250.13,250.13,0,0,0,16.23,19.81c4.43,4.83,10.14,9.26,12.65,15.5a20.4,20.4,0,0,1,.08,14.28c-.29.87,1.08,1.24,1.37.38a22.25,22.25,0,0,0,.75-12.44,23.78,23.78,0,0,0-5.4-9.85c-2.05-2.37-4.35-4.51-6.5-6.79q-3.95-4.17-7.64-8.55-5.37-6.36-10.32-13.05c-.54-.73-1.77,0-1.22.71Z" transform="translate(-12.91 -104.21)"/><path class="cls-3" d="M256.41,492.65q-8.72,12-17.42,24l-14.37-10.73Z" transform="translate(-12.91 -104.21)"/><path class="cls-3" d="M398,429.33c2.56-5.33-3.68-13.9-4.88-14.35-17.41-6.54-52.55-15.29-84.83,3.75-19,11.22-29.1,27.4-33.81,36.62a7,7,0,0,1-.37.66c-5.53,9-10.67,19.75-22.45,24.71-9.44,4-18.06,1.92-18.08,2.26-.1,1.3,134.54,9.91,134.74,7.22.06-.86-13.7-.76-20.31-10.51-1.45-2.15-2-4.09-3.21-7.8-2.36-7.05-4.49-17.68-3.13-22.76,2.16-8.07,18.27-10,47.3-15C391.31,433.69,396.29,432.85,398,429.33Z" transform="translate(-12.91 -104.21)"/><path class="cls-3" d="M283.16,698.16a62,62,0,0,1,18.12-27.63c.68-.6-.32-1.6-1-1a63.4,63.4,0,0,0-18.48,28.26c-.28.87,1.09,1.24,1.37.37Z" transform="translate(-12.91 -104.21)"/><path class="cls-3" d="M357.21,689.3a26.85,26.85,0,0,1-3.43-13.2.71.71,0,0,0-1.42,0A28.33,28.33,0,0,0,356,690a.71.71,0,0,0,1.23-.71Z" transform="translate(-12.91 -104.21)"/><path class="cls-3" d="M283.37,698.16a62,62,0,0,1,18.12-27.63c.68-.6-.32-1.6-1-1A63.4,63.4,0,0,0,282,697.79c-.27.87,1.09,1.24,1.37.37Z" transform="translate(-12.91 -104.21)"/><path class="cls-3" d="M235,659.84q-.28,29.91-.58,59.81-.07,8.48-.16,17a.72.72,0,0,0,.71.71q28,1.11,56,1.37,29.07.27,58.14-.41,15.81-.36,31.59-1c.91,0,.92-1.45,0-1.41Q352.41,737,324,737.26q-28.92.27-57.85-.39-15.62-.36-31.22-1l.71.71.57-59.81q.09-8.47.17-16.95a.71.71,0,0,0-1.42,0Z" transform="translate(-12.91 -104.21)"/><path class="cls-3" d="M260.05,521.84a12.77,12.77,0,0,1,15.22-1.54c.78.48,1.49-.74.71-1.22A14.21,14.21,0,0,0,259,520.83c-.66.63.35,1.63,1,1Z" transform="translate(-12.91 -104.21)"/><path class="cls-3" d="M310.53,520.7a11.69,11.69,0,0,1,13.4,3.8c.54.75,1.8,0,1.25-.73a13.12,13.12,0,0,0-15-4.47c-.86.34-.48,1.74.39,1.4Z" transform="translate(-12.91 -104.21)"/><path class="cls-2" d="M289.29,698.21a53.14,53.14,0,0,1,9-24.91,19.32,19.32,0,0,1-8.48-6.44C288,664.42,287.35,662,286,657c-1.13-4.17-1.13-6.12-1-7.56a24.67,24.67,0,0,1,1.32-4.82c1.95-5.89,3.19-7.47,2.29-9.12a4,4,0,0,0-2.68-1.77c-2.44-.45-4.6,1.63-5.81,2.8-5.08,4.89-6.63,13.36-7.11,16.73a116.3,116.3,0,0,0-12.32-4.45c-8-2.39-10.2-2.11-11.85-1.06a6.48,6.48,0,0,0-3.14,5.59,6.06,6.06,0,0,0,2,3.94,5.21,5.21,0,0,0-3.77.94c-2.34,1.79-1.81,5-1.78,5.14a5.75,5.75,0,0,0,2.16,3.47,6.3,6.3,0,0,0-1.23,4,6.53,6.53,0,0,0,2.57,4.76,4.86,4.86,0,0,0-2.19,3.44,4.2,4.2,0,0,0,1.14,2.87c2.57,3.18,7.73,4.84,12.15,6.59,7.85,3.12,9.22,4.89,13.79,5.48a59,59,0,0,0,6.83.38,15.69,15.69,0,0,1,6.41.73A15.86,15.86,0,0,1,289.29,698.21Z" transform="translate(-12.91 -104.21)"/><path class="cls-3" d="M298.6,672.73a21.56,21.56,0,0,1-9.82-8.55A26.79,26.79,0,0,1,285.86,648a37.33,37.33,0,0,1,2.53-8.57c.67-1.83,1.32-4.28-.55-5.63a5.77,5.77,0,0,0-5.28-.39c-2.1.89-3.73,3-5.06,4.74a28.07,28.07,0,0,0-5.33,15c-.07.85,1.26.85,1.32,0a27,27,0,0,1,4.26-13.12c1.28-1.9,3-4.33,5.14-5.35,1.79-.87,5.11-.54,4.85,2s-1.81,4.92-2.48,7.37a28,28,0,0,0-.92,7.78,27.11,27.11,0,0,0,3.55,13.34,23,23,0,0,0,10,8.6c.77.36,1.45-.79.67-1.15Z" transform="translate(-12.91 -104.21)"/><path class="cls-3" d="M273.37,652.26a69.27,69.27,0,0,0-20.2-5.52c-2.38-.23-5.18,0-6.87,1.9-1.93,2.19-1.33,5.31-.66,7.87a.73.73,0,0,0,1.4-.38c-.62-2.36-1.33-5.59,1.11-7.18,2-1.34,4.92-.83,7.16-.46a76.47,76.47,0,0,1,17.33,5c.85.36,1.59-.89.73-1.26Z" transform="translate(-12.91 -104.21)"/><path class="cls-3" d="M246.66,656.22a6.33,6.33,0,0,0-2.77,11.17l-.11-.88a6.92,6.92,0,0,0,1.6,9.71l.17-1.33c-2.48.8-3.25,3.78-2.31,6,1.35,3.26,5.48,4.57,8.4,5.93,4.1,1.92,8.17,3.95,12.34,5.73,3.74,1.61,7.62,2.76,11.72,2.17.93-.14.53-1.54-.38-1.4-3.67.53-7.27-.6-10.61-2s-6.45-3-9.66-4.48c-2.83-1.32-6.07-2.43-8.6-4.3a4.71,4.71,0,0,1-2.13-3.28,2.72,2.72,0,0,1,1.62-3,.73.73,0,0,0,.17-1.32,5.49,5.49,0,0,1-1.08-7.73.71.71,0,0,0-.11-.88,4.88,4.88,0,0,1,2.12-8.74c.92-.17.53-1.57-.38-1.4Z" transform="translate(-12.91 -104.21)"/><path class="cls-3" d="M276,694.51a19.42,19.42,0,0,1,12.82,4.21c.73.58,1.76-.44,1-1A21,21,0,0,0,276,693.06c-.93,0-.93,1.48,0,1.45Z" transform="translate(-12.91 -104.21)"/><path class="cls-3" d="M290,698.21a53,53,0,0,1,8.89-24.54c.52-.78-.74-1.5-1.26-.73a54.38,54.38,0,0,0-9.08,25.27c-.09.93,1.36.92,1.45,0Z" transform="translate(-12.91 -104.21)"/><path class="cls-4" d="M355.65,628c3,20.6,3.3,31.62,3,37.93-.07,1.19-.78,13.14-.78,13.14s-.43,3.72-1.22,10.63a137.52,137.52,0,0,0-23.1-11.46A139,139,0,0,0,300.77,670a61.64,61.64,0,0,0-18.29,27.75,149.79,149.79,0,0,0,74.1,35.11c8.17.16,32.35-.34,42.2-15C411.6,698.75,398.73,657.74,355.65,628Z" transform="translate(-12.91 -104.21)"/><path class="cls-3" d="M350.3,587.54A63.4,63.4,0,0,1,375.24,604c6.06,6.57,10.45,14.37,14.18,22.43a129.52,129.52,0,0,1,9.95,29.34,180.69,180.69,0,0,1,2.84,28.9c.16,4.74.27,9.48.46,14.21a94.13,94.13,0,0,1-.22,13.95c-.84,7.8-3.77,16.08-11.09,19.94-7.12,3.75-16.09,3.27-23.83,2.5a129.11,129.11,0,0,1-30.71-7.14c-17.69-6.37-34.11-16-49.14-27.21q-2.39-1.77-4.72-3.6c-.69-.54-1.67.43-1,1,14.71,11.52,30.7,21.55,48,28.67a137.19,137.19,0,0,0,31.15,8.87c8.74,1.34,18.51,2.41,27.11-.31,7.06-2.24,11.78-7.74,14-14.75,2.88-9.14,1.86-19,1.57-28.42-.3-9.83-.54-19.68-1.87-29.43a119,119,0,0,0-8.83-31.62c-3.58-8.17-7.42-16.29-12.84-23.42a64.17,64.17,0,0,0-23.81-19.25c-1.9-.89-3.84-1.68-5.81-2.4-.83-.3-1.19,1-.36,1.33Z" transform="translate(-12.91 -104.21)"/><path class="cls-3" d="M300.77,670.74a133.8,133.8,0,0,1,55.89,20,131.74,131.74,0,0,1,13.77,10.09c.69.58,1.7-.42,1-1a134.51,134.51,0,0,0-70.66-30.5c-.9-.1-.89,1.32,0,1.42Z" transform="translate(-12.91 -104.21)"/><path class="cls-3" d="M283.61,698a52.81,52.81,0,0,1,17.51-26.82c.73-.59-.31-1.62-1-1a54.09,54.09,0,0,0-17.89,27.46.73.73,0,0,0,1.4.39Z" transform="translate(-12.91 -104.21)"/><path class="cls-3" d="M231.11,643.16A390.71,390.71,0,0,1,213.25,597a401,401,0,0,1-17.74-146.18,388,388,0,0,1,6.28-49.1c.39-2,.81-4.06,1.23-6.09.19-.89-1.18-1.27-1.37-.38a393.64,393.64,0,0,0-7.08,48.93,403.3,403.3,0,0,0,15.61,147.69,394.58,394.58,0,0,0,17.14,46.36q1.26,2.84,2.57,5.66c.38.83,1.61.11,1.22-.72Z" transform="translate(-12.91 -104.21)"/><path class="cls-3" d="M244.57,496.78A188,188,0,0,1,242,429.57q1.28-8.82,3.38-17.49a.71.71,0,0,0-1.37-.37A189.38,189.38,0,0,0,240.35,481q1.08,8.13,2.86,16.13c.19.9,1.56.52,1.36-.37Z" transform="translate(-12.91 -104.21)"/><path class="cls-3" d="M202.15,396.11l42.38,16.47c.85.33,1.22-1,.38-1.37l-42.38-16.46c-.86-.34-1.22,1-.38,1.36Z" transform="translate(-12.91 -104.21)"/><path class="cls-3" d="M278.68,573.26a6.09,6.09,0,0,0,12.07,1.49c.18-.89-1.19-1.28-1.37-.38a4.68,4.68,0,0,1-9.28-1.11c0-.92-1.37-.91-1.42,0Z" transform="translate(-12.91 -104.21)"/><path class="cls-5" d="M264.33,352.17c.83.08,8.06.67,12.74-4.71,3.07-3.54,5.08-9.64,2.83-12.72a23.34,23.34,0,0,1-2-2.58c-1-1.89-.51-4.21.2-6.23,1-2.79,2.37-5.51,2.55-8.46s-1.28-6.3-4.13-7.06a7,7,0,0,0-5.76,1.55c-1.66,1.23-3,2.81-4.64,4.07-3.07,2.36-6.95,3.42-10.24,5.47s-6.12,5.82-5.07,9.55c.75,2.7,3.42,4.92,3,7.69-.39,2.56-2.82,2.74-4.41,5.57-2.23,3.95-1.78,11.22,2.49,13.4C255.46,359.53,261.35,357.61,264.33,352.17Z" transform="translate(-12.91 -104.21)"/><path class="cls-3" d="M264.33,352.9a17.24,17.24,0,0,0,8.89-1.61,15.55,15.55,0,0,0,8.21-11.37,7.37,7.37,0,0,0-1.15-5.87c-.92-1.19-2-2.18-2.19-3.76a10.38,10.38,0,0,1,.87-4.59c1.66-4.54,4.34-10.39.24-14.52a5.89,5.89,0,0,0-6.46-1.14c-2.74,1.06-4.55,3.4-6.78,5.2-4.4,3.54-10.55,4.27-14.11,8.94a8.27,8.27,0,0,0-1.82,6.71c.52,2.43,2.68,4.25,3.06,6.7s-2.32,3.63-3.66,5.37a10.86,10.86,0,0,0-2,5.79c-.35,4.12,1.27,9.25,5.83,10.18,4.83,1,9.45-2.37,11.73-6.39a.73.73,0,0,0-1.25-.74c-1.93,3.41-5.82,6.49-10,5.76-3.91-.69-5.12-5.06-4.91-8.5a9.31,9.31,0,0,1,2-5.5c1.15-1.32,2.89-2.14,3.52-3.87.69-1.94-.14-3.83-1.12-5.5-1.21-2.08-2.37-4-1.6-6.51,1.58-5.12,7.27-6.82,11.54-9a26.09,26.09,0,0,0,6.13-4.51c1.91-1.77,4.57-4,7.38-3,2.11.74,3.15,3.18,3.28,5.27.17,2.7-1,5.33-2,7.79-.83,2.15-1.68,4.46-1.21,6.79s2.75,3.46,3.25,5.69-.33,5-1.37,7.05a13.58,13.58,0,0,1-5.26,5.77,15.52,15.52,0,0,1-9,1.87C263.4,351.35,263.41,352.81,264.33,352.9Z" transform="translate(-12.91 -104.21)"/><path class="cls-5" d="M228.42,361.79c-1.7-1.51-4.77-1.64-6,0-1,1.37-.36,3.46.52,4.64,1.39,1.87,4.44,2.93,6,1.57S230.25,363.4,228.42,361.79Z" transform="translate(-12.91 -104.21)"/><path class="cls-3" d="M228.92,361.28a5.56,5.56,0,0,0-5.47-1.08,3.47,3.47,0,0,0-2,2,4.59,4.59,0,0,0,.13,3.08,6.3,6.3,0,0,0,4.33,3.87,4.39,4.39,0,0,0,2.75-.12,3.27,3.27,0,0,0,1.81-1.94,5.57,5.57,0,0,0-1.52-5.82c-.68-.61-1.69.39-1,1a4.07,4.07,0,0,1,1.14,1.75,4.42,4.42,0,0,1,.2,2,3,3,0,0,1-.29.9,1.82,1.82,0,0,1-.48.59,2.31,2.31,0,0,1-1.74.37,4.9,4.9,0,0,1-3.53-2.35,4.18,4.18,0,0,1-.58-2.23,2,2,0,0,1,.3-1,1.82,1.82,0,0,1,.65-.61,4,4,0,0,1,4.33.59.71.71,0,0,0,1-1Z" transform="translate(-12.91 -104.21)"/><path class="cls-4" d="M303,317.06c2,.81,5.12,2.08,8.37,1.37,3.88-.86,4.35-2.91,9.12-7,2.93-2.51,6.87-4.59,10.53-3.36,2.55.85,4.9,3.24,7.47,2.44,1.37-.42,2.29-1.67,3.35-2.64,5.68-5.22,15.84-1.87,19.41,5s2,15.34-1.54,22.21c-3.05,6-8.74,11.86-15.42,11-2.25-.3-4.37-1.34-6.64-1.41-5.2-.14-9.12,4.86-10.81,9.79s-2.13,10.36-4.93,14.76-9.38,7.1-13.23,3.59c-3.29-3-2.51-8.32-1.16-12.56s3-9.1.68-12.92c-1.85,3.94-7.51,5.09-11.21,2.82s-5.37-7.06-4.76-11.37,3.13-8.13,6.19-11.22c-6.73-1.83-10.05-6.9-9.1-10.21a6.46,6.46,0,0,1,5.65-4.14C297.75,313,298.5,315.24,303,317.06Z" transform="translate(-12.91 -104.21)"/><path class="cls-3" d="M302.77,317.74c3,1.21,6.13,2.12,9.34,1.23a11.71,11.71,0,0,0,5.15-3.52c2.27-2.31,4.64-4.71,7.62-6.1a8.35,8.35,0,0,1,5.15-.8c1.69.35,3.1,1.43,4.65,2.13a5.74,5.74,0,0,0,3.61.61,7.51,7.51,0,0,0,3.5-2.41,9.54,9.54,0,0,1,6.87-2.85,13.87,13.87,0,0,1,12.84,9.25c2.31,6.6.45,14.12-2.79,20.08-2.94,5.41-8.4,11.19-15.16,9.84-3.27-.66-6.17-2-9.47-.62a13.4,13.4,0,0,0-6,5.53c-3.56,5.75-3.13,13-6.8,18.71a10.45,10.45,0,0,1-8.09,4.84c-3.52.09-5.81-2.65-6.09-6-.59-7,5.51-14,1.7-20.72a.72.72,0,0,0-1.23,0,7,7,0,0,1-6.61,3.61,8.1,8.1,0,0,1-6.85-4.59c-3.34-6.35.27-13.29,4.8-17.92a.71.71,0,0,0-.31-1.19,14.08,14.08,0,0,1-6.83-4c-1.2-1.36-2.28-3.34-1.8-5.21.66-2.55,4.17-4.47,6.64-3.42a14.36,14.36,0,0,1,2.45,1.57,21.33,21.33,0,0,0,3.74,2c.84.36,1.21-1,.38-1.37a24.85,24.85,0,0,1-4.46-2.6,6.43,6.43,0,0,0-3-1.28,7,7,0,0,0-7.15,4.73c-.57,2.15.42,4.4,1.73,6.07a15.17,15.17,0,0,0,7.89,4.92l-.31-1.19c-5.19,5.3-9.06,13.6-4.5,20.55a9.36,9.36,0,0,0,8,4.4,8.29,8.29,0,0,0,7.37-4.32h-1.23c1.9,3.38.82,7.33-.25,10.8-.94,3-1.94,6.15-1.63,9.38a7.84,7.84,0,0,0,4,6.52,8.76,8.76,0,0,0,7.37-.2c6.52-2.9,7.83-10.08,9.45-16.29,1.67-6.41,5.7-14.12,13.56-12.1a22.12,22.12,0,0,0,5.45,1.07,11.5,11.5,0,0,0,4.37-.86,18.44,18.44,0,0,0,7.27-5.74,30.82,30.82,0,0,0,6.75-19.17c-.12-6.08-2.86-11.8-8.36-14.68-4.58-2.4-10.46-2.58-14.4,1.11-1.26,1.19-2.4,2.73-4.35,2.42-1.67-.27-3.1-1.42-4.62-2.11-3-1.36-6.15-.77-8.95.79s-5.26,4.13-7.62,6.48a8.64,8.64,0,0,1-7.47,2.79,19.14,19.14,0,0,1-5-1.49C302.3,316,301.93,317.4,302.77,317.74Z" transform="translate(-12.91 -104.21)"/><path class="cls-2" d="M326.1,154.7c6.51-.55,13.3-3.16,16.81-8.67s2.17-14.19-3.79-16.86c-2-.9-4.51-1.17-5.89-2.9-2.05-2.55-.39-6.27-.58-9.53a8.09,8.09,0,0,0-16.17.7c.14,4.66,4.2,9.26,2.26,13.5-1.63,3.53-6.4,4.23-9.12,7-3.93,4-1.95,11.43,2.72,14.6s10.84,3,16.35,1.84" transform="translate(-12.91 -104.21)"/><path class="cls-3" d="M326.1,155.43c9.14-.83,19.83-6.19,19.44-16.76-.15-4-2-8-5.65-9.93-2.08-1.07-5.2-1.2-6.45-3.45s0-5.61-.05-8.17a8.82,8.82,0,0,0-17.64,0c-.05,2.54,1.05,4.93,1.88,7.27s1.55,5.19-.25,7.39c-1.48,1.79-3.84,2.64-5.78,3.81a9.52,9.52,0,0,0-4.19,4.52c-1.77,4.45.36,9.92,4,12.73,4.92,3.76,11.69,3.51,17.44,2.29.91-.19.52-1.59-.39-1.4-5,1.05-10.59,1.36-15.12-1.34-3.54-2.1-5.9-6.62-4.93-10.74,1-4.42,5.71-5.27,8.83-7.77a6.88,6.88,0,0,0,2.66-4.6c.25-2.19-.56-4.33-1.31-6.35-.81-2.2-1.79-4.6-1.29-7a7.92,7.92,0,0,1,4.1-5.3c4.34-2.25,9.88,1,10.46,5.78.49,4.11-2.19,9.25,2.55,11.77,1.85,1,4,1.23,5.73,2.46a9.26,9.26,0,0,1,3.3,4.64,12.5,12.5,0,0,1-2.89,12.55c-3.72,3.93-9.22,5.69-14.49,6.16-.92.09-.93,1.54,0,1.46Z" transform="translate(-12.91 -104.21)"/><path class="cls-5" d="M466.52,300A11.32,11.32,0,1,0,478,312.88,11.6,11.6,0,0,0,466.52,300Z" transform="translate(-12.91 -104.21)"/><path class="cls-3" d="M466.52,299.26a12.28,12.28,0,0,0-11.09,8.06,12,12,0,1,0,23.09,1.53,12.46,12.46,0,0,0-12-9.59.73.73,0,0,0,0,1.45,11,11,0,0,1,10.11,6.94,10.39,10.39,0,0,1-3,11.69,10.58,10.58,0,0,1-12.05,1.16,10.7,10.7,0,0,1-5.23-11,10.81,10.81,0,0,1,10.18-8.82C467.45,300.68,467.46,299.22,466.52,299.26Z" transform="translate(-12.91 -104.21)"/><path class="cls-4" d="M71.39,127c7.59.49,13.83,8.41,12.52,15.91s-9.85,12.85-17.17,10.75S55,142.47,57.9,135.42c.75-1.84,1.92-3.63,1.82-5.61a29.53,29.53,0,0,1-.42-3.2c.18-2.53,3.2-4.06,5.69-3.62s4.53,2.2,6.41,3.9" transform="translate(-12.91 -104.21)"/><path class="cls-3" d="M71.39,127.7c5.76.46,10.58,5.23,11.73,10.8s-2.2,11-7.2,13.46a12.06,12.06,0,0,1-14.56-2.6A14.35,14.35,0,0,1,58,142.51a13.09,13.09,0,0,1,1.26-8.29,9.18,9.18,0,0,0,1.18-4.87c-.22-1.91-.87-3.57,1-4.87,3.37-2.37,7.06.72,9.51,2.92.69.62,1.73-.4,1-1-2.47-2.21-5.47-4.75-9-4.06a5.71,5.71,0,0,0-3.5,2.12c-1.07,1.47-.75,3-.48,4.65.38,2.28-.9,4.12-1.7,6.15a12.93,12.93,0,0,0-.91,4.43,15.42,15.42,0,0,0,2.45,8.65,13.53,13.53,0,0,0,15.61,5.84C80.21,152.3,85,146.84,84.8,140.5a15.06,15.06,0,0,0-13.41-14.25c-.94-.08-.93,1.38,0,1.45Z" transform="translate(-12.91 -104.21)"/><path class="cls-5" d="M51.55,171.86c3.22-1.94,10.79,2.37,12.47,8.32.21.75,1.15,4.1-.82,7s-5.91,4.18-8.89,2.86-3.69-4.95-4.24-8C49.8,180.45,48.58,173.65,51.55,171.86Z" transform="translate(-12.91 -104.21)"/><path class="cls-3" d="M51.91,172.49c2.44-1.39,6,.89,7.76,2.44a10.86,10.86,0,0,1,4,8.3,6.89,6.89,0,0,1-8.3,6.39c-3.64-.94-4.21-5.29-4.73-8.42a23.08,23.08,0,0,1-.35-4.39c0-1.46.23-3.45,1.59-4.32.79-.51.06-1.76-.73-1.26-2.93,1.89-2.46,6.5-2,9.46.5,3.56,1.14,8.26,4.82,9.94,4.1,1.88,9.31-.76,10.76-4.88,1.32-3.78-.33-8-2.92-10.79-2.32-2.5-7.09-5.72-10.61-3.73A.73.73,0,0,0,51.91,172.49Z" transform="translate(-12.91 -104.21)"/><path class="cls-5" d="M279.51,356.85c3.22-1.94,10.79,2.37,12.47,8.32.2.75,1.15,4.1-.82,7s-5.91,4.18-8.89,2.86-3.69-4.95-4.24-8C277.76,365.44,276.54,358.64,279.51,356.85Z" transform="translate(-12.91 -104.21)"/><path class="cls-3" d="M279.87,357.48c2.44-1.39,6,.89,7.76,2.45a10.82,10.82,0,0,1,4,8.29,6.88,6.88,0,0,1-8.29,6.39c-3.64-.93-4.21-5.29-4.73-8.42a23.08,23.08,0,0,1-.35-4.39c0-1.46.23-3.45,1.59-4.32.79-.51.06-1.76-.73-1.26-2.93,1.89-2.46,6.5-2.05,9.46.5,3.56,1.14,8.27,4.81,9.94,4.1,1.88,9.32-.76,10.77-4.88,1.32-3.78-.33-8-2.92-10.79-2.33-2.5-7.09-5.72-10.61-3.73A.73.73,0,0,0,279.87,357.48Z" transform="translate(-12.91 -104.21)"/><path class="cls-2" d="M203.71,336.14c4.22,2.45,10.95.13,14.69-4,3.34-3.69,5.68-10.19,3-13.43-1.4-1.69-3.56-2.69-4.75-4.55s-1.17-4.53-1.52-6.87-1.59-5-3.93-5.33-4.55,2.06-4.82,4.5.73,4.83,1.59,7.14,1.6,4.86.8,7.19c-.48,1.43-1.07,1.46-4.46,5.24-3.55,4-3.77,4.91-3.76,5.65C200.58,334.26,203.59,336.06,203.71,336.14Z" transform="translate(-12.91 -104.21)"/><path class="cls-3" d="M203.36,336.75c6.07,3.35,13.89-1.15,17.25-6.37,1.75-2.71,3.15-6.26,2.52-9.53-.74-3.86-5.24-4.78-6.47-8.3-1.17-3.33-.2-7.33-2.95-10.05-2.56-2.54-6.22-.95-7.54,2-1.81,4.11,1.18,8.21,2,12.17.3,1.48.42,3.36-.51,4.67a24.07,24.07,0,0,1-2.2,2.32,54.46,54.46,0,0,0-4.23,4.87,6.7,6.7,0,0,0-1.35,2.45c-.51,2.35,1.61,4.62,3.47,5.73a.71.71,0,0,0,.71-1.23c-1.35-.81-3.15-2.59-2.79-4.21a5.35,5.35,0,0,1,1-1.81,44.48,44.48,0,0,1,3.4-4c1.14-1.23,2.79-2.44,3.52-4,1.43-3.06,0-6.51-1.07-9.43-.7-1.91-1.48-4.09-1-6.15.4-1.63,1.82-3.42,3.67-3.32,3.6.21,3.6,5.52,3.94,8a9,9,0,0,0,1.55,4.32,24.33,24.33,0,0,0,3.52,3.2c2.5,2.23,2.26,5.32,1.17,8.26a15.57,15.57,0,0,1-7.05,8.27c-2.93,1.62-6.81,2.55-9.91.84C203.27,335.08,202.55,336.31,203.36,336.75Z" transform="translate(-12.91 -104.21)"/><path class="cls-4" d="M192.39,306.5c4.3,2.08,6.44,3.12,8.11,5.49.72,1,3.58,5.51,1.79,9.12-1.47,2.95-6,4.13-8.19,1.67-2-2.31-1.14-6.22-3.19-8.51-2.82-3.15-6.22-3.21-6.32-5.38-.07-1.49,1.6-3,3.19-3.44C188.91,305.13,190,305.35,192.39,306.5Z" transform="translate(-12.91 -104.21)"/><path class="cls-3" d="M192,307.13c3,1.45,6.3,2.78,8.16,5.69,1.72,2.69,3.26,7,.26,9.43a4.91,4.91,0,0,1-4.45.94c-1.86-.64-2.35-2.65-2.68-4.38s-.59-3.48-1.73-4.87a14.91,14.91,0,0,0-4.48-3.35c-.57-.32-1.42-.7-1.7-1.34-.38-.87.43-1.81,1.06-2.31,1.84-1.48,3.65-.73,5.56.19.84.4,1.58-.85.73-1.26-1.67-.8-3.54-1.68-5.41-1.05s-3.91,2.46-3.41,4.58c.4,1.68,2.39,2.37,3.71,3.16a10,10,0,0,1,3,2.45,7.71,7.71,0,0,1,1.11,3.09c.39,2,.69,4.3,2.41,5.68a5.5,5.5,0,0,0,5.26.68,6.17,6.17,0,0,0,3.95-4,9.29,9.29,0,0,0-.83-6.41,12.34,12.34,0,0,0-3.06-4.32,29.17,29.17,0,0,0-6.68-3.85C191.92,305.47,191.18,306.72,192,307.13Z" transform="translate(-12.91 -104.21)"/><path class="cls-4" d="M354.8,136.72c5.59-4.86,8.38-7.29,12-8.29,1.58-.44,8.16-1.93,10,2.62,1.49,3.71-1.28,10.76-5.42,12.42-3.86,1.55-6.74-1.9-10.6-.31-5.33,2.18-8.27,6.93-10.37,5.85-1.45-.74-1.43-3.93-.49-6.41C350.57,140.83,351.72,139.4,354.8,136.72Z" transform="translate(-12.91 -104.21)"/><path class="cls-3" d="M355.49,137.41c3.57-3.11,7.34-7,12.11-8.19a11.67,11.67,0,0,1,5.22-.22,4.26,4.26,0,0,1,3.4,4.61,11.72,11.72,0,0,1-2.41,6.66,5.93,5.93,0,0,1-6.85,2.27c-2.65-.69-4.84-1.11-7.41.1s-4.47,3-6.66,4.6c-.44.32-1.39,1.16-2,.94-1.11-.4-.63-3.16-.46-3.92.65-3,2.85-4.92,5.06-6.85.94-.83-.44-2.19-1.37-1.37-2.21,1.93-4.42,4-5.33,6.82-.64,2-1.21,6.35,1.57,7.18,2.14.63,4.31-1.76,5.8-2.92a22.25,22.25,0,0,1,4.37-2.8,6.72,6.72,0,0,1,5-.17c3,.82,5.78,1.07,8.32-1.07a13.23,13.23,0,0,0,4.09-7.32c.5-2.49.34-5.37-1.67-7.17-1.79-1.6-4.35-1.87-6.64-1.65-6.35.61-10.89,5.1-15.48,9.1C353.17,136.86,354.55,138.22,355.49,137.41Z" transform="translate(-12.91 -104.21)"/><path class="cls-4" d="M237.46,375c-1.85-1.54-5.44.08-5.78,1.78-.4,2,3.43,5,5.34,4C238.56,380,239.21,376.45,237.46,375Z" transform="translate(-12.91 -104.21)"/><path class="cls-3" d="M238,374.48a4.6,4.6,0,0,0-5.18-.05,4,4,0,0,0-1.66,1.68,2.63,2.63,0,0,0,.13,2.29,6.38,6.38,0,0,0,3.68,3.08,3.23,3.23,0,0,0,2.17,0,3,3,0,0,0,1.61-1.64c.77-1.7.77-4.1-.75-5.4a.75.75,0,0,0-1,0,.74.74,0,0,0,0,1,1.07,1.07,0,0,1,.19.18,1.14,1.14,0,0,1,.12.12l.09.14a1.59,1.59,0,0,1,.13.22s.12.26.07.13c0,.07,0,.14.07.22a2.81,2.81,0,0,1,.12.48c0,.14,0,.05,0,0s0,.09,0,.14a1.94,1.94,0,0,1,0,.24,4.34,4.34,0,0,1,0,.51,2.45,2.45,0,0,1,0,.27c0-.13,0,.08,0,.11s-.07.33-.11.49l-.09.25,0,.09c0,.11,0-.09,0,0a3.17,3.17,0,0,1-.21.41l-.13.2c-.07.11.07-.07-.05.06a3.83,3.83,0,0,1-.29.28c.14-.12,0,0-.07,0s-.19.1-.09.06-.07,0-.11,0a1.46,1.46,0,0,0-.2.05c.17-.06,0,0-.07,0h-.2l-.19,0c.16,0,0,0-.1,0a3.17,3.17,0,0,1-.44-.12l-.21-.07h0L235,380a5.87,5.87,0,0,1-.88-.5l-.22-.16s-.1-.07,0,0l-.06,0c-.13-.11-.26-.22-.38-.34l-.35-.36-.15-.18h0a.86.86,0,0,0-.07-.1c-.09-.13-.17-.26-.25-.39l-.09-.18s-.05-.13,0,0l0-.1c0-.12-.06-.26-.1-.38s0,.05,0,.06,0-.06,0-.1V377c0-.12,0,0,0,0s0-.06,0-.09,0-.12.05-.18,0,.05,0,.06l.05-.1a1.18,1.18,0,0,1,.11-.19.36.36,0,0,1,.07-.1s-.1.11,0,0l.15-.16.35-.32c-.09.07,0,0,0,0l.14-.1.23-.14a4.58,4.58,0,0,1,.54-.28c-.1,0,.13,0,.16-.06l.31-.1a6,6,0,0,1,.61-.13c-.12,0,.11,0,.16,0H236c-.14,0,0,0,0,0l.3.07.14.05a1.92,1.92,0,0,1,.25.12l.11.07.08.06a.77.77,0,0,0,1,0A.75.75,0,0,0,238,374.48Z" transform="translate(-12.91 -104.21)"/><path class="cls-4" d="M563.83,272.92a11.76,11.76,0,0,0,6.77,1.72c4.08-.11,6.84-2.24,8.32-3.16,4.07-2.52,8.37-6.79,6.91-11.34-1.09-3.38-4.86-5-7.07-7.81-1.85-2.34-2.67-5.57-5.16-7.21-3.09-2-7.51-.54-9.89,2.3-1.79,2.13-2.71,4.66-4,10.23-1,4.14-1.45,6.26-.79,8.62A11.91,11.91,0,0,0,563.83,272.92Z" transform="translate(-12.91 -104.21)"/><path class="cls-3" d="M563.46,273.55a13.19,13.19,0,0,0,9.4,1.55,21.12,21.12,0,0,0,7.87-4c2.67-1.93,5.44-4.6,6-8s-1.41-5.85-3.78-7.88a24.78,24.78,0,0,1-3.79-3.59c-1-1.4-1.73-3-2.68-4.51a7.26,7.26,0,0,0-7.62-3.58c-6.62,1.19-8.5,8-9.83,13.64-.83,3.49-1.82,7-.41,10.51a12.63,12.63,0,0,0,4.83,5.81c.79.5,1.52-.76.73-1.26a11.07,11.07,0,0,1-3.68-4c-1.43-2.57-1.3-5.11-.71-7.9,1-4.86,2-11.61,6.7-14.4,2.73-1.6,6-1.54,8.13,1,1.81,2.25,2.67,5,4.79,7.06s4.8,3.47,5.71,6.22c1.06,3.25-1.28,6.28-3.57,8.31-4.74,4.2-11.39,7.23-17.37,3.65A.73.73,0,0,0,563.46,273.55Z" transform="translate(-12.91 -104.21)"/><path class="cls-5" d="M487.21,113.34c4.94,1.49,8.8,6.45,8.44,11.6s-5.39,9.68-10.51,9-8.72-7.08-6.26-11.62c1.82-3.35,6.26-5.68,5.83-9.48a4.32,4.32,0,0,1,5.06,1.64" transform="translate(-12.91 -104.21)"/><path class="cls-3" d="M487,114a11.52,11.52,0,0,1,7.64,8,9.18,9.18,0,0,1-4,9.88,7.36,7.36,0,0,1-9.57-1,7.24,7.24,0,0,1-1.12-9c1.94-2.92,5.83-5.19,5.5-9.15l-.53.7a3.64,3.64,0,0,1,4.24,1.31c.53.76,1.79,0,1.25-.74a5.13,5.13,0,0,0-5.88-2,.75.75,0,0,0-.53.7c.18,2.15-1.25,3.75-2.62,5.23a16.4,16.4,0,0,0-3.42,4.53c-1.43,3.39-.08,7.42,2.55,9.84a8.77,8.77,0,0,0,10.61.88,10.7,10.7,0,0,0,5.18-10.46,12.88,12.88,0,0,0-8.89-10.2c-.89-.29-1.27,1.11-.38,1.4Z" transform="translate(-12.91 -104.21)"/><path class="cls-2" d="M205.05,363.27s6.34,2.55,7.69,6.7a7.3,7.3,0,0,1-2.7,7.85,6,6,0,0,1-7.92-.89,13.82,13.82,0,0,0-1.3-1.74c-2.21-2.09-6,.08-8.83-1a4.89,4.89,0,0,1-2.88-4.23,8,8,0,0,1,1.62-5,8.71,8.71,0,0,1,4.66-3.51,5.79,5.79,0,0,1,5.54,1.23c.53.51.77,1.05,1.49,1.22A4.5,4.5,0,0,0,205.05,363.27Z" transform="translate(-12.91 -104.21)"/><path class="cls-3" d="M204.86,364l.59.27c.62.3,1.24.63,1.84,1a12.6,12.6,0,0,1,4,3.43c2.51,3.6.07,9.29-4.46,9.52a5.16,5.16,0,0,1-2.92-.67c-1.07-.62-1.51-1.69-2.3-2.57-1.41-1.59-3.51-1.5-5.45-1.31-2.48.25-5.09.24-6-2.56-.87-2.53.58-5.32,2.36-7.08,2.07-2.05,5.63-3.08,8-.86.85.81,1.35,1.52,2.64,1.48a5.49,5.49,0,0,0,2.36-.71c.82-.45.09-1.7-.74-1.26a4.43,4.43,0,0,1-1.16.45c-1.07.22-1.39-.33-2.07-1A6.09,6.09,0,0,0,198,360.5a8.06,8.06,0,0,0-6.87,2.73c-1.86,2-3.21,4.81-2.65,7.57a5.39,5.39,0,0,0,4.75,4.39A22,22,0,0,0,197,375c1.84-.14,3,.14,4.11,1.69a6.44,6.44,0,0,0,5.72,2.94c4.72-.22,8.09-5.4,6.64-9.86-1.14-3.51-4.95-5.88-8.2-7.21C204.38,362.22,204,363.62,204.86,364Z" transform="translate(-12.91 -104.21)"/><text class="cls-6" transform="matrix(0.98, 0.18, -0.18, 0.98, 104.36, 137.97)">W</text><text class="cls-6" transform="translate(193.25 152.01) rotate(-3.11)">e</text><text class="cls-6" transform="translate(237.45 147.8) rotate(-10.26)">l</text><text class="cls-6" transform="matrix(1, -0.08, 0.08, 1, 260.36, 142.65)">c</text><text class="cls-6" transform="translate(297.32 139.61) rotate(5.09)">o</text><text class="cls-6" transform="translate(337.4 144.96) rotate(7.8)">m</text><text class="cls-6" transform="translate(410 152.83) rotate(-4.41)">e</text><text class="cls-6" transform="translate(453.58 148.68) rotate(-9.91)">!</text><text class="cls-7" transform="translate(469.99 145.83) rotate(-12.97)"> </text><path class="cls-8" d="M280.56,221.93" transform="translate(-12.91 -104.21)"/><path class="cls-5" d="M77.43,298.07c-.94-3.2.27-4.81.79-5.45,1.84-2.31,5.55-2.12,7.27-2.2,4.73-.24,11.64.87,16.48,5.62,3.6,3.53,4,7.15,6.4,10.82,2,3.09,5.55,6.33,6.47,9.2,1.15,3.56-2.5,4.87-6.9,3.85-3.31-.77-6.72-2.38-14-6.37-5.36-3-8.1-4.49-10.66-6.9C78.77,302.36,77.58,298.57,77.43,298.07Z" transform="translate(-12.91 -104.21)"/><path class="cls-3" d="M78.15,297.87c-.91-3.38.6-5.91,4.1-6.49a27,27,0,0,1,8.51.08,20.33,20.33,0,0,1,9.81,4.31c3.17,2.69,4.34,6.33,6.21,9.87s4.94,6,6.81,9.44c.66,1.2,1.23,2.88-.17,3.79s-3.38.71-4.89.4a28.29,28.29,0,0,1-6.66-2.43c-3.56-1.71-7-3.65-10.46-5.59-5.39-3-11.37-7.11-13.26-13.38a.75.75,0,0,0-1.44.4c1.85,6.14,7.43,10.53,12.75,13.59,3.86,2.23,7.78,4.42,11.79,6.34a26.66,26.66,0,0,0,8,2.7c2.7.33,6.82-.38,6.52-3.95a10.08,10.08,0,0,0-2.37-4.83c-1.37-1.79-2.92-3.45-4.19-5.32-2.55-3.73-3.51-8.2-6.87-11.43a21.12,21.12,0,0,0-10.7-5.26,26.37,26.37,0,0,0-5.75-.46,21.77,21.77,0,0,0-5,.48c-3.83,1-5.22,4.49-4.23,8.14A.75.75,0,0,0,78.15,297.87Z" transform="translate(-12.91 -104.21)"/></svg>