<svg id="Livello_1" data-name="Livello 1" xmlns="http://www.w3.org/2000/svg" viewBox="0 0 569.71 521.45"><defs><style>.cls-1{fill:#c6c6c6;stroke:#1d1d1b;stroke-miterlimit:10;stroke-width:1.85px;}.cls-2{fill:#bdbf0e;}.cls-3,.cls-5{fill:#1d1d1b;}.cls-4{fill:#fff;}.cls-5{font-size:49.44px;font-family:AubangeBelgium-Regular, Aubange Belgium;}</style></defs><path class="cls-1" d="M59.21,611.1c-28.36-34.26-37.66-87.39-21.32-132.34,18.43-50.7,66.69-83.34,110.75-88.6,29.14-3.47,45.7,6.31,67.4,11.07,42.27,9.28,107.86.35,207.25-86.37,31.76,12.14,65.5,29.35,65.13,49.53-.12,6.26-5.56,8.77-9.42,19.94-6.25,18.06-1.36,34.55.12,40.84,8.21,35.07-8.67,99.66-35.9,140-24.2,35.85-57,52-79.73,64.24C272.39,678.36,124.41,689.84,59.21,611.1Z" transform="translate(-13.14 -154.63)"/><path class="cls-2" d="M166.16,205.21c47.6-24.63,84-32.88,104.88-36.08A168.79,168.79,0,0,1,298.23,167c16.07.09,47.31.27,71.74,19.27,3.69,2.86,9.08,8.58,19.87,20,9.8,10.4,13.15,14.72,23.79,26.63,16.08,18,24.12,27,29.85,31.56,15.23,12.12,29.93,16.94,41.18,20.63,16.18,5.3,32.4,6.16,64.72,8.24,11.64.76,21.27,1.14,27.82,1.35-28,32.33-55.37,76.9-58.93,131.56q-.36,5.52-.39,10.91c-1.55.12-3.8.28-6.52.42a207.53,207.53,0,0,1-61.23-5.92c-7.92-2.08-27.88-7.48-48.18-20.28-38-23.95-31.33-44.92-64.27-70.65-39.41-30.78-86.54-30.08-93.82-29.9-22.78.55-40.41,6.51-68.56,16a397.48,397.48,0,0,0-48.39,20Q146.53,276.06,166.16,205.21Z" transform="translate(-13.14 -154.63)"/><path class="cls-3" d="M127.44,347.82A454.41,454.41,0,0,1,176,328.39q14.1-4.72,28.41-8.84a174.7,174.7,0,0,1,21.89-5c19-2.88,38.81-3,57.82,1A117,117,0,0,1,328,334.36c15.45,11,26.44,26.39,37.63,41.44,8.23,11.07,16.73,22.26,27.86,30.58a160.88,160.88,0,0,0,33.67,18.94c15.69,6.63,32.67,11.44,49.72,12.69,12.6.93,25.31.64,37.93.32,1,0,2-.07,3.06-.07a1.07,1.07,0,0,0,1.06-1.05c.13-3.64.25-7.28.38-10.91,0-1.36-2.06-1.36-2.11,0l-.39,10.91,1.06-1.06c-10.49,0-21,.46-31.45.19a158.07,158.07,0,0,1-48.86-9.23,168.66,168.66,0,0,1-38.7-19.48,91.47,91.47,0,0,1-10.13-7.83c-6.3-5.77-11.75-12.54-16.94-19.31C360.55,365.8,350.32,350,336.07,338a113.75,113.75,0,0,0-42.87-22.32c-20.33-5.7-41.92-6.58-62.8-3.78-13.82,1.85-27.81,5.9-41.38,10.13a496.83,496.83,0,0,0-53.24,19.71q-4.72,2.09-9.4,4.28c-1.23.58-.16,2.4,1.06,1.83Z" transform="translate(-13.14 -154.63)"/><path class="cls-4" d="M173.07,193.88C220.66,169.25,257.1,161,278,157.8a168.59,168.59,0,0,1,27.19-2.09c16.07.09,47.3.27,71.74,19.27,3.68,2.86,9.08,8.58,19.87,20,9.8,10.4,13.15,14.72,23.79,26.63,16.07,18,24.11,27,29.84,31.56,15.24,12.12,29.94,16.94,41.19,20.63,26.64,8.73,49.25,8.53,64.71,8.24a231.94,231.94,0,0,0,25.5-1.87q-22.72,72.24-45.46,144.47c-4.36.59-10.57,1.28-18.05,1.64A207.88,207.88,0,0,1,457,420.38c-7.92-2.08-27.89-7.48-48.19-20.28-38-24-31.33-44.92-64.26-70.65-39.41-30.78-86.54-30.08-93.82-29.9-22.78.55-40.42,6.51-68.56,16a397.73,397.73,0,0,0-48.4,20Q153.45,264.72,173.07,193.88Z" transform="translate(-13.14 -154.63)"/><rect class="cls-3" x="101.37" y="180.84" width="7.29" height="480.08" rx="3.65" transform="translate(109.42 -167.18) rotate(16.33)"/><path class="cls-4" d="M99.19,610.81a19.77,19.77,0,0,1-10.68-2.51c-3.29-1.93-4.73-4.28-7.19-7.13a52.8,52.8,0,0,0-12.85-10.72,8.41,8.41,0,0,0-8-2.68A8.6,8.6,0,0,0,55,591.91c-4.23-4.41-9.57-6.06-13.24-4.23-.38.19-4.11,2.11-4,5.57A6.21,6.21,0,0,0,42,598.5c-4.83-.47-6.74.57-7.53,1.75-1.51,2.26.89,5.32-1.06,8.56-1.15,1.9-2.47,1.68-2.89,3.22-.87,3.18,4.06,6.61,3.45,7.4-.42.53-2.56-1.15-6.26-2.13,0,0-6.48-1.71-11.37,1.14a3.15,3.15,0,0,0-1.54,1.63c-.47,1.41.57,2.92.91,3.41,2.8,4,12,1.78,22.58,6.16,3.79,1.57,3,2,8.3,4.39a59.64,59.64,0,0,0,15.29,4.77c8.49,1.33,10.43-.75,19.58.11a57,57,0,0,1,13.21,2.85,40.53,40.53,0,0,0,4.48-31Z" transform="translate(-13.14 -154.63)"/><path class="cls-2" d="M156.65,671.89a28.87,28.87,0,0,0,35.66-20.29l-.21,22.08c84.56,2.28,147,2.07,162.8,0,10.3-1.39,15.06-5.5,16.91-7.37,5.22-5.27,6.55-11.58,7.68-17,1-4.81,1.05-8.55.42-20.45-.66-12.24-1-18.35-1.55-23.19-3.12-27-6.7-57.87-28.34-80.18-5.55-5.71-15.94-14.63-33.5-20.71L187.33,516.61a147,147,0,0,0-19.64,41c-2.54,8.6-3.2,13.94-8.06,35.43-2.82,12.5-5.31,22.7-7,29.47A172.9,172.9,0,0,0,129,614.26a175.32,175.32,0,0,0-35.61-5.73,64,64,0,0,1-.58,20.08,63.58,63.58,0,0,1-5.11,15.61c11,3.33,22.7,7.38,35,12.32S146.37,666.7,156.65,671.89Z" transform="translate(-13.14 -154.63)"/><path class="cls-4" d="M315.18,425A90,90,0,0,0,320.92,451c5.7,14.72,16.11,25,12,32.65a8.83,8.83,0,0,1-2.38,2.78c4.12,4.65,7.48,8.33,9.62,10.66,11.25,12.22,16.13,16.68,18.05,24.8a31.72,31.72,0,0,1,.73,4.91,25.65,25.65,0,0,1-1.3,9.27A63.44,63.44,0,0,0,350,525.45a69.67,69.67,0,0,0-12.28-10.69,73.62,73.62,0,0,0-16.63-8.53,78.22,78.22,0,0,1,1.7,15.93c0,10.61-2.2,12.41-3.25,13a5.23,5.23,0,0,1-3.24.49,103.23,103.23,0,0,1,5.36,14.46c4,14,4,25,3.88,34.73-.24,20.16-4.13,26.61-6.09,29.38a31.56,31.56,0,0,1-3.22,3.87,15.44,15.44,0,0,1-6.92,1.62,15.75,15.75,0,0,1-9-2.92,42.06,42.06,0,0,1,.18,15.26c-.51,2.86-4.57,24.1-17.83,26.27-9.52,1.56-21.55-7.07-25.79-21.81,1.94,6.52,1.36,12.33-1.17,13.92a18.1,18.1,0,0,1-5,1.71,7.42,7.42,0,0,1-2.3.27c-3.2-.38-5.08-5.14-5.36-5.82-1.9-4.8,0-7.16-1.62-13.07a23.8,23.8,0,0,0-1.91-4.9,19.33,19.33,0,0,1-17.06,10.14c-10.19-.26-15.45-9.38-16.44-11.09-5.11-8.85-2.28-17.88-1.78-19.37a22.43,22.43,0,0,1-7.74-7.74,23.64,23.64,0,0,1-2.5-17,5.82,5.82,0,0,1-3,2.55,4.7,4.7,0,0,1-2.49.19c-3.32-1-2.1-16.25-1-31.7,0,0,1.4-19.93.7-20-.09,0,.23,3.46-2,5.91-1.3,1.45-3.67,2.74-5.72,2.08s-3-3.22-3.3-4c-1.29-3.81.37-7.47,1.55-10.25,2.24-5.29,3.52-10.94,5.74-16.23,2-4.7,4.65-11.44,7.49-20-.39.49-2.57,3.13-5.74,3a6.8,6.8,0,0,1-3.54-1.27c-3.23-2.45-2.37-11,1.55-21-1.72.27-3.86.3-5.11-1-2.9-3,.95-11.07,4.61-18.5,4.16-8.44,9.93-19.76,17.36-33.28Z" transform="translate(-13.14 -154.63)"/><path class="cls-3" d="M311,474.28a153,153,0,0,1,8.5,28.08c1,4.81,1.69,9.67,2.17,14.55.25,2.47.43,5,.56,7.44s.39,5.08-.56,7.37-3.39,3.93-5.9,2.71-3.55-3.94-4.48-6.34c-.37-.94-1.9-.53-1.53.42,1.46,3.74,4.18,9,9.14,7.81s5.13-7.41,4.93-11.51a152.43,152.43,0,0,0-11.3-50.95c-.38-.93-1.92-.52-1.53.42Z" transform="translate(-13.14 -154.63)"/><path class="cls-3" d="M316.82,536.23a153.13,153.13,0,0,1,8.1,46.52c.12,7.23.06,14.76-1.4,21.87-1.15,5.62-3.82,12-9.74,14s-13-1-15.4-6.72c-.39-.93-1.92-.52-1.53.42A14.37,14.37,0,0,0,310,620.75c6.3,0,11-4.41,13.3-10,2.75-6.59,2.95-14.21,3.14-21.25a154.37,154.37,0,0,0-8.12-53.71c-.33-1-1.86-.55-1.53.42Z" transform="translate(-13.14 -154.63)"/><path class="cls-3" d="M300.51,617.76c.8,11.11-1.57,23-7.59,32.53-2.76,4.36-6.81,7.6-12.17,7.59-5.05,0-9.82-2.5-13.36-6-4.28-4.21-7.05-9.64-9.77-14.92-.46-.91-1.83-.11-1.37.8,4.87,9.47,11.06,20.33,22.82,21.59,12.08,1.29,18-11.38,20.82-21.08a57.91,57.91,0,0,0,2.2-20.53c-.07-1-1.66-1-1.58,0Z" transform="translate(-13.14 -154.63)"/><path class="cls-3" d="M256.41,637.15c.8,4,1.7,8.63-.74,12.27a5.92,5.92,0,0,1-9.15,1.15c-3.09-2.67-3.68-6.91-4-10.76s-.48-7.84-2.34-11.37c-.48-.9-1.85-.1-1.37.8,3.44,6.51.52,14.93,5.2,21,1.77,2.29,4.59,4,7.56,3.64a8.26,8.26,0,0,0,6.27-5.14c1.68-3.8.87-8.06.09-12-.2-1-1.73-.57-1.53.42Z" transform="translate(-13.14 -154.63)"/><path class="cls-3" d="M238.78,626.53c-1.87,7.43-9.61,12.12-17.06,11.3-8.16-.9-14.69-7.38-17-15a29,29,0,0,1-.51-14.35c.21-1-1.32-1.42-1.53-.42-1.85,8.93-.09,18.92,6.69,25.43,6.09,5.86,15.31,8,22.9,3.73A16.57,16.57,0,0,0,240.31,627a.8.8,0,0,0-1.53-.43Z" transform="translate(-13.14 -154.63)"/><path class="cls-3" d="M203.1,606.85a22.94,22.94,0,0,1-8.5-24.65.79.79,0,0,0-1.53-.42,24.56,24.56,0,0,0,9.23,26.44c.83.59,1.62-.78.8-1.37Z" transform="translate(-13.14 -154.63)"/><path class="cls-3" d="M201.5,468.55q-8.82,18.78-16.08,38.24-3.63,9.68-6.9,19.46c-1.65,4.91-4.88,12.11,0,16.25a5.49,5.49,0,0,0,7,0c2.79-2.13,3.41-5.65,3.86-8.91.14-1-1.39-1.43-1.53-.42-.37,2.7-.74,5.8-2.88,7.73a4.12,4.12,0,0,1-6.65-1.13c-1.47-2.6-.72-5.7.12-8.38.91-2.89,1.9-5.74,2.88-8.6q6-17.37,13-34.34,4-9.66,8.49-19.12c.43-.92-.93-1.73-1.37-.8Z" transform="translate(-13.14 -154.63)"/><path class="cls-3" d="M186.94,539.16a154.15,154.15,0,0,0-1.38,27.33c.12,4.55.35,9.09.59,13.63.14,2.55-.13,7.32,3.45,7.62a4.87,4.87,0,0,0,5-6c-.21-1-1.74-.58-1.53.42a3.25,3.25,0,0,1-2.38,3.86c-2.31.61-2.71-1.76-2.82-3.52-.29-4.69-.52-9.4-.67-14.1a156.41,156.41,0,0,1,1.27-28.86c.15-1-1.37-1.43-1.53-.42Z" transform="translate(-13.14 -154.63)"/><rect class="cls-3" x="241.29" y="462.5" width="14.98" height="23.14" rx="7.49" transform="translate(414.4 824.1) rotate(-171.82)"/><path class="cls-3" d="M297.19,418a104.91,104.91,0,0,1,6.27,20.09,85,85,0,0,1,2,20.35,16.13,16.13,0,0,1-2.36,8.55,11.82,11.82,0,0,1-6.72,4.51,31.49,31.49,0,0,1-8.54.95c-3.39,0-6.78-.13-10.16-.2l-44.31-.94c-5.33-.11-10.85-.2-15.9-2.15a14.3,14.3,0,0,1-5.92-4,13.21,13.21,0,0,1-2.78-8.53,52.07,52.07,0,0,1,1.54-11q1.2-5.74,2.79-11.42a172.08,172.08,0,0,1,8.09-22.59c.41-.92-1-1.73-1.37-.8a174.77,174.77,0,0,0-7.66,20.94,127.87,127.87,0,0,0-4.76,21.33c-.69,5.89.46,11.81,5.5,15.47,4.24,3.08,9.81,3.88,14.91,4.2,7.31.46,14.67.38,22,.54l23.9.5,11.94.26a48.55,48.55,0,0,0,8.69-.44c5.76-.94,10.46-4.17,12-10A33.66,33.66,0,0,0,307,453a105.46,105.46,0,0,0-1.38-12.16,106.71,106.71,0,0,0-7-23.65c-.4-.93-1.76-.13-1.37.8Z" transform="translate(-13.14 -154.63)"/><path class="cls-3" d="M208,408.63A247.2,247.2,0,0,0,189.3,440q-4.08,8.18-7.54,16.63c-1.15,2.79-2.24,5.59-3.28,8.42-.75,2.05-1.58,4.56-.58,6.68s3.79,2.84,6,2c2.68-1,4.11-3.63,5.33-6,.46-.9-.91-1.71-1.37-.8-1.06,2.08-2.29,4.66-4.7,5.4a3.44,3.44,0,0,1-3.24-.47,3.7,3.7,0,0,1-.8-3.48,38,38,0,0,1,2.47-7.15q1.51-3.91,3.17-7.75a247.33,247.33,0,0,1,14.64-28.75q4.68-7.84,9.92-15.35c.59-.84-.78-1.63-1.36-.8Z" transform="translate(-13.14 -154.63)"/><path class="cls-3" d="M184,472c-1.82,6.21-6.4,12.64-4,19.36a8.12,8.12,0,0,0,5.22,5.21,6.41,6.41,0,0,0,6.63-1.41c.71-.73-.4-1.85-1.12-1.12a5.09,5.09,0,0,1-6,.65,7.2,7.2,0,0,1-3.74-5.86c-.69-5.84,2.94-11,4.52-16.41A.79.79,0,0,0,184,472Z" transform="translate(-13.14 -154.63)"/><path class="cls-3" d="M252.79,477.66A111.08,111.08,0,0,1,283,524.08c.82,2.43,2,5.14,2,7.74a3.37,3.37,0,0,1-1.57,3.19,2,2,0,0,1-2.76-.4c-.53-.86-1.9-.07-1.37.8a3.49,3.49,0,0,0,4.48,1.18,4.85,4.85,0,0,0,2.81-4.57c.08-2.63-1-5.32-1.82-7.78s-1.71-4.9-2.69-7.31a113.79,113.79,0,0,0-15.87-27.19,112,112,0,0,0-12.28-13.2c-.75-.69-1.88.43-1.12,1.12Z" transform="translate(-13.14 -154.63)"/><path class="cls-3" d="M276.43,531.88a87.74,87.74,0,0,1,9.32,38.54,88.91,88.91,0,0,1-.44,9.65,44.32,44.32,0,0,1-1.62,9.43c-.86,2.54-3.1,4.79-5.8,3-2.43-1.66-3.56-4.83-4.67-7.41a157,157,0,0,1-7.79-22.92.79.79,0,0,0-1.53.42,161.06,161.06,0,0,0,7.5,22.24c1.22,2.88,2.37,6.11,4.74,8.28,1.87,1.72,4.55,2.33,6.67.66s2.76-4.77,3.21-7.35a89,89,0,0,0-8.23-55.29c-.46-.91-1.82-.11-1.36.8Z" transform="translate(-13.14 -154.63)"/><path class="cls-3" d="M263.09,557.61c.79,1.68,1.91,4.1.44,5.75s-3.12-.15-3.82-1.54a31.39,31.39,0,0,1-1.76-5.44q-.85-3-1.58-6a161.06,161.06,0,0,1-4-25c-.4-4.76-.57-9.53-.55-14.31a.79.79,0,0,0-1.58,0A165.67,165.67,0,0,0,252.77,541q1.32,7.41,3.33,14.67a44.89,44.89,0,0,0,2,6.5c.62,1.41,1.63,2.93,3.21,3.36a3.56,3.56,0,0,0,4.11-2.3c.92-2.17-.06-4.42-1-6.4-.43-.92-1.8-.12-1.36.8Z" transform="translate(-13.14 -154.63)"/><path class="cls-3" d="M242.8,473.92c-8,6.61-13.53,15.55-17.59,25-2.06,4.8-3.79,9.74-5.36,14.72-.8,2.51-1.55,5-2.3,7.55s-1.56,5.3-.5,7.84c.83,2,2.91,3.72,5.16,3.07a3.52,3.52,0,0,0,2.3-4.88c-.48-.9-1.85-.1-1.36.8a1.86,1.86,0,0,1-1,2.4,2.56,2.56,0,0,1-3.13-1.1c-1.55-2.08-.77-4.86-.11-7.11,1.23-4.25,2.52-8.49,4-12.68C225.66,501.32,229,493.2,234,486a53.2,53.2,0,0,1,9.95-11c.78-.65-.34-1.76-1.12-1.12Z" transform="translate(-13.14 -154.63)"/><path class="cls-3" d="M241.19,509.06a131.33,131.33,0,0,1,5.41,27.07,133,133,0,0,1,.54,13.68c0,2.28-.12,4.57-.27,6.85a44.47,44.47,0,0,1-.74,6.8c-.51,2.22-1.68,4.58-4,5.4-2.06.73-4.94-.8-4.26-3.26a.8.8,0,0,0-1.53-.43c-1.06,3.87,3.36,6.44,6.64,5,4.46-1.89,5-7.24,5.29-11.43a133,133,0,0,0-5.58-50.15c-.3-1-1.83-.55-1.53.43Z" transform="translate(-13.14 -154.63)"/><path class="cls-3" d="M237.1,569.21a25,25,0,0,1-2.21,16.18c-1,2-2.86,4.83-5.55,4.23-2.15-.48-3.41-2.9-4.15-4.77a59.9,59.9,0,0,1-2.27-7.79c-.72-2.89-1.33-5.81-1.85-8.74a125.22,125.22,0,0,1-.78-37.29c.13-1-1.46-1-1.58,0a126.24,126.24,0,0,0,1.17,39.56c.62,3.23,1.36,6.45,2.23,9.62a28.22,28.22,0,0,0,2.78,7.59c1.08,1.75,2.7,3.33,4.85,3.47,2.46.16,4.37-1.62,5.64-3.54,3.59-5.45,4.5-12.63,3.25-18.94-.2-1-1.73-.57-1.53.42Z" transform="translate(-13.14 -154.63)"/><path class="cls-3" d="M284.93,447.63c-3.19-.25-6.54-.46-9.53.89a7.87,7.87,0,0,0-4.68,6,5.18,5.18,0,0,0,3.28,5.29,4.09,4.09,0,0,0,5.46-1.94c1.22-2.71-.47-5.92-2-8.15-.57-.83-2,0-1.37.8,1.1,1.62,2.32,3.68,2.15,5.71a2.49,2.49,0,0,1-3.41,2.22,3.64,3.64,0,0,1-2.55-3.83,6.32,6.32,0,0,1,3.81-4.67c2.72-1.25,5.93-.94,8.82-.72,1,.08,1-1.5,0-1.58Z" transform="translate(-13.14 -154.63)"/><path class="cls-3" d="M242.72,444.05c-3.18-.25-6.54-.46-9.53.89a7.82,7.82,0,0,0-4.67,6,5.18,5.18,0,0,0,3.27,5.29,4.09,4.09,0,0,0,5.46-1.94c1.22-2.71-.47-5.92-2-8.15-.57-.83-2,0-1.37.8,1.1,1.62,2.33,3.68,2.16,5.71a2.49,2.49,0,0,1-3.41,2.21,3.62,3.62,0,0,1-2.56-3.82,6.32,6.32,0,0,1,3.81-4.67c2.72-1.26,5.93-.94,8.82-.72,1,.08,1-1.5,0-1.58Z" transform="translate(-13.14 -154.63)"/><rect class="cls-3" x="176.73" y="394.44" width="176.49" height="29.42" rx="12.9" transform="matrix(-1, -0.05, 0.05, -1, 494.52, 677.28)"/><path class="cls-3" d="M319.49,445.8a53.2,53.2,0,0,0,15.36-6.62,44.68,44.68,0,0,0,9-7.32,42.76,42.76,0,0,0,6.48-9c-2-1.8-17.43-15.42-35.16-12.31,0,0-10.78,1.49-21.17,12.23-1.17,1.22,16.42-6.52,21.17,2.42,1,1.92,1.63,4.83,2.67,9.82A101.73,101.73,0,0,1,319.49,445.8Z" transform="translate(-13.14 -154.63)"/><path class="cls-3" d="M315.45,426.54c.54,9.5,2,19.13,5.79,27.92a45,45,0,0,0,4.45,8.08c1.91,2.73,4,5.27,5.42,8.31a18.17,18.17,0,0,1-.26,16.73c-.48.9.88,1.7,1.37.8A19.21,19.21,0,0,0,334,474a31.34,31.34,0,0,0-5.57-10.42,51.65,51.65,0,0,1-8.66-18.48A95.55,95.55,0,0,1,317,426.54c-.06-1-1.65-1-1.59,0Z" transform="translate(-13.14 -154.63)"/><path class="cls-3" d="M324.24,479.78A276.56,276.56,0,0,0,342.45,502c2.34,2.55,4.78,5,7.19,7.48a30.41,30.41,0,0,1,6.89,9.84,22.83,22.83,0,0,1,.06,15.86c-.33,1,1.2,1.38,1.53.42a24.89,24.89,0,0,0,.83-13.91,26.82,26.82,0,0,0-6.12-11.09c-2.31-2.66-4.9-5.07-7.31-7.62q-4.36-4.65-8.48-9.52c-4-4.7-7.76-9.53-11.43-14.47-.6-.81-2,0-1.37.8Z" transform="translate(-13.14 -154.63)"/><path class="cls-3" d="M216,401.23l-19.45,26.84-16-12Z" transform="translate(-13.14 -154.63)"/><path class="cls-2" d="M326.88,552.35c3.36,23,3.68,35.31,3.29,42.36-.08,1.33-.87,14.67-.87,14.67l-1.37,11.87a154.25,154.25,0,0,0-62.34-21.91,68.56,68.56,0,0,0-10.77,11.8,69.3,69.3,0,0,0-9.66,19.18,167.27,167.27,0,0,0,82.76,39.21c9.12.18,36.12-.37,47.13-16.78C389.36,631.4,375,585.61,326.88,552.35Z" transform="translate(-13.14 -154.63)"/><path class="cls-3" d="M374.15,330.52c2.87-6-4.11-15.52-5.45-16-19.45-7.31-58.69-17.08-94.74,4.18-21.24,12.53-32.49,30.6-37.75,40.9-.13.25-.27.5-.42.74-6.17,10.06-11.92,22.06-25.07,27.6-10.54,4.44-20.17,2.14-20.2,2.51-.11,1.45,150.26,11.07,150.48,8.07.07-1-15.3-.85-22.68-11.74-1.62-2.4-2.19-4.57-3.58-8.71-2.63-7.87-5-19.75-3.5-25.42,2.42-9,20.4-11.15,52.82-16.78C366.71,335.39,372.26,334.46,374.15,330.52Z" transform="translate(-13.14 -154.63)"/><path class="cls-3" d="M320.9,507.21a70.66,70.66,0,0,1,27.86,18.35c6.69,7.25,11.56,15.85,15.7,24.76a145.45,145.45,0,0,1,11.25,33.08c2.1,10.66,2.8,21.5,3.16,32.33.18,5.27.3,10.53.52,15.79a103.06,103.06,0,0,1-.28,15.91c-1,8.6-4.29,17.69-12.36,21.94s-17.91,3.65-26.53,2.8a143.8,143.8,0,0,1-34.42-8c-19.76-7.11-38.1-17.88-54.9-30.41-1.75-1.3-3.48-2.63-5.2-4-.77-.61-1.86.47-1.08,1.08,16.46,12.9,34.36,24.12,53.74,32.08a152.93,152.93,0,0,0,34.38,9.8,106.8,106.8,0,0,0,17.68,1.47,44.33,44.33,0,0,0,12.85-1.75,22.94,22.94,0,0,0,8.4-4.63,26.16,26.16,0,0,0,7.2-11.69c3.3-10.32,2.12-21.49,1.8-32.12-.34-11-.61-22-2.12-32.87a132.84,132.84,0,0,0-10.05-35.6c-3.95-8.94-8.16-17.81-14.1-25.63a71.65,71.65,0,0,0-26.66-21.54c-2.1-1-4.25-1.86-6.43-2.66-.93-.34-1.33,1.15-.41,1.49Z" transform="translate(-13.14 -154.63)"/><path class="cls-3" d="M245.92,630.75a69.18,69.18,0,0,1,20.23-30.85c.77-.68-.35-1.8-1.12-1.13a70.76,70.76,0,0,0-20.63,31.56c-.32,1,1.21,1.39,1.52.42Z" transform="translate(-13.14 -154.63)"/><path class="cls-3" d="M265.59,600.13a149.38,149.38,0,0,1,62.48,22.36,147.41,147.41,0,0,1,15.31,11.23c.78.65,1.91-.47,1.12-1.12a150.2,150.2,0,0,0-78.91-34.06c-1-.12-1,1.47,0,1.59Z" transform="translate(-13.14 -154.63)"/><path class="cls-3" d="M328.62,620.85a29.91,29.91,0,0,1-3.83-14.73.79.79,0,0,0-1.58,0,31.54,31.54,0,0,0,4,15.53.79.79,0,0,0,1.37-.8Z" transform="translate(-13.14 -154.63)"/><rect class="cls-3" x="194.24" y="538.8" width="40.33" height="85.53" rx="5.18" transform="translate(38.54 -171.15) rotate(5.02)"/><path class="cls-2" d="M224.4,562l-.1-.07h0l-.13-.07-.19-.05a1.55,1.55,0,0,0-.48,0,3.09,3.09,0,0,0-.61.19,3.82,3.82,0,0,0-.66.36,3.06,3.06,0,0,0-.65.54,3.65,3.65,0,0,0-.52.76,3,3,0,0,0-.29,1,4.66,4.66,0,0,0,0,1.18q.06.6.15,1.2c.06.4.11.79.15,1.18a4.42,4.42,0,0,1,0,1.09,2.74,2.74,0,0,1-.26.94,2,2,0,0,1-.51.63c-.14-.2-.28-.39-.43-.58s-.36-.45-.57-.69-.4-.43-.6-.63l.63-4.34a2.86,2.86,0,0,1,.26-.86.74.74,0,0,1,.38-.4l.42-.16-.4-.2a3.51,3.51,0,0,1-.67-.47,5.21,5.21,0,0,1-.53-.52,6.26,6.26,0,0,1-.45-.57l-.13-.21-.18.18a4.4,4.4,0,0,1-.46.4,4.07,4.07,0,0,1-.48.33,2.38,2.38,0,0,1-.51.24l-.53.17-.3-.16a3.39,3.39,0,0,1-.66-.46c-.19-.17-.36-.34-.53-.52a5.9,5.9,0,0,1-.44-.58l-.14-.2-.17.16c-.15.14-.31.28-.48.41a4,4,0,0,1-.48.32,2,2,0,0,1-.51.24l-.86.27.88.13a.45.45,0,0,1,.28.13c.1.1.2.21.29.32l-.78,5.43a2.63,2.63,0,0,0-1.16.33,2.88,2.88,0,0,0-.92.78,2.59,2.59,0,0,0-.49,1,2.37,2.37,0,0,0,0,1.06,1.73,1.73,0,0,0,1.54,1.38,2.29,2.29,0,0,0,.64,0,1.81,1.81,0,0,0,.57-.12,1.17,1.17,0,0,0,.44-.29.92.92,0,0,0,.22-.48.52.52,0,0,0-.15-.51.7.7,0,0,0-.34-.15h-.3l-.54.06.44.3a.15.15,0,0,1,.07.13.27.27,0,0,1-.08.19.69.69,0,0,1-.33.19,1.48,1.48,0,0,1-.63,0,1.08,1.08,0,0,1-.61-.28,1.2,1.2,0,0,1-.33-.55,1.52,1.52,0,0,1,0-.67,1.32,1.32,0,0,1,.31-.61,1.6,1.6,0,0,1,.67-.41,2.37,2.37,0,0,1,1.09-.05,3.23,3.23,0,0,1,1.14.36,5,5,0,0,1,.86.58,4.15,4.15,0,0,1,.7.75l.14.19.16-.17a9.59,9.59,0,0,1,.75-.68c.22-.17.46-.33.69-.48.12.09.25.21.41.35s.43.43.65.67.44.51.64.77a6,6,0,0,1,.48.75l.09.17.18-.09a14.68,14.68,0,0,0,1.92-1.2c.24-.18.48-.38.73-.59a7.06,7.06,0,0,0,.66-.68,3.86,3.86,0,0,0,.52-.75,2.17,2.17,0,0,0,.28-.81,11.28,11.28,0,0,0,.13-1.53c0-.45,0-.89,0-1.28s0-.78-.05-1.15a6.4,6.4,0,0,1,.06-1.07,1.8,1.8,0,0,1,.21-.63,1.52,1.52,0,0,1,.31-.36,1.18,1.18,0,0,1,.29-.16l.15,0,.72.11Zm-8.13,7.26-.13-.08c-.17-.11-.34-.22-.54-.33a6.27,6.27,0,0,0-.64-.3,4.6,4.6,0,0,0-.52-.19l.61-4.27a4.74,4.74,0,0,1,.26-.91.73.73,0,0,1,.39-.42l.21-.08.67.09a.6.6,0,0,1,.28.13,2.79,2.79,0,0,1,.28.32Z" transform="translate(-13.14 -154.63)"/><path class="cls-4" d="M263,602l-8.31,9.79q-4.63,9.39-9.28,18.78c-3.19-1.29-7.82-3.18-13.4-5.51-15.07-6.32-18.28-8-21.38-10.13A61.74,61.74,0,0,1,198,603.57c.41-1.85.81-3.71,1.22-5.57,4.43,1.8,5.72,2,5.88,1.7.55-1-13.06-6.9-12.73-14,0-.27.18-3.13,2.1-4.06,1.44-.7,3.46-.13,5.18,1.39a9.77,9.77,0,0,1-2.81-5c-.26-1.27-.62-3,.41-4.54a5.44,5.44,0,0,1,5.37-1.82l6.36,3c-4.29-3.86-4.75-8.78-3.07-10.42,1.47-1.43,5.26-1,8.69,1.43l19.13,15.12a15.79,15.79,0,0,0,0-15.09,52.28,52.28,0,0,1,10.17,9.79c5.19,6.59,6.08,11.12,12,18.68A68.13,68.13,0,0,0,263,602Z" transform="translate(-13.14 -154.63)"/><path class="cls-3" d="M245.61,629.78q-10.12-4-20.1-8.39a80.65,80.65,0,0,1-8.82-4,98.18,98.18,0,0,1-8.91-6.11,77.77,77.77,0,0,1-7.64-6,6.43,6.43,0,0,1-2-3.33c-.41-2.07.91-3.84,3.1-3a28,28,0,0,1,3.05,1.64c1.29.69,2.59,1.35,3.89,2,3.41,1.71,6.85,3.35,10.3,5,.92.43,1.73-.93.8-1.37-3.39-1.6-6.78-3.22-10.14-4.9-2.25-1.12-4.42-2.41-6.67-3.53a4.35,4.35,0,0,0-4.15-.24,4.16,4.16,0,0,0-1.82,3.28c-.25,3.07,2.06,5.3,4.24,7a163.93,163.93,0,0,0,13.35,9.8,45.34,45.34,0,0,0,6.39,3.29q12.24,5.4,24.66,10.37c.95.38,1.36-1.15.43-1.52Z" transform="translate(-13.14 -154.63)"/><path class="cls-3" d="M221.07,607.07A86.84,86.84,0,0,1,197.39,592c-1.61-1.44-3.44-3-4.09-5.16-.52-1.73,0-4.53,2.25-4.62a6,6,0,0,1,3.14,1.19c1.15.73,2.28,1.5,3.41,2.25l6.62,4.38,14.89,9.85c.85.57,1.65-.81.8-1.37L209.1,588.36l-7.44-4.93c-1.89-1.25-4.15-3.14-6.59-2.79a4.25,4.25,0,0,0-3.42,3.62,7.06,7.06,0,0,0,1.45,5.54,30.34,30.34,0,0,0,5.17,5q3,2.53,6.24,4.82a86.85,86.85,0,0,0,15.76,8.8c.92.4,1.73-1,.8-1.37Z" transform="translate(-13.14 -154.63)"/><path class="cls-3" d="M223.93,598.65l-12.75-9.19-6.37-4.6a34.48,34.48,0,0,1-5.74-4.53c-1.48-1.67-2.55-4.42-1.18-6.48s4-1.82,5.9-1a34.24,34.24,0,0,1,6.07,4.07l6.39,4.68,14.37,10.52c.82.6,1.61-.77.8-1.37L216.65,580l-7.18-5.26c-2.08-1.52-4.24-3.36-6.84-3.87-4.3-.84-7.72,2.49-6.74,6.81a10.12,10.12,0,0,0,3.9,5.5c2.19,1.75,4.54,3.32,6.81,5L223.13,600c.83.6,1.62-.78.8-1.37Z" transform="translate(-13.14 -154.63)"/><path class="cls-3" d="M228.31,588.59a100.85,100.85,0,0,1-10.65-7.71,74.94,74.94,0,0,1-9.45-9c-1.17-1.41-2.41-3.29-2.4-5.19a2.87,2.87,0,0,1,3.7-2.8,12.24,12.24,0,0,1,4.88,2.64c2,1.53,3.9,3.08,5.85,4.62l12.89,10.19c.79.62,1.92-.49,1.12-1.12L220.78,569.6c-2.07-1.64-4.12-3.34-6.24-4.91a11.34,11.34,0,0,0-5.31-2.41,4.33,4.33,0,0,0-4.25,1.86,5.56,5.56,0,0,0-.2,5.17,15.91,15.91,0,0,0,3.54,5.05q2.66,2.75,5.5,5.3A103.16,103.16,0,0,0,227.51,590c.87.54,1.66-.83.8-1.37Z" transform="translate(-13.14 -154.63)"/><path class="cls-3" d="M235,580.18a15.7,15.7,0,0,0-.63-14.14.79.79,0,0,0-1.36.8,14.06,14.06,0,0,1,.62,12.54c-.42.92,1,1.73,1.37.8Z" transform="translate(-13.14 -154.63)"/><path class="cls-3" d="M233.29,566.41A53.53,53.53,0,0,1,248.36,584a73.66,73.66,0,0,0,14.06,18.52c.75.69,1.87-.43,1.13-1.12a67.69,67.69,0,0,1-7.79-8.62,88.49,88.49,0,0,1-6.52-10.48A53.78,53.78,0,0,0,234.09,565c-.82-.61-1.61.76-.8,1.37Z" transform="translate(-13.14 -154.63)"/><path class="cls-3" d="M246.16,630.75a69.09,69.09,0,0,1,20.23-30.85c.77-.68-.36-1.8-1.12-1.13a70.7,70.7,0,0,0-20.64,31.56c-.31,1,1.22,1.39,1.53.42Z" transform="translate(-13.14 -154.63)"/><path class="cls-3" d="M191.76,624.06l-.45,49.62a.8.8,0,0,0,.79.79q31.29,1.24,62.61,1.53,32.44.3,64.89-.46,17.65-.4,35.3-1.12c1,0,1-1.63,0-1.58q-31.84,1.27-63.71,1.58-32.2.29-64.39-.45-17.36-.39-34.7-1.08l.79.79.45-49.62a.79.79,0,0,0-1.58,0Z" transform="translate(-13.14 -154.63)"/><path class="cls-3" d="M94.14,609.06a162.19,162.19,0,0,1,53.39,12.09c4.82,2,9.53,4.24,14.13,6.69.9.48,1.7-.89.8-1.37A163.58,163.58,0,0,0,109.66,609c-5.15-.77-10.33-1.28-15.52-1.56-1-.05-1,1.53,0,1.59Z" transform="translate(-13.14 -154.63)"/><path class="cls-3" d="M176.47,532.81a193,193,0,0,0-12.8,36.45c-2.37,10-4,20.23-6.3,30.28q-2.51,10.79-5.52,21.44a.8.8,0,0,0,1.53.43q5.18-18.35,8.84-37.06A242.9,242.9,0,0,1,169,556.07a199.31,199.31,0,0,1,8.83-22.46c.42-.92-.94-1.73-1.37-.8Z" transform="translate(-13.14 -154.63)"/><path class="cls-3" d="M92.73,608.53A62.09,62.09,0,0,1,87,643.82c-.45.91.92,1.72,1.36.8a63.49,63.49,0,0,0,6-36.09c-.13-1-1.72-1-1.59,0Z" transform="translate(-13.14 -154.63)"/><path class="cls-3" d="M87.46,645a327.86,327.86,0,0,1,54.27,20.55c6,2.86,12.15,6.12,18.69,7.65a23,23,0,0,0,16.81-2.27c7.33-4.11,12.24-11.5,15.77-18.92.43-.91-.93-1.72-1.37-.8-3.1,6.51-7.19,13-13.24,17.13a21.63,21.63,0,0,1-17,3.47c-6.39-1.37-12.36-4.52-18.21-7.3-8-3.82-16.08-7.5-24.34-10.75a304.16,304.16,0,0,0-31-10.29.79.79,0,0,0-.42,1.53Z" transform="translate(-13.14 -154.63)"/><path class="cls-3" d="M43.75,597.41a5.49,5.49,0,0,1-4.66-3.24c-.73-2,.52-3.88,2.15-5,2-1.35,4.11-1,6.32-.47a24.21,24.21,0,0,1,6.67,2.7,1.05,1.05,0,0,0,1.06-1.82A24.16,24.16,0,0,0,49,586.93c-2.3-.62-4.82-1.3-7.15-.42-3.77,1.41-6.59,5.7-4.21,9.51a7.94,7.94,0,0,0,6.09,3.5c1.35.14,1.34-2,0-2.11Z" transform="translate(-13.14 -154.63)"/><path class="cls-3" d="M44.14,598.63c-3.16-2-7.75-2.14-10.38.88a7.46,7.46,0,0,0,.43,9.9,13.27,13.27,0,0,0,5.47,2.93c2.38.76,4.83,1.38,7.26,2,3.91,1,9.33,2.61,12.36-1.13a5.09,5.09,0,0,0,.3-5.81c-1.09-2-3.1-3.22-4.8-4.61-1.05-.85-2.55.64-1.49,1.5,1.45,1.18,3.29,2.28,4.3,3.9a3.08,3.08,0,0,1-1.32,4.74c-2.23,1.09-4.91.29-7.18-.24s-4.59-1.13-6.86-1.77c-3.6-1-8.35-2.47-8-7.1s5.55-5.47,8.88-3.34c1.15.73,2.21-1.09,1.06-1.83Z" transform="translate(-13.14 -154.63)"/><path class="cls-3" d="M33.16,607.79a6,6,0,0,0-3.75,6.76c.57,3.37,3.45,5.76,6.41,7.09,3.3,1.49,7.16,2.92,10.8,3.07A9.91,9.91,0,0,0,52.9,623c2.71-2,2.83-5.52,1.36-8.36-.62-1.21-2.44-.14-1.82,1.07,1.31,2.54.62,5.22-2.1,6.33-2.46,1-5.09.6-7.58-.12-3.29-1-7.18-2-9.61-4.55-1.9-2-2.76-6.3.58-7.49,1.27-.46.72-2.5-.57-2Z" transform="translate(-13.14 -154.63)"/><path class="cls-3" d="M33,617.33a36.37,36.37,0,0,0-11.36-1.4c-2.49.13-6.28.3-7.8,2.61-2.22,3.35,1.59,6.59,4.54,7.42a27,27,0,0,0,3.08.48c1.25.2,2.49.45,3.72.72,4.35,1,8.64,2.22,12.9,3.5a1.06,1.06,0,0,0,.56-2,118.82,118.82,0,0,0-17.1-4.29c-2.19-.31-6.05-.75-6.19-3.66-.11-2.41,4.33-2.51,6-2.61a34.17,34.17,0,0,1,11.06,1.31,1.06,1.06,0,0,0,.56-2Z" transform="translate(-13.14 -154.63)"/><path class="cls-3" d="M37.8,630.55c7.33,3.55,15,7,23,8.69a35.16,35.16,0,0,0,6.78.87c2.06,0,4.13-.16,6.2-.16a83,83,0,0,1,15.33,1.4c1.33.25,1.9-1.78.56-2a96.31,96.31,0,0,0-21-1.33c-5.14.17-10.3-1.35-15.11-3a136.63,136.63,0,0,1-14.71-6.25c-1.21-.59-2.29,1.24-1.06,1.83Z" transform="translate(-13.14 -154.63)"/><path class="cls-3" d="M67.94,591.36a37.71,37.71,0,0,1,12.59,10.5,29.94,29.94,0,0,0,4.52,5.22,21.91,21.91,0,0,0,8.15,4.4,1.06,1.06,0,0,0,.56-2,19.56,19.56,0,0,1-8.06-4.62,44.91,44.91,0,0,1-4.06-5A40.32,40.32,0,0,0,69,589.54c-1.19-.66-2.25,1.17-1.06,1.82Z" transform="translate(-13.14 -154.63)"/><path class="cls-3" d="M39.89,635.36l4.46,1.31a1.45,1.45,0,0,0,1.79-1l3.63-12.4a1.85,1.85,0,0,1-2.3.37l-4-.41a1.16,1.16,0,0,0-1-.71,1.3,1.3,0,0,0-.79,1.69l-2.74,9.35A1.43,1.43,0,0,0,39.89,635.36Z" transform="translate(-13.14 -154.63)"/><path class="cls-3" d="M69.29,589.72c-3.14-2-6.76-4-10.55-2.58a27.73,27.73,0,0,0-5.21,2.91l-5.71,3.59c-2.68,1.68-6.55,3.75-4.87,7.57,1.48,3.36,5.91,4,9.15,3.7,4.68-.49,8.73-2.94,12.63-5.38,1.14-.72.09-2.55-1.07-1.83-3.55,2.23-7.29,4.62-11.56,5.09a9.31,9.31,0,0,1-5.85-.94,3.09,3.09,0,0,1-1.58-2.28,2.73,2.73,0,0,1,1.41-2.32c1.61-1.2,3.43-2.18,5.13-3.25,1.94-1.22,3.86-2.47,5.82-3.65,1.75-1.06,3.57-1.89,5.66-1.46a16.79,16.79,0,0,1,5.54,2.66c1.15.73,2.21-1.1,1.06-1.83Z" transform="translate(-13.14 -154.63)"/><path class="cls-3" d="M62.11,599.66a13.62,13.62,0,0,0,2.08,9.07,1.08,1.08,0,0,0,1.45.38,1.05,1.05,0,0,0,.37-1.44,11.85,11.85,0,0,1-1.79-8,1.07,1.07,0,0,0-1.06-1.06,1.08,1.08,0,0,0-1,1.06Z" transform="translate(-13.14 -154.63)"/><path class="cls-3" d="M65.23,618.55l4.24,4.81a1.06,1.06,0,0,0,1.5,0,1.08,1.08,0,0,0,0-1.49l-4.25-4.81a1.06,1.06,0,0,0-1.49,0,1.08,1.08,0,0,0,0,1.49Z" transform="translate(-13.14 -154.63)"/><path class="cls-3" d="M173.6,194.79c31.89-14.27,64.25-28.72,98.85-35,29.81-5.42,61.81-4.11,89.74,8.47a107.42,107.42,0,0,1,36,26.39c10.51,11.69,19,25,28.94,37.16a127,127,0,0,0,34.94,30.41,144.38,144.38,0,0,0,36.41,14.57c24.52,6.3,50.43,8.72,75.58,5.59,2.68-.34,5.36-.73,8-1.17,1.34-.22.77-2.26-.56-2-25.55,4.26-51.55,2.56-76.76-3.05a150.23,150.23,0,0,1-36.12-12.72,121.26,121.26,0,0,1-36.3-28.64c-10.37-12-18.92-25.37-29.09-37.5C393.52,185.69,382.14,176,368.67,169c-26.06-13.44-56.69-16.66-85.52-13-34.6,4.35-67.17,17.67-98.83,31.69-3.93,1.74-7.86,3.5-11.79,5.25-1.24.56-.16,2.38,1.07,1.83Z" transform="translate(-13.14 -154.63)"/><path class="cls-3" d="M128.14,339.26C160,325,192.39,310.54,227,304.26c29.81-5.41,61.81-4.11,89.75,8.47a107.48,107.48,0,0,1,36,26.39c10.51,11.69,19,25,28.94,37.16a127,127,0,0,0,34.94,30.41A144.38,144.38,0,0,0,453,421.26c24.52,6.3,50.43,8.72,75.58,5.59,2.68-.33,5.36-.72,8-1.17,1.34-.22.77-2.26-.56-2-25.55,4.26-51.55,2.56-76.76-3.05a150.23,150.23,0,0,1-36.12-12.72,121.26,121.26,0,0,1-36.3-28.64c-10.37-12-18.92-25.37-29.09-37.5-9.71-11.56-21.09-21.28-34.56-28.22-26.06-13.43-56.69-16.65-85.51-13-34.6,4.36-67.18,17.68-98.84,31.69q-5.9,2.61-11.79,5.26c-1.24.55-.16,2.37,1.07,1.82Z" transform="translate(-13.14 -154.63)"/><path class="cls-3" d="M537.34,424.94q8.85-28.12,17.71-56.26l17.77-56.5q5-15.85,10-31.71c.41-1.3-1.63-1.86-2-.56l-17.7,56.26q-8.89,28.26-17.78,56.5-5,15.85-10,31.71c-.4,1.3,1.63,1.86,2,.56Z" transform="translate(-13.14 -154.63)"/><text class="cls-5" transform="matrix(1, -0.09, 0.09, 1, 194.82, 110.6)">B</text><text class="cls-5" transform="translate(238.21 106.8) rotate(1.27)">y</text><text class="cls-5" transform="translate(276.39 107.55) rotate(9.39)">e</text><text class="cls-5" transform="matrix(0.94, 0.34, -0.34, 0.94, 310.53, 112.99)">-</text><text class="cls-5" transform="matrix(0.82, 0.57, -0.57, 0.82, 340.66, 122.41)">B</text><text class="cls-5" transform="translate(374.7 148.08) rotate(45.03)">y</text><text class="cls-5" transform="translate(405.35 178.93) rotate(36.37)">e</text><text class="cls-5" transform="translate(438.4 202.41) rotate(27.03)"> </text><text class="cls-5" transform="translate(466.92 216.34) rotate(21.69)">:</text><text class="cls-5" transform="matrix(0.95, 0.3, -0.3, 0.95, 478.59, 221.13)">(</text><path class="cls-3" d="M222.58,436.17a26.42,26.42,0,0,0,15.56-3.81c.86-.54.07-1.91-.8-1.37a24.94,24.94,0,0,1-14.76,3.6c-1-.07-1,1.51,0,1.58Z" transform="translate(-13.14 -154.63)"/><path class="cls-3" d="M273.94,434.5a24.39,24.39,0,0,0,13.2,7.73c1,.21,1.42-1.31.42-1.52a23,23,0,0,1-12.5-7.33c-.67-.77-1.79.36-1.12,1.12Z" transform="translate(-13.14 -154.63)"/><path class="cls-3" d="M244.13,500.61a4.6,4.6,0,0,1,2-5.94,4.53,4.53,0,0,1,6,1.85,4.68,4.68,0,0,1,.26,3.82c-.34,1,1.19,1.37,1.53.42a6.19,6.19,0,0,0-3.43-7.72,6.1,6.1,0,0,0-7.85,3.25,6.26,6.26,0,0,0,.13,5.12c.43.92,1.8.12,1.36-.8Z" transform="translate(-13.14 -154.63)"/><path class="cls-2" d="M283.13,459.64a8.32,8.32,0,0,0,.82,6.65c.63.93,2.22,2.75,3.54,2.35s1.91-3,1.41-4.78C288.3,461.66,286,460,283.13,459.64Z" transform="translate(-13.14 -154.63)"/><path class="cls-3" d="M282.11,459.36a10.48,10.48,0,0,0-.18,4.82,8.11,8.11,0,0,0,3.33,4.94,3,3,0,0,0,2.68.47,3.4,3.4,0,0,0,1.85-2.15,6.35,6.35,0,0,0-.57-5.44,8.26,8.26,0,0,0-5.81-3.37,1.09,1.09,0,0,0-1.3.73,1.07,1.07,0,0,0,.74,1.3,6.91,6.91,0,0,1,4.14,1.91,4,4,0,0,1,1,3.52c0,.16-.06.31-.1.46l-.09.27s-.1.26,0,.11a3.24,3.24,0,0,1-.19.37s-.19.24-.09.13-.12.11-.14.13l0,0c.1-.07.1-.07,0,0s-.13.07,0,0c0,0-.28.07-.13.05s-.16,0-.16,0c.19,0-.15,0-.22-.07.15.05-.07,0-.1-.05l-.3-.18a4.72,4.72,0,0,1-.71-.6l-.36-.39c-.05-.06-.33-.41-.24-.29a5.84,5.84,0,0,1-1.05-2.17,7.55,7.55,0,0,1-.15-2.43l0-.31c0-.24,0,.13,0-.11s0-.29.07-.43.1-.45.16-.67A1.06,1.06,0,0,0,282.11,459.36Z" transform="translate(-13.14 -154.63)"/></svg>