<svg id="Livello_1" data-name="Livello 1" xmlns="http://www.w3.org/2000/svg" viewBox="0 0 328.24 328.24"><defs><style>.cls-1{fill:#1B3F91;}.cls-2{fill:#BDBF09;}</style></defs><rect class="cls-1" width="328.24" height="328.24" rx="46.74"/><path class="cls-2" d="M398.84,239.68c-.56-.34-1.18-.68-1.85-1l-.13-.07-.13,0a18.72,18.72,0,0,0-2.21-.71,12.72,12.72,0,0,0-3.31-.41,26.12,26.12,0,0,0-7.69,1.49,46.11,46.11,0,0,0-9.53,4.47,70.56,70.56,0,0,0-9.89,7.32A56.43,56.43,0,0,0,355,261a53.68,53.68,0,0,0-6.65,13.44A51.85,51.85,0,0,0,345.75,291a80.75,80.75,0,0,0,2.4,19.12c1.54,6.3,3.27,12.72,5.16,19.08s3.63,12.62,5.24,18.81a84.49,84.49,0,0,1,2.72,17.64,44.84,44.84,0,0,1-2.14,15.9A32.17,32.17,0,0,1,352.37,393c-2.68-2.83-5.45-5.65-8.28-8.4-3.2-3.1-6.87-6.44-10.9-9.93-3.62-3.13-7.35-6.06-11.1-8.72V294.16a55,55,0,0,1,2.21-14.58c1.14-3.56,2.87-6,5.3-7.32l6.35-3.57-6.86-2.43a53.28,53.28,0,0,1-12.09-6c-3.7-2.5-7-4.93-9.77-7.23a88.52,88.52,0,0,1-8.55-8.28l-2.69-3L293.58,245a81.28,81.28,0,0,1-6.57,7.71,77.86,77.86,0,0,1-7,6.42,39.27,39.27,0,0,1-7.79,5.06l-8.18,4-5.15-1.86a54.65,54.65,0,0,1-12-6c-3.7-2.5-7-4.93-9.76-7.23a88.65,88.65,0,0,1-8.56-8.28L226,241.83l-2.43,3.09a102.7,102.7,0,0,1-6.76,7.77,77.61,77.61,0,0,1-7,6.41,38.68,38.68,0,0,1-7.8,5.07l-13,6.28h14.43a8.33,8.33,0,0,1,4.93,1.48,46.12,46.12,0,0,1,5.42,4.62v89.84a45.67,45.67,0,0,0-18,7.95,47.67,47.67,0,0,0-13.14,14.84,45.2,45.2,0,0,0-5.6,17.76,38.72,38.72,0,0,0,2,17.27,29.46,29.46,0,0,0,10.09,13.44c4.77,3.59,10.86,5.41,18.09,5.41a50.92,50.92,0,0,0,10.56-1,30.62,30.62,0,0,0,8.83-3.27,19.26,19.26,0,0,0,6.34-5.74,14.32,14.32,0,0,0,2.51-8.25c0-3.91-1.22-6.62-3.63-8a11.21,11.21,0,0,0-5.76-1.65,11.68,11.68,0,0,0-2.28.22c-.55.1-1,.22-1.49.33l-1.2.3-8.58,2.19,7.91,4A2.36,2.36,0,0,1,222,424a4.32,4.32,0,0,1-.84,3.31,12.32,12.32,0,0,1-4.93,3.82c-2.45,1.2-5.88,1.81-10.2,1.81a17.22,17.22,0,0,1-10.52-3.15,19.75,19.75,0,0,1-6.64-8.1,23.44,23.44,0,0,1-1.95-10.75,20.48,20.48,0,0,1,3.47-10.57,25.07,25.07,0,0,1,9.93-8.3c4.51-2.27,10.43-3.43,17.59-3.43a54.51,54.51,0,0,1,19.31,3.28,88.49,88.49,0,0,1,15.3,7.36,72.23,72.23,0,0,1,13,10.48l2.7,2.77,2.31-3.1a125.63,125.63,0,0,1,10.78-12.65c3.25-3.35,6.65-6.54,10.12-9.52,2.05,1.19,4.55,2.8,7.45,4.81,3.91,2.7,8,5.83,12.15,9.31s8.24,7.22,12.11,11.08a93.11,93.11,0,0,1,9.45,10.88l1.93,2.68,2.68-1.94a234.05,234.05,0,0,0,28.3-23.94c3.5-3.49,7-7.3,10.43-11.32a111.69,111.69,0,0,0,9.25-12.55,74.75,74.75,0,0,0,6.68-13.28,39,39,0,0,0,2.66-13.86,180.6,180.6,0,0,0-1.59-25c-1-7.39-2.2-14.43-3.44-20.93s-2.35-12.57-3.4-18.51a100.77,100.77,0,0,1-1.51-17.46,26,26,0,0,1,1.86-10.66,23.41,23.41,0,0,1,4.25-6.63,14.28,14.28,0,0,1,4.28-3.2,14,14,0,0,1,2.31-.84h11.84Zm-115,136.54-2.26-1.11c-2.86-1.37-6.07-2.71-9.54-4s-7.16-2.42-11-3.43a90.58,90.58,0,0,0-9-1.89V295.35a67.43,67.43,0,0,1,2.07-15.45c1-3.7,2.76-6.21,5.31-7.65l3.17-1.8h11.08a8.26,8.26,0,0,1,4.87,1.42,43.72,43.72,0,0,1,5.33,4.53Z" transform="translate(-128.88 -176.12)"/></svg>