<svg id="Livello_1" data-name="Livello 1" xmlns="http://www.w3.org/2000/svg" viewBox="0 0 272.91 241.77"><defs><style>.cls-1{fill:#BDBF09;}</style></defs><path class="cls-1" d="M422.08,250.07c-.67-.38-1.4-.8-2.2-1.19h0c-.85-.32-1.71-.6-2.59-.84a15.81,15.81,0,0,0-3.88-.49,30.75,30.75,0,0,0-9,1.79,53.75,53.75,0,0,0-11.21,5.24,79,79,0,0,0-11.63,8.62,65.29,65.29,0,0,0-10.76,12.12,63.76,63.76,0,0,0-7.83,15.82,60.93,60.93,0,0,0-3,19.46,95.8,95.8,0,0,0,2.8,22.49c1.82,7.41,3.84,15,6.08,22.43s4.26,14.84,6.14,22.11a98.32,98.32,0,0,1,3.22,20.74,53.81,53.81,0,0,1-2.52,18.69,38.33,38.33,0,0,1-8,13.38c-3.14-3.5-6.39-6.67-9.71-9.89s-8.1-7.58-12.82-11.66-8.66-7-13.06-10.27V314.13A63.08,63.08,0,0,1,334.76,297a13.94,13.94,0,0,1,6.21-8.59l7.44-4.2-8.06-2.86a61.6,61.6,0,0,1-14.19-7,135.94,135.94,0,0,1-11.49-8.52,102.49,102.49,0,0,1-10.06-9.71l-3.17-3.49-2.83,3.81a93.7,93.7,0,0,1-7.72,9,88.8,88.8,0,0,1-8.21,7.55,47.19,47.19,0,0,1-9.15,6l-9.64,4.65-6-2.21a63.65,63.65,0,0,1-14-7c-4-2.65-7.78-5.49-11.45-8.52a103.66,103.66,0,0,1-10.06-9.71l-3.11-3.5-2.83,3.5c-2.48,3.11-5.13,6.18-8,9.11a94.5,94.5,0,0,1-8.21,7.55,46,46,0,0,1-9.19,6l-15.57,7.4h17a9.7,9.7,0,0,1,5.8,1.75,53.86,53.86,0,0,1,6.36,5.42V399a53.55,53.55,0,0,0-21.14,9.36,55.91,55.91,0,0,0-15.43,17.46,53,53,0,0,0-6.6,21,45.78,45.78,0,0,0,2.41,20.33A33.55,33.55,0,0,0,197,489.29a60.71,60.71,0,0,0,12.4-1.22,34.94,34.94,0,0,0,10.48-3.84,22.48,22.48,0,0,0,7.47-6.75,16.78,16.78,0,0,0,2.94-9.71,10.12,10.12,0,0,0-4.26-9.43,13.09,13.09,0,0,0-6.78-1.95,12.87,12.87,0,0,0-2.69.28l-1.74.38-1.4.35L203.32,460l9.33,4.64a2.68,2.68,0,0,1,1.64,2.2,5,5,0,0,1-1,3.88,14.53,14.53,0,0,1-5.79,4.5,27.8,27.8,0,0,1-12,2.13,20.24,20.24,0,0,1-12.37-3.7,23.12,23.12,0,0,1-7.82-9.53A28,28,0,0,1,173,451.46,24,24,0,0,1,177.13,439a29.77,29.77,0,0,1,11.7-9.75,46.23,46.23,0,0,1,20.64-4,63.85,63.85,0,0,1,22.7,3.84,103.77,103.77,0,0,1,18,8.66,84.47,84.47,0,0,1,15.3,12.33l3.17,3.25,2.73-3.67a157,157,0,0,1,12.36-14.88c3.81-3.91,7.83-7.68,11.91-11.17,2.41,1.39,5.35,3.28,8.74,5.65,4.61,3.18,9.43,7,14.28,10.94a188.63,188.63,0,0,1,14.25,13,111,111,0,0,1,11.11,12.82l2.27,3.15,3.14-2.27a280.38,280.38,0,0,0,33.29-28.16c4.12-4.12,8.24-8.59,12.26-13.3a127.58,127.58,0,0,0,10.86-14.78,85.81,85.81,0,0,0,7.86-15.61,45.57,45.57,0,0,0,3.14-16.28A211.64,211.64,0,0,0,415,349.37c-1.23-8.7-2.59-17-4.06-24.45s-2.75-14.77-4-21.76a117.44,117.44,0,0,1-1.78-20.5,30.4,30.4,0,0,1,2.2-12.54,27.22,27.22,0,0,1,5-7.79,16.33,16.33,0,0,1,5-3.77,13.8,13.8,0,0,1,2.72-1h14ZM286.87,410.74l-2.65-1.29c-3.5-1.61-7-3.18-11.22-4.69s-8.41-2.86-12.95-4.05q-5.19-1.35-10.48-2.2v-83A79.52,79.52,0,0,1,252,297.36a13.93,13.93,0,0,1,6.25-9l3.74-2.14h13a9.71,9.71,0,0,1,5.72,1.68,50.35,50.35,0,0,1,6.26,5.31Z" transform="translate(-161.18 -247.55)"/></svg>