<?xml version="1.0" encoding="UTF-8"?>
<svg id="Livello_1" data-name="Livello 1" xmlns="http://www.w3.org/2000/svg" viewBox="0 0 783.87 587.9">
  <defs>
    <style>
      .cls-1 {
        fill: #fff;
      }

      .cls-1, .cls-2 {
        stroke-width: 3px;
      }

      .cls-1, .cls-2, .cls-3 {
        stroke: #1d1d1b;
        stroke-miterlimit: 10;
      }

      .cls-4 {
        fill: none;
      }

      .cls-4, .cls-5, .cls-6, .cls-7 {
        stroke-width: 0px;
      }

      .cls-2, .cls-5 {
        fill: #c6c6c6;
      }

      .cls-6, .cls-3 {
        fill: #bdbf0e;
      }

      .cls-3 {
        stroke-width: 2px;
      }

      .cls-7 {
        fill: #1d1d1b;
      }
    </style>
  </defs>
  <path class="cls-2" d="m121.46,266.56c26.76-79.49,179.07-174.22,320.76-133.85,133.57,38.05,242.93,191.95,200.7,289.1-33.26,76.53-158.81,113.77-245.32,87.7-79.79-24.05-76.16-86.82-188.74-128-32.05-11.72-74.2-21.93-88.58-56.89-10.1-24.56-1.69-49.53,1.19-58.07Z"/>
  <g>
    <g>
      <path class="cls-1" d="m240.44,235.46c-24.63,0-44.59,25.77-44.59,57.55s19.96,57.55,44.59,57.55,44.59-25.77,44.59-57.55-19.96-57.55-44.59-57.55Zm0,105.16c-20.37,0-36.89-21.32-36.89-47.61s16.52-47.61,36.89-47.61,36.89,21.32,36.89,47.61-16.52,47.61-36.89,47.61Z"/>
      <g>
        <rect class="cls-2" x="202.17" y="268.23" width="16.21" height="46.69" transform="translate(-81.3 501.86) rotate(-90)"/>
        <rect class="cls-1" x="176.69" y="286.65" width="16.44" height="9.86" rx="3.78" ry="3.78" transform="translate(-106.67 476.48) rotate(-90)"/>
      </g>
      <g>
        <rect class="cls-2" x="213.52" y="216.31" width="16.21" height="46.69" transform="translate(-104.76 234.49) rotate(-46.33)"/>
        <rect class="cls-1" x="195.06" y="217.21" width="16.44" height="9.86" rx="3.78" ry="3.78" transform="translate(-97.76 215.79) rotate(-46.33)"/>
      </g>
      <g>
        <rect class="cls-2" x="209.76" y="317.73" width="16.21" height="46.69" transform="translate(314.15 -52.02) rotate(46.33)"/>
        <rect class="cls-1" x="191.29" y="353.67" width="16.44" height="9.86" rx="3.78" ry="3.78" transform="translate(321.14 -33.32) rotate(46.33)"/>
      </g>
    </g>
    <rect class="cls-6" x="295.93" y="76.22" width="226.25" height="412.33"/>
    <g>
      <path class="cls-5" d="m448.13,465.23c.1-6.5,2.01-9.2,3.8-10.46,2.67-1.86,5.97-1.14,8.07-3.84,1.16-1.49,1.37-3.26,1.38-4.47.21-.31.49-.8.61-1.43.87-4.41-7-8.82-12.25-13.26-4.1-3.47-9.14-9.09-13.09-18.49,9.79-6.92,19.58-13.84,29.38-20.76,7.59-13.15,22.39-20.07,36.47-17.3,17.07,3.36,27.77,19.9,27.18,32.57-.62,13.4-13.65,17.34-15.08,32.86-.95,10.3,3.81,19.11,7.57,24.57h-74.04Z"/>
      <g>
        <path class="cls-7" d="m461.04,439.88c-9.91-7.12-18-16.56-23.59-27.4-.74-1.43-2.9-.17-2.16,1.26,5.79,11.23,14.22,20.93,24.48,28.3,1.31.94,2.56-1.23,1.26-2.16h0Z"/>
        <path class="cls-7" d="m437.55,414.17c8.98-7.84,18.74-14.72,29.12-20.56,1.4-.79.14-2.95-1.26-2.16-10.57,5.95-20.49,12.98-29.63,20.95-1.21,1.06.56,2.82,1.77,1.77h0Z"/>
        <path class="cls-7" d="m464.42,392.5c6.05,9.94,16.26,17.09,27.7,19.29l-.55-2.09c-4.04,4.56-4.73,11.47-1.54,16.7.84,1.37,3,.12,2.16-1.26-2.58-4.23-2.16-9.93,1.15-13.67.57-.65.43-1.9-.55-2.09-10.82-2.08-20.47-8.72-26.21-18.15-.84-1.37-3-.12-2.16,1.26h0Z"/>
        <path class="cls-7" d="m461.92,442.56c6.09-9.5,17.16-15.27,28.43-14.92,1.61.05,1.61-2.45,0-2.5-12.16-.38-24.03,5.94-30.59,16.16-.87,1.36,1.29,2.61,2.16,1.26h0Z"/>
        <path class="cls-7" d="m465.02,393.19c5.98-8.09,14.75-14.23,24.64-16.37,9.62-2.08,20.23.08,28.01,6.19,7.67,6.03,11.8,15.85,10.69,25.55-.58,5.08-2.82,9.44-5.8,13.51s-6.24,7.79-8,12.5c-2.06,5.51-1.06,11.15.31,16.67,1.3,5.2,3.28,10.12,6.22,14.62.88,1.34,3.04.09,2.16-1.26-2.72-4.17-4.66-8.71-5.85-13.54-1.29-5.21-2.39-10.4-.5-15.64,1.81-4.99,5.63-8.94,8.63-13.21s4.82-8.74,5.35-13.83c1.05-9.98-3.15-20.25-10.86-26.66-7.8-6.49-18.35-9.22-28.35-7.79-11.62,1.66-21.91,8.67-28.82,18-.96,1.29,1.21,2.54,2.16,1.26h0Z"/>
        <path class="cls-7" d="m458.79,441.45c1.15,1.81,2.99,4.61,2,6.87-.8,1.83-3.32,2.49-5,3.15-2.27.89-4.58,1.88-6.23,3.75-2.06,2.34-2.71,5.45-2.38,8.49.17,1.58,2.67,1.6,2.5,0-.32-3,.37-6.03,2.91-7.89,2.01-1.47,4.49-2.07,6.72-3.11,1.93-.89,3.68-2.3,4.11-4.49.56-2.85-1-5.71-2.47-8.03-.86-1.35-3.02-.1-2.16,1.26h0Z"/>
        <path class="cls-7" d="m448.86,413.25c4.49-3.95,9.36-7.45,14.53-10.46,1.39-.81.13-2.97-1.26-2.16-5.35,3.12-10.39,6.76-15.04,10.85-1.21,1.06.56,2.83,1.77,1.77h0Z"/>
        <path class="cls-7" d="m458.57,414.78c3.28-2.75,6.91-5.05,10.78-6.87.61-.29.77-1.16.45-1.71-.37-.62-1.1-.74-1.71-.45-4.06,1.92-7.84,4.38-11.28,7.26-.52.43-.45,1.32,0,1.77.51.51,1.25.44,1.77,0h0Z"/>
        <path class="cls-7" d="m468.3,415.8c2.63-1.8,5.25-3.61,7.88-5.41.54-.37.83-1.11.45-1.71-.35-.54-1.13-.84-1.71-.45-2.63,1.8-5.25,3.61-7.88,5.41-.54.37-.83,1.11-.45,1.71.35.54,1.13.84,1.71.45h0Z"/>
        <path class="cls-7" d="m478.87,416.54c.27-.3.57-.59.88-.85.04-.04.09-.08.14-.11-.03.02-.22.17-.09.07.08-.06.17-.12.26-.18.17-.12.35-.23.53-.34.17-.1.35-.19.53-.28.09-.05.19-.09.29-.13.04-.02.2-.09.01,0-.2.08,0,0,.05-.02.39-.15.8-.27,1.21-.36.64-.14,1.07-.92.87-1.54-.22-.67-.85-1.02-1.54-.87-1.87.41-3.62,1.44-4.9,2.86-.44.49-.52,1.29,0,1.77.48.44,1.3.52,1.77,0h0Z"/>
        <path class="cls-7" d="m448.09,420.16c3.38,4.95,7.47,9.38,12.17,13.11.53.42,1.25.52,1.77,0,.44-.44.53-1.35,0-1.77-4.52-3.59-8.51-7.83-11.78-12.6-.9-1.32-3.07-.07-2.16,1.26h0Z"/>
        <path class="cls-7" d="m458.96,420.83c2.63,2.6,5.25,5.2,7.88,7.8.47.46,1.31.5,1.77,0s.5-1.28,0-1.77c-2.63-2.6-5.25-5.2-7.88-7.8-.47-.46-1.31-.5-1.77,0s-.5,1.28,0,1.77h0Z"/>
        <path class="cls-7" d="m468.48,421.34l4.51,4.41c.47.46,1.31.5,1.77,0s.5-1.28,0-1.77c-1.5-1.47-3.01-2.94-4.51-4.41-.47-.46-1.31-.5-1.77,0s-.5,1.28,0,1.77h0Z"/>
        <path class="cls-7" d="m478.1,421.09c.23.54.58,1.03.99,1.45.24.24.51.45.78.65.2.15.42.27.64.37.14.09.3.14.46.15.17.04.33.03.5-.02.29-.08.6-.3.75-.57.15-.29.23-.64.13-.96-.09-.29-.28-.61-.57-.75-.26-.12-.51-.27-.74-.45l.25.2c-.27-.21-.51-.45-.72-.72l.2.25c-.2-.26-.37-.55-.5-.85-.08-.15-.19-.26-.32-.35-.12-.11-.26-.19-.43-.22-.3-.08-.7-.05-.96.13s-.5.43-.57.75l-.04.33c0,.23.06.44.17.63h0Z"/>
        <circle class="cls-3" cx="500" cy="418.97" r="10.71"/>
      </g>
      <path class="cls-7" d="m448.13,466.48h74.04c1.61,0,1.61-2.5,0-2.5h-74.04c-1.61,0-1.61,2.5,0,2.5h0Z"/>
    </g>
    <path class="cls-1" d="m500.96,38.6h-182.51c-17.67,0-32,14.33-32,32v441.97c0,17.67,14.33,32,32,32h182.51c17.67,0,32-14.33,32-32V70.59c0-17.67-14.33-32-32-32Zm5.04,424.71h-203.45V108.16h203.45v355.14Z"/>
    <g>
      <g>
        <path class="cls-7" d="m440.81,180.67c16.98-16.83,33.97-33.67,50.95-50.5,4.79-4.75,9.59-9.5,14.38-14.25,1.14-1.13-.62-2.9-1.77-1.77-16.98,16.83-33.97,33.67-50.95,50.5-4.79,4.75-9.59,9.5-14.38,14.25-1.14,1.13.62,2.9,1.77,1.77h0Z"/>
        <path class="cls-7" d="m500.97,118.52c-3.64,22.09-7.27,44.18-10.91,66.27l-3.07,18.65c-.26,1.57,2.15,2.25,2.41.66,3.64-22.09,7.27-44.18,10.91-66.27l3.07-18.65c.26-1.57-2.15-2.25-2.41-.66h0Z"/>
        <path class="cls-7" d="m500.92,116.59c-22.64,3.89-45.63,5.64-68.6,5.21-6.5-.12-13-.42-19.48-.88-1.61-.11-1.6,2.39,0,2.5,23.1,1.65,46.35,1.12,69.35-1.61,6.49-.77,12.95-1.71,19.39-2.82,1.58-.27.91-2.68-.66-2.41h0Z"/>
        <path class="cls-7" d="m479.81,121.51c3.29-3.45,3.79-9.2.95-13.08-.4-.54-1.09-.81-1.71-.45-.54.31-.85,1.16-.45,1.71,2.17,2.98,2.02,7.34-.56,10.05-1.11,1.16.66,2.94,1.77,1.77h0Z"/>
        <path class="cls-7" d="m463.46,122.86c2.24-1.68,3.68-4.17,3.86-6.99s-1-5.45-2.98-7.28c-1.18-1.09-2.95.67-1.77,1.77,1.49,1.37,2.34,3.29,2.26,5.32-.07,1.93-1.08,3.86-2.63,5.02-.54.4-.82,1.08-.45,1.71.31.53,1.17.86,1.71.45h0Z"/>
        <path class="cls-7" d="m443.24,123.64c2.36-1.96,3.8-4.94,3.88-8s-1.25-6.11-3.48-8.19c-1.18-1.09-2.95.67-1.77,1.77,1.78,1.66,2.82,3.98,2.75,6.42s-1.29,4.69-3.15,6.24c-.52.43-.45,1.32,0,1.77.51.51,1.25.43,1.77,0h0Z"/>
        <path class="cls-7" d="m419.24,122.4c1.59-2.37,2.04-5.54,1.06-8.24s-2.99-4.62-5.58-5.63c-.63-.24-1.37.27-1.54.87-.19.71.24,1.29.87,1.54,1.78.69,3.28,2.24,3.9,4.05.71,2.08.35,4.33-.86,6.14-.38.56-.11,1.38.45,1.71.61.36,1.33.11,1.71-.45h0Z"/>
        <path class="cls-7" d="m486.26,134.97c1.46-3.05,1.53-6.55.09-9.62-1.28-2.73-3.78-4.79-6.63-5.71-1.53-.5-2.19,1.92-.66,2.41,4.79,1.54,7.23,7.09,5.05,11.66-.29.61-.17,1.35.45,1.71.55.32,1.42.16,1.71-.45h0Z"/>
        <path class="cls-7" d="m499.67,138.63c.14-2.91-1.32-5.76-3.7-7.41s-5.86-1.83-8.56-.53c-.61.29-.77,1.16-.45,1.71.36.62,1.1.74,1.71.45,1.92-.93,4.28-.7,6.03.53s2.56,3.27,2.47,5.25c-.03.68.6,1.25,1.25,1.25.7,0,1.22-.57,1.25-1.25h0Z"/>
        <path class="cls-7" d="m507.35,137.69c-2.9-2.7-7.99-2.03-10.06,1.37-.34.56-.14,1.4.45,1.71s1.35.15,1.71-.45c.05-.09.11-.17.16-.25.12-.2-.08.08.01-.03.12-.14.24-.27.37-.4.12-.11.24-.22.37-.33-.24.19.03-.01.07-.04.07-.05.14-.09.21-.13.16-.09.32-.17.48-.26.21-.11-.12.03.02-.01.08-.03.16-.06.23-.09.35-.12.71-.21,1.07-.26-.17.03-.13.01.02,0,.08,0,.17-.01.25-.02.18,0,.37,0,.55,0,.08,0,.17.01.25.02.33.02-.26-.05.06,0,.16.03.33.06.49.1.18.05.34.12.52.17.14.04-.19-.1.02,0,.09.04.18.09.27.13.15.08.28.17.42.26.27.16-.17-.16.06.05.08.07.15.13.23.2.49.46,1.28.49,1.77,0s.5-1.31,0-1.77h0Z"/>
        <path class="cls-7" d="m507.6,153.78c-1.06-2.13-3.32-3.55-5.69-3.65s-4.8,1.3-5.98,3.39c-.79,1.4,1.36,2.66,2.16,1.26s2.26-2.22,3.82-2.15c1.45.06,2.83,1.01,3.53,2.41.3.6,1.16.77,1.71.45.62-.36.75-1.1.45-1.71h0Z"/>
        <path class="cls-7" d="m497.38,154.06c-.86-4.31-3.59-8.18-7.38-10.43-4.13-2.46-9.4-2.8-13.84-.98-.63.26-1.06.83-.87,1.54.16.59.91,1.13,1.54.87,3.86-1.58,8.3-1.41,11.91.73,3.26,1.93,5.48,5.24,6.23,8.94.32,1.58,2.73.91,2.41-.66h0Z"/>
        <path class="cls-7" d="m476.41,145.34c2.37-5.14,2.14-11.36-1-16.15-2.94-4.48-7.98-7.27-13.32-7.51-1.61-.07-1.6,2.43,0,2.5,4.43.2,8.72,2.55,11.16,6.27,2.62,4,3,9.28,1,13.62-.67,1.45,1.48,2.72,2.16,1.26h0Z"/>
        <path class="cls-7" d="m507.75,169.71c-1.34-2.34-3.74-3.92-6.41-4.24s-5.42.76-7.21,2.74c-1.08,1.19.69,2.96,1.77,1.77,1.32-1.46,3.29-2.29,5.27-2.03,1.86.24,3.5,1.41,4.43,3.02.8,1.39,2.96.14,2.16-1.26h0Z"/>
        <path class="cls-7" d="m494.45,172.03c-.59-6.44-3.91-12.4-9.19-16.18-5.57-3.98-13.01-4.98-19.49-2.87-1.52.5-.87,2.91.66,2.41,5.78-1.88,12.22-1.05,17.25,2.4,4.67,3.2,7.75,8.61,8.26,14.24.14,1.59,2.65,1.6,2.5,0h0Z"/>
        <path class="cls-7" d="m462.75,157.76c3.36-6.87,1.89-15.1-2.31-21.28-4.5-6.61-11.58-10.85-18.71-14.11-1.45-.66-2.72,1.49-1.26,2.16,6.49,2.97,13.07,6.71,17.37,12.58,3.99,5.46,5.84,13.08,2.76,19.39-.7,1.44,1.45,2.71,2.16,1.26h0Z"/>
        <path class="cls-7" d="m416.49,124.33c13.87,7.78,28.66,18.83,30.4,35.94.46,4.5-.09,9.08-1.97,13.21-.66,1.45,1.49,2.73,2.16,1.26,3.56-7.85,2.98-16.8-.29-24.66-3.36-8.06-9.41-14.5-16.28-19.74-4.03-3.06-8.35-5.71-12.75-8.18-1.4-.79-2.67,1.37-1.26,2.16h0Z"/>
        <path class="cls-7" d="m490.39,195.63c-1-7.64-4.84-14.77-10.77-19.73s-14.31-7.64-22.36-6.84c-4.69.47-9.22,1.95-13.23,4.44-1.36.85-.11,3.01,1.26,2.16,6.45-4,14.41-5.25,21.78-3.44,6.96,1.71,12.96,6.23,16.75,12.29,2.11,3.37,3.54,7.17,4.06,11.12.21,1.57,2.71,1.59,2.5,0h0Z"/>
      </g>
      <path class="cls-7" d="m490.88,196.57c1.14-2.63,3.52-4.63,6.4-5.07s5.93.84,7.66,3.14c.41.54,1.07.81,1.71.45.53-.3.85-1.17.45-1.71-2.29-3.03-6.04-4.84-9.87-4.37s-7.02,2.88-8.51,6.31c-.27.62-.18,1.33.45,1.71.53.31,1.44.17,1.71-.45h0Z"/>
    </g>
    <path class="cls-7" d="m352.63,109.74c-.11,25.63-.22,51.26-.32,76.89s-.22,51.26-.32,76.89c-.06,14.48-.12,28.96-.18,43.44,0,1.87,2.89,1.87,2.9,0,.11-25.63.22-51.26.32-76.89s.22-51.26.32-76.89c.06-14.48.12-28.96.18-43.44,0-1.87-2.89-1.87-2.9,0h0Z"/>
    <g>
      <path class="cls-7" d="m342.01,303.66c.54-1.98,2.53-3.43,4.59-3.25,1.95.16,3.69,1.9,3.9,3.84.04.41.32.76.76.76.38,0,.8-.35.76-.76-.3-2.75-2.5-5.06-5.28-5.35s-5.48,1.71-6.2,4.36c-.26.95,1.21,1.35,1.47.4h0Z"/>
      <path class="cls-7" d="m335.17,311.08c3.04-3.45,8.48-4.25,12.37-1.79.83.52,1.59-.79.77-1.31-4.44-2.81-10.74-1.92-14.21,2.02-.64.73.43,1.81,1.07,1.07h0Z"/>
      <path class="cls-7" d="m337.6,317.5c2.29-3.92,8.23-5.16,11.84-2.32.76.6,1.84-.47,1.07-1.07-4.36-3.44-11.4-2.21-14.22,2.63-.49.85.82,1.61,1.31.77h0Z"/>
      <path class="cls-7" d="m348.71,321.53c-1.35-.98-1.71-3.06-.87-4.46s2.92-1.97,4.36-1.26c.37.18.82.1,1.04-.27.2-.34.1-.86-.27-1.04-1.76-.87-3.87-.59-5.4.62s-2.03,3.27-1.49,5.09c.32,1.07.96,1.97,1.86,2.63.33.24.85.06,1.04-.27.22-.38.06-.8-.27-1.04h0Z"/>
      <circle class="cls-7" cx="353.91" cy="311.19" r="7.27"/>
      <path class="cls-7" d="m365.94,305.24c-.72-2.65-3.43-4.64-6.2-4.36s-4.99,2.6-5.28,5.35c-.04.41.38.76.76.76.45,0,.72-.35.76-.76.21-1.94,1.95-3.67,3.9-3.84,2.06-.18,4.05,1.28,4.59,3.25.26.94,1.72.54,1.47-.4h0Z"/>
      <path class="cls-7" d="m372.39,311.99c-3.47-3.94-9.78-4.83-14.21-2.02-.82.52-.06,1.84.77,1.31,3.89-2.46,9.33-1.67,12.37,1.79.65.74,1.72-.34,1.07-1.07h0Z"/>
      <path class="cls-7" d="m370.21,318.71c-2.83-4.84-9.86-6.06-14.22-2.63-.77.6.31,1.67,1.07,1.07,3.6-2.84,9.55-1.6,11.84,2.32.49.84,1.81.08,1.31-.77h0Z"/>
      <path class="cls-7" d="m358.55,324.82c1.59-1.16,2.33-3.13,1.98-5.06s-1.94-3.33-3.79-3.69c-1.1-.21-2.2-.09-3.21.41-.37.18-.47.7-.27,1.04.22.37.67.46,1.04.27,1.45-.72,3.49-.18,4.36,1.26s.48,3.48-.87,4.46c-.33.24-.49.66-.27,1.04.19.33.71.52,1.04.27h0Z"/>
    </g>
    <rect class="cls-2" x="359.33" y="68.22" width="71.7" height="16" rx="6.89" ry="6.89"/>
    <rect class="cls-2" x="447.33" y="68.22" width="16" height="16" rx="6.89" ry="6.89"/>
    <rect class="cls-2" x="383.78" y="478.92" width="51.85" height="51.85" rx="22.34" ry="22.34"/>
    <rect class="cls-1" x="307.39" y="126.56" width="24.99" height="16" rx="6.89" ry="6.89"/>
    <rect class="cls-1" x="306.99" y="428.31" width="24.99" height="16" rx="6.89" ry="6.89"/>
    <path class="cls-2" d="m249.3,527.93c-.39-160.91-.77-321.82-1.16-482.73,23.06,23.06,46.12,46.12,69.19,69.19v342.57c-22.67,23.66-45.35,47.32-68.02,70.98Z"/>
    <rect class="cls-1" x="216.22" y="38.6" width="34.68" height="496.57" rx="11.74" ry="11.74"/>
    <g>
      <path class="cls-2" d="m213.14,475.34c5.29-9.12,2.7-20.73,0-32.81-.56-2.51-1.38-5.76-2.58-9.51,4.8-.77,9.61-1.55,14.41-2.32h0c4.78,0,8.19,3.29,8.36,3.46,3.31,3.29,3.45,7.49,3.46,8.36v32.81c-.53,2.71-2.02,8.42-6.66,13.91-4.99,5.89-10.87,8.29-13.48,9.18-4.19-4.62-8.63-11.05-7.11-17.18.66-2.64,1.82-2.82,3.6-5.9Z"/>
      <rect class="cls-1" x="176.78" y="452.65" width="67.55" height="28.3" rx="12.19" ry="12.19" transform="translate(677.36 256.24) rotate(90)"/>
    </g>
    <g>
      <path class="cls-2" d="m219.56,97.92c5.29,9.12,2.7,20.73,0,32.81-.56,2.51-1.38,5.76-2.58,9.51,4.8.77,9.61,1.55,14.41,2.32h0c4.78,0,8.19-3.29,8.36-3.46,3.31-3.29,3.45-7.49,3.46-8.36v-32.81c-.53-2.71-2.02-8.42-6.66-13.91-4.99-5.89-10.87-8.29-13.48-9.18-4.19,4.62-8.63,11.05-7.11,17.18.66,2.64,1.82,2.82,3.6,5.9Z"/>
      <rect class="cls-1" x="183.2" y="92.31" width="67.55" height="28.3" rx="12.19" ry="12.19" transform="translate(110.51 323.43) rotate(-90)"/>
    </g>
  </g>
  <g>
    <g>
      <path class="cls-7" d="m603.48,286.92c0-.43-.08-.86-.16-1.29s-.3-.83-.48-1.22c-.05-.11-.1-.21-.16-.3-.11-.17-.26-.34-.38-.5-.13-.17-.27-.37-.42-.53-.04-.04-.08-.08-.12-.12-.27-.23-.56-.46-.85-.66-.23-.16-.48-.25-.74-.36-.23-.1-.48-.23-.74-.28-.36-.07-.75-.12-1.12-.15-.07,0-.14,0-.21,0-.41.03-.85.05-1.25.19-.34.11-.68.27-1,.42-.05.02-.1.05-.15.08s-.1.06-.14.1c-.28.21-.58.42-.84.66-.3.28-.56.66-.77.97-.06.08-.11.17-.15.26-.15.32-.31.67-.42,1.02-.02.05-.03.11-.04.16-.04.17-.06.44-.07.54-.02.11-.06.38-.07.56,0,.05,0,.1,0,.15.01.35.08.75.14,1.1.01.06.02.12.04.18.1.31.27.68.41.97.02.05.05.1.08.14.22.33.45.67.74.94.25.23.55.45.82.64.03.02.06.05.1.07.35.2.73.36,1.11.47s.8.14,1.2.17c.09,0,.17,0,.26,0,.41-.04.83-.08,1.23-.17.09-.02.18-.05.27-.09.46-.18.96-.35,1.36-.65.31-.24.65-.46.93-.74s.52-.63.75-.95c.06-.08.11-.16.15-.24.09-.18.16-.38.24-.55s.17-.38.24-.57c.08-.24.09-.52.12-.76.04-.28.09-.55.08-.83-.02-.37-.09-.74-.14-1.11,0-.05-.01-.1-.03-.15-.02-.11-.05-.22-.09-.32-.15-.39-.3-.79-.5-1.16-.05-.1-.12-.19-.18-.29-.29-.41-.62-.88-1.02-1.22s-.81-.69-1.27-.91c-.37-.18-.77-.36-1.16-.48-.1-.03-.21-.06-.32-.07-.41-.07-.84-.15-1.26-.15-.05,0-.1,0-.15,0-.38.03-.78.08-1.15.15-.5.1-.99.32-1.43.57-.33.2-.64.46-.93.71-.07.06-.14.12-.2.19-.25.29-.5.6-.71.92-.05.08-.1.16-.14.24-.19.41-.43.88-.53,1.35-.21,1.06-.24,1.94.02,2.99.02.08.04.16.07.24.14.37.29.75.47,1.1.21.42.54.81.86,1.15.05.06.11.11.17.16.26.22.55.44.83.64.04.03.09.06.13.08.04.02.07.04.11.05.31.14.65.29.98.41.09.03.17.05.26.07.3.05.83.16,1.23.15.04,0,.08,0,.12-.01.36-.04.74-.08,1.1-.15.46-.1.91-.3,1.32-.55.33-.2.64-.47.94-.71.07-.06.13-.11.19-.18.26-.28.49-.61.72-.92.06-.08.11-.16.16-.24.04-.07.08-.15.11-.23.16-.37.35-.74.46-1.13.02-.08.04-.16.05-.24.07-.4.14-.81.16-1.22,0-.09,0-.17-.01-.25-.03-.34-.08-.73-.14-1.06,0-.05-.02-.1-.03-.15-.12-.45-.3-.91-.57-1.29-.19-.28-.42-.59-.65-.84-.03-.03-.05-.06-.08-.09-.25-.23-.55-.44-.83-.64-.04-.03-.08-.06-.12-.08-.43-.27-.9-.42-1.39-.45-.5-.11-1-.09-1.5.07-.49.12-.91.34-1.28.67-.41.26-.73.62-.97,1.05l-.38.9c-.18.66-.18,1.33,0,1.99l.38.9c.33.56.78,1.01,1.35,1.35.04.03.08.05.12.08l-.76-.59c.07.06.14.12.19.19l-.59-.76c.07.09.12.18.16.28l-.38-.9c.04.1.07.21.09.32l-.13-1c.02.16.02.32,0,.48l.13-1c-.03.18-.07.35-.14.51l.38-.9c-.08.18-.17.34-.29.49l.59-.76c-.1.13-.22.25-.35.35l.76-.59c-.1.08-.21.14-.32.19l.9-.38c-.11.04-.21.07-.32.09l1-.13c-.12.02-.23.02-.35,0l1,.13c-.12-.02-.23-.05-.35-.09l.9.38c-.12-.05-.22-.11-.32-.19l.76.59c-.1-.08-.18-.17-.26-.26l.59.76c-.1-.13-.18-.27-.24-.42l.38.9c-.07-.18-.12-.36-.15-.55l.13,1c-.03-.2-.03-.41,0-.61l-.13,1c.03-.19.07-.37.15-.55l-.38.9c.06-.14.13-.27.23-.39l-.59.76c.09-.11.18-.21.29-.3l-.76.59c.1-.07.2-.13.32-.18l-.9.38c.14-.06.28-.1.43-.12l-1,.13c.16-.02.32-.02.48,0l-1-.13c.19.03.37.08.55.15l-.9-.38c.19.09.37.19.54.32l-.76-.59c.17.13.31.28.45.45l-.59-.76c.12.16.22.32.3.5l-.38-.9c.08.18.13.36.15.56l-.13-1c.02.15.02.3,0,.45l.13-1c-.02.13-.05.26-.1.38l.38-.9c-.06.13-.13.25-.22.36l.59-.76c-.1.12-.21.23-.33.33l.76-.59c-.14.11-.3.2-.47.28l.9-.38c-.14.06-.28.1-.43.12l1-.13c-.13.02-.26.02-.39,0l1,.13c-.09-.01-.18-.04-.26-.07l.9.38c-.07-.03-.14-.07-.2-.12l.76.59c-.07-.05-.12-.11-.17-.17l.59.76c-.06-.08-.1-.15-.14-.24l.38.9c-.03-.08-.05-.16-.06-.24l.13,1c-.01-.1,0-.19,0-.29l-.13,1c.02-.1.04-.19.08-.28l-.38.9c.05-.12.12-.23.19-.34l-.59.76c.07-.09.15-.17.24-.25l-.76.59c.09-.07.19-.13.3-.18l-.9.38c.09-.04.19-.07.29-.08l-1,.13c.11-.01.21-.01.32,0l-1-.13c.13.02.25.05.36.1l-.9-.38c.12.05.22.12.33.2l-.76-.59c.11.09.22.19.31.31l-.59-.76c.1.13.18.27.25.42l-.38-.9c.05.14.09.28.11.42l-.13-1c0,.06.01.13.01.19-.02.52.09,1,.32,1.44.15.46.41.87.78,1.21.34.37.74.62,1.21.78.45.23.93.34,1.44.32l1-.13c.64-.18,1.19-.5,1.65-.96l.59-.76c.34-.58.51-1.22.51-1.89h0Z"/>
      <path class="cls-7" d="m598.39,284.04c-.02-1.33-.36-2.45-.92-3.63-.14-.29-.31-.57-.51-.83-.38-.51-.75-1.03-1.23-1.45s-.96-.8-1.49-1.13-1.13-.56-1.71-.77c-.46-.17-.92-.23-1.4-.3s-.97-.13-1.47-.08c-.52-.02-1,.09-1.44.32-.46.15-.87.41-1.21.78-.37.34-.62.74-.78,1.21-.23.45-.34.93-.32,1.44.04.97.36,1.98,1.1,2.65.69.63,1.68,1.2,2.65,1.1.33-.03.65-.03.97.02l-1-.13c.39.06.77.17,1.13.32l-.9-.38c.36.16.7.36,1.02.6l-.76-.59c.35.27.67.58.94.94l-.59-.76c.24.32.44.65.59,1.02l-.38-.9c.14.34.24.7.29,1.07l-.13-1c.02.16.03.32.03.49.02.97.41,1.96,1.1,2.65.34.37.74.62,1.21.78.45.23.93.34,1.44.32.97-.04,1.98-.36,2.65-1.1s1.11-1.64,1.1-2.65h0Z"/>
      <path class="cls-7" d="m589.42,276.16l-1.74.78-.76.59c-.37.34-.62.74-.78,1.21-.17.29-.25.61-.26.95-.11.5-.09,1,.07,1.5.22.54.43,1.1.73,1.61s.68.96,1.05,1.41c.19.22.39.43.61.62.44.38.91.75,1.4,1.07.23.15.48.29.73.4.54.25,1.1.5,1.68.67s1.16.22,1.74.29c.3.04.6.05.91.04.99-.04,1.94-.39,2.65-1.1.37-.34.62-.74.78-1.21.23-.45.34-.93.32-1.44-.04-.97-.36-1.98-1.1-2.65s-1.65-1.14-2.65-1.1c-.3.01-.61,0-.91-.04l1,.13c-.48-.07-.94-.2-1.38-.38l.9.38c-.44-.19-.86-.44-1.24-.73l.76.59c-.38-.3-.72-.64-1.02-1.02l.59.76c-.26-.34-.48-.71-.65-1.11l.38.9-.03-.07-1.72,4.23,1.74-.78c.44-.24.79-.56,1.05-.97.33-.36.56-.79.67-1.28.16-.5.18-1,.07-1.5-.02-.5-.17-.96-.45-1.39-.52-.8-1.28-1.51-2.24-1.72l-1-.13c-.68,0-1.31.17-1.89.51h0Z"/>
      <path class="cls-7" d="m604.11,286.34c.09-.15.19-.3.3-.44l-.59.76c.29-.37.62-.71.99-1l-.76.59c.4-.31.83-.56,1.29-.76l-.9.38c.49-.21,1-.35,1.53-.43l-1,.13c.5-.06,1-.07,1.5,0l-1-.13c.2.03.41.07.61.12l-2.24-5.51c-.16.3-.34.59-.55.86l.59-.76c-.31.39-.66.74-1.05,1.04l.76-.59c-.42.32-.87.58-1.36.79l.9-.38c-.49.2-.99.34-1.51.42l1-.13c-.31.04-.61.05-.93.05-.95-.02-1.99.44-2.65,1.1s-1.14,1.72-1.1,2.65.36,1.98,1.1,2.65,1.63,1.07,2.65,1.1c.29,0,.59,0,.88-.04.57-.07,1.16-.13,1.72-.27.29-.07.56-.17.83-.28.54-.22,1.09-.44,1.6-.73.37-.21.7-.47,1.03-.73s.69-.53,1-.85c.4-.4.73-.87,1.07-1.32.19-.25.35-.51.49-.78.57-1.08.66-2.21.19-3.34-.15-.46-.41-.87-.78-1.21-.47-.46-1.02-.79-1.65-.96-3.99-1.02-8.28.73-10.45,4.23-.5.81-.63,1.98-.38,2.89s.91,1.81,1.72,2.24c.87.46,1.92.69,2.89.38s1.71-.87,2.24-1.72h0Z"/>
    </g>
    <g>
      <g>
        <path class="cls-4" d="m411.87,452.91c-7.35-5.95-13.14-14.01-16.91-23.11l-20.82,8.53c5.04,12.23,13.03,23.57,23.68,32.16l14.05-17.58Z"/>
        <path class="cls-7" d="m404.35,459.3c-1.13-.99-2.3-1.93-3.32-3.04l-1.58-1.6-.79-.81-.73-.86-2.25,1.98.76.9.82.84,1.66,1.68c1.07,1.16,2.3,2.15,3.48,3.19l1.94-2.28Z"/>
        <polygon class="cls-7" points="395.51 450.11 392.86 446.46 390.38 448.14 393.15 451.96 395.51 450.11"/>
        <path class="cls-7" d="m390.86,443.28c-.84-1.25-1.47-2.63-2.2-3.95-.75-1.31-1.33-2.7-1.95-4.08l-2.75,1.21c.64,1.43,1.25,2.88,2.03,4.25.76,1.37,1.41,2.81,2.29,4.11l2.57-1.54Z"/>
      </g>
      <g>
        <path class="cls-4" d="m394.96,429.8c-3.67-9.14-5.43-19.22-5.03-29.16l-22.48-.93c-.53,13.15,1.74,26.33,6.69,38.62l20.82-8.53Z"/>
        <path class="cls-7" d="m385.27,431.72c-1.1-2.81-1.97-5.71-2.72-8.63l-2.91.73c.78,3.03,1.69,6.04,2.83,8.96l2.8-1.07Z"/>
        <polygon class="cls-7" points="381.69 419.42 380.93 414.95 377.96 415.38 378.75 420.01 381.69 419.42"/>
        <path class="cls-7" d="m380.5,411.2c-.2-1.5-.23-3.01-.3-4.52-.03-.75-.08-1.51-.09-2.26l.04-2.26-3-.05-.04,2.35c0,.78.06,1.56.09,2.35.07,1.56.11,3.13.31,4.69l2.99-.29Z"/>
      </g>
      <g>
        <path class="cls-4" d="m389.93,400.64c.45-9.85,3.03-19.82,7.39-29.06l-20.37-9.56c-5.48,11.65-8.9,24.45-9.5,37.68l22.48.93Z"/>
        <path class="cls-7" d="m380.3,398.34c.18-3.02.59-6.01,1.1-8.98l-2.95-.54c-.53,3.09-.96,6.2-1.14,9.33l2.99.2Z"/>
        <path class="cls-7" d="m382.16,385.66c.33-1.47.76-2.93,1.14-4.39l-2.88-.82c-.39,1.51-.83,3.02-1.18,4.54l2.92.67Z"/>
        <path class="cls-7" d="m384.42,377.66c.24-.72.45-1.44.72-2.15l.82-2.12.82-2.12.93-2.07-2.74-1.22-.95,2.14-.85,2.19-.84,2.19c-.27.73-.49,1.48-.74,2.22l2.85.94Z"/>
      </g>
      <g>
        <path class="cls-4" d="m397.33,371.58c4.39-9.24,10.35-17.89,17.57-25.46l-16.35-15.46c-8.71,9.16-16.07,19.73-21.59,31.36l20.37,9.56Z"/>
        <path class="cls-7" d="m389.32,365.72c.7-1.34,1.34-2.72,2.1-4.03.76-1.31,1.49-2.64,2.28-3.94l-2.56-1.56c-.81,1.33-1.56,2.7-2.35,4.05-.78,1.35-1.44,2.77-2.16,4.15l2.69,1.33Z"/>
        <path class="cls-7" d="m395.74,354.56c.82-1.27,1.73-2.49,2.6-3.74l-2.43-1.76c-.89,1.28-1.82,2.53-2.67,3.84l2.5,1.66Z"/>
        <path class="cls-7" d="m400.62,347.79l1.4-1.8,1.47-1.74c.97-1.16,1.96-2.32,3.01-3.42l-2.21-2.02c-1.08,1.13-2.08,2.31-3.08,3.51l-1.51,1.78-1.43,1.85,2.37,1.84Z"/>
      </g>
      <g>
        <path class="cls-4" d="m414.89,346.12c3.6-3.79,7.48-7.34,11.58-10.61,1.04-.79,2.08-1.63,3.1-2.39,1.02-.75,2.05-1.46,3.07-2.15,2.06-1.36,4.15-2.56,6.21-3.55l-9.77-20.27c-3.14,1.51-6.06,3.22-8.82,5.04-1.37.92-2.72,1.85-4.02,2.81-1.3.96-2.5,1.93-3.76,2.89-4.93,3.93-9.59,8.19-13.94,12.78l16.35,15.46Z"/>
        <path class="cls-7" d="m409.12,338.04c1.08-1.07,2.14-2.16,3.24-3.2l3.36-3.08-1.98-2.25-3.44,3.15c-1.13,1.07-2.21,2.19-3.32,3.28l2.15,2.1Z"/>
        <path class="cls-7" d="m418.63,329.31c1.14-1,2.38-1.88,3.57-2.83l-1.82-2.38c-1.22.97-2.49,1.87-3.66,2.9l1.91,2.31Z"/>
        <path class="cls-7" d="m425.24,324.21c2.47-1.74,5.03-3.34,7.68-4.74l-1.4-2.66c-2.79,1.47-5.46,3.14-8.02,4.94l1.73,2.45Z"/>
      </g>
      <g>
        <path class="cls-4" d="m438.87,327.41c4.13-2,8.18-3.09,11.52-3,1.69.03,3.18.33,4.68.91,1.53.59,3.2,1.52,4.99,2.83l13.17-18.24c-2.88-2.09-6.23-4.1-10.1-5.59-3.88-1.51-8.15-2.33-12.24-2.4-4.1-.09-8.04.49-11.67,1.44-3.64.96-7,2.28-10.14,3.79l9.77,20.27Z"/>
        <path class="cls-7" d="m436.34,317.84c2.73-1.2,5.56-2.14,8.45-2.68l-.55-2.95c-3.16.59-6.2,1.61-9.1,2.88l1.2,2.75Z"/>
        <path class="cls-7" d="m448.41,314.69c.73-.01,1.46-.06,2.18-.04.72.05,1.45.06,2.17.14l.33-2.98c-.81-.09-1.62-.11-2.43-.16-.81-.02-1.62.03-2.43.05l.18,2.99Z"/>
        <path class="cls-7" d="m456.31,315.48c2.79.73,5.43,2.06,7.91,3.67l1.65-2.51c-2.67-1.74-5.6-3.23-8.76-4.06l-.79,2.89Z"/>
      </g>
      <g>
        <path class="cls-4" d="m460.06,328.14c1.79,1.29,3.66,2.9,5.65,4.72,1.89,1.73,3.59,3.44,5.14,5.24,1.54,1.78,2.89,3.59,3.93,5.35,1.04,1.75,1.75,3.43,2.05,4.78l21.92-5.07c-1-4.28-2.7-7.93-4.6-11.15-1.91-3.22-4.05-6.03-6.28-8.63-2.23-2.58-4.62-4.96-6.98-7.13-2.27-2.07-4.76-4.26-7.66-6.35l-13.17,18.24Z"/>
        <path class="cls-7" d="m467.27,321.35c2.35,1.84,4.63,3.9,6.81,5.98l2.08-2.16c-2.27-2.17-4.56-4.23-7.05-6.19l-1.85,2.36Z"/>
        <path class="cls-7" d="m476.72,330.03c.52.55,1.02,1.1,1.5,1.68.49.57.98,1.13,1.44,1.73l2.35-1.87c-.48-.63-.99-1.23-1.51-1.82-.51-.6-1.04-1.19-1.58-1.76l-2.2,2.04Z"/>
        <path class="cls-7" d="m481.88,336.43c1.66,2.46,3.07,5.08,3.96,7.83l2.86-.92c-1-3.11-2.55-5.96-4.33-8.59l-2.48,1.68Z"/>
      </g>
      <g>
        <path class="cls-4" d="m476.83,348.22c.31,1.38.28,2.33.05,3.2-.11.22-.18.44-.23.68-.09.21-.19.42-.32.67-.28.49-.69,1.08-1.25,1.74-.56.66-1.27,1.38-2.1,2.15-.85.77-1.74,1.52-2.64,2.25-1.8,1.46-3.76,2.72-5.74,3.88l11.11,19.57c3.01-1.74,5.91-3.64,8.61-5.81,1.35-1.08,2.67-2.2,3.95-3.37,1.29-1.2,2.62-2.53,3.94-4.06,1.31-1.54,2.61-3.3,3.75-5.33.57-1.02,1.09-2.1,1.55-3.23.41-1.13.79-2.28,1.14-3.43,1.26-4.72,1.11-9.72.1-13.96l-21.92,5.07Z"/>
        <path class="cls-7" d="m486.65,347.79c.41,2.82.03,5.67-1.07,8.25l2.76,1.18c1.32-3.08,1.77-6.55,1.28-9.83l-2.97.4Z"/>
        <path class="cls-7" d="m483.85,359.12c-.82,1.17-1.78,2.28-2.81,3.33l2.14,2.1c1.12-1.14,2.19-2.37,3.13-3.71l-2.46-1.72Z"/>
        <path class="cls-7" d="m478.3,364.98c-2.25,1.98-4.69,3.74-7.24,5.31l1.57,2.56c2.69-1.65,5.26-3.51,7.63-5.6l-1.97-2.27Z"/>
      </g>
      <g>
        <path class="cls-4" d="m464.61,362.78c-1.99,1.15-4.08,2.07-6.17,2.87-2.1.78-4.22,1.31-6.32,1.69-2.1.37-4.17.43-6.18.36l-1.49-.11-1.46-.23c-.49-.05-.96-.19-1.43-.31-.46-.12-.98-.2-1.36-.37l-6.75,21.46c7.44,2.34,15.15,2.58,22.35,1.4,3.58-.63,7.08-1.53,10.4-2.76,3.31-1.25,6.51-2.7,9.53-4.43l-11.11-19.57Z"/>
        <path class="cls-7" d="m467.77,372.16c-2.66,1.37-5.42,2.53-8.26,3.43l.89,2.87c3.02-.96,5.95-2.19,8.76-3.64l-1.39-2.66Z"/>
        <path class="cls-7" d="m455.91,376.53c-.73.14-1.45.33-2.19.43l-2.2.31.33,2.98,2.37-.34c.79-.11,1.56-.31,2.34-.46l-.65-2.93Z"/>
        <path class="cls-7" d="m447.83,377.48c-2.96.07-5.91-.28-8.76-1l-.72,2.91c3.11.79,6.33,1.16,9.52,1.09l-.04-3Z"/>
      </g>
      <g>
        <path class="cls-4" d="m440.2,366.68c-3.25-1.01-6.53-3.24-9-6.13-2.47-2.89-4.09-6.4-4.42-9.53l-22.35,2.57c.52,4.15,1.61,8.15,3.33,11.73,1.71,3.58,3.78,6.93,6.33,9.84,5.04,5.86,11.57,10.51,19.36,12.99l6.75-21.46Z"/>
        <path class="cls-7" d="m435.54,375.39c-2.7-1.1-5.24-2.6-7.55-4.41l-1.88,2.34c2.53,1.99,5.33,3.65,8.33,4.86l1.1-2.79Z"/>
        <path class="cls-7" d="m425.29,368.5c-1.06-1.02-1.95-2.19-2.88-3.33l-2.41,1.78c1.01,1.25,1.99,2.53,3.16,3.65l2.14-2.1Z"/>
        <path class="cls-7" d="m420.43,362.09c-.34-.65-.74-1.27-1.02-1.94l-.87-2.01c-.45-1.38-.94-2.76-1.17-4.19l-2.94.57c.27,1.61.8,3.15,1.31,4.68l.96,2.23c.32.74.75,1.43,1.13,2.14l2.61-1.48Z"/>
      </g>
      <g>
        <path class="cls-4" d="m426.78,351.01c-.24-1.58-.05-3.01.3-4.37.13-.34.13-.67.31-1.03.17-.36.32-.72.46-1.09.14-.37.4-.68.57-1.03l.28-.52.37-.48c.88-1.33,2.18-2.54,3.69-3.7,1.48-1.18,3.37-2.19,5.36-3.13l-9.36-20.46c-3.23,1.51-6.47,3.25-9.55,5.63-3.07,2.33-6.05,5.13-8.44,8.57-.31.42-.62.84-.91,1.27l-.8,1.36c-.51.92-1.08,1.81-1.5,2.77-.42.96-.84,1.93-1.23,2.9-.41.96-.66,2.06-.97,3.1-1.12,4.2-1.47,8.64-.92,12.79l22.35-2.57Z"/>
        <path class="cls-7" d="m416.92,350.32c-.07-2.89.43-5.75,1.46-8.43l-2.79-1.09c-1.18,3.05-1.75,6.35-1.66,9.63l3-.11Z"/>
        <path class="cls-7" d="m419.96,338.65l.54-.94c.19-.31.43-.59.64-.88.45-.57.82-1.19,1.33-1.72l-2.28-1.95c-.56.59-.99,1.29-1.49,1.93-.24.33-.5.65-.71.99l-.61,1.06,2.59,1.51Z"/>
        <path class="cls-7" d="m425.03,332.53c2.18-1.95,4.66-3.59,7.33-4.91l-1.36-2.67c-2.84,1.41-5.55,3.18-7.96,5.34l1.99,2.24Z"/>
      </g>
      <g>
        <path class="cls-4" d="m438.12,335.67c1.99-.95,4.26-1.68,6.54-2.38,2.34-.64,4.76-1.21,7.26-1.63,1.25-.21,2.52-.4,3.79-.56l1.92-.23,2.04-.19c2.73-.28,5.5-.46,8.26-.66l-1.39-22.46c-3,.21-6,.41-9.01.71l-2.27.22-2.38.28c-1.59.2-3.18.44-4.78.71-3.19.54-6.41,1.27-9.64,2.17-3.23.98-6.48,2.04-9.72,3.56l9.36,20.46Z"/>
        <path class="cls-7" d="m435.78,326.04c2.78-1.11,5.64-2.05,8.57-2.76l-.72-2.91c-3.05.75-6.05,1.73-8.98,2.9l1.14,2.77Z"/>
        <path class="cls-7" d="m448.03,322.45c1.49-.27,2.97-.56,4.47-.76l-.44-2.97c-1.55.21-3.08.51-4.62.79l.58,2.94Z"/>
        <path class="cls-7" d="m456.26,321.21c3.03-.31,6.08-.59,9.13-.79l-.21-2.99c-3.09.2-6.16.48-9.25.8l.33,2.98Z"/>
      </g>
      <g>
        <path class="cls-4" d="m467.94,330.02c11.1-.67,22.41-.73,33.94-.71v-22.5c-11.56-.01-23.36.04-35.33.76l1.39,22.46Z"/>
        <path class="cls-7" d="m469.26,320.18c3.06-.18,6.12-.29,9.18-.39l-.09-3c-3.09.1-6.17.21-9.26.39l.17,3Z"/>
        <polygon class="cls-7" points="482.27 319.7 486.87 319.62 486.83 316.62 482.21 316.7 482.27 319.7"/>
        <polygon class="cls-7" points="490.71 319.58 499.93 319.55 499.93 316.55 490.69 316.58 490.71 319.58"/>
      </g>
      <g>
        <path class="cls-4" d="m501.88,329.31c11.52,0,23.27.04,35.2-.53l-1.09-22.47c-11.15.53-22.52.51-34.1.5v22.5Z"/>
        <polygon class="cls-7" points="503.82 319.55 513.05 319.55 513.04 316.55 503.82 316.55 503.82 319.55"/>
        <polygon class="cls-7" points="516.9 319.52 521.53 319.48 521.49 316.48 516.88 316.52 516.9 319.52"/>
        <path class="cls-7" d="m525.38,319.42c3.09-.07,6.17-.16,9.26-.29l-.13-3c-3.06.14-6.12.22-9.19.29l.06,3Z"/>
      </g>
      <g>
        <path class="cls-4" d="m537.08,328.78l4.48-.25,4.61-.34,4.64-.48,4.66-.63c6.23-.96,12.52-2.35,18.8-4.52l-7.34-21.27c-4.65,1.61-9.67,2.75-14.85,3.55l-3.92.53-3.97.41-4.03.3-4.17.23,1.09,22.47Z"/>
        <path class="cls-7" d="m538.54,318.93c1.54-.09,3.08-.16,4.63-.29,1.55-.11,3.1-.24,4.64-.42l-.32-2.98c-1.51.17-3.03.3-4.55.41-1.52.13-3.05.2-4.57.29l.16,3Z"/>
        <polygon class="cls-7" points="551.68 317.76 553.99 317.44 556.29 317.05 555.78 314.09 553.54 314.47 551.28 314.78 551.68 317.76"/>
        <path class="cls-7" d="m560.12,316.32c.76-.16,1.53-.31,2.29-.49l2.27-.57c1.52-.35,3.01-.84,4.51-1.29l-.91-2.86c-1.45.43-2.88.91-4.36,1.25l-2.2.56c-.74.18-1.48.31-2.22.47l.61,2.94Z"/>
      </g>
      <g>
        <path class="cls-4" d="m574.28,322.56c6.26-2.17,12.54-5.13,18.36-9.37,5.8-4.21,11.06-9.83,14.7-16.41l-19.69-10.89c-1.98,3.53-4.76,6.57-8.29,9.14-3.52,2.57-7.77,4.66-12.42,6.26l7.34,21.27Z"/>
        <path class="cls-7" d="m572.95,312.67c1.49-.49,2.91-1.2,4.36-1.79,1.44-.64,2.82-1.41,4.23-2.11l-1.46-2.62c-1.34.66-2.65,1.4-4.02,2-1.39.57-2.73,1.24-4.17,1.72l1.05,2.81Z"/>
        <path class="cls-7" d="m584.93,306.71l1.94-1.39c.63-.48,1.31-.89,1.9-1.44l-1.89-2.33c-.54.51-1.19.9-1.78,1.35l-1.81,1.3,1.65,2.51Z"/>
        <path class="cls-7" d="m591.73,301.24l1.66-1.73c.27-.29.56-.57.81-.88l.74-.94,1.47-1.89c.47-.64.86-1.35,1.3-2.02l-2.55-1.59c-.4.62-.76,1.27-1.2,1.86l-1.36,1.75-.68.87c-.23.29-.51.54-.76.81l-1.53,1.6,2.1,2.15Z"/>
      </g>
    </g>
  </g>
</svg>