<svg xmlns="http://www.w3.org/2000/svg" xmlns:xlink="http://www.w3.org/1999/xlink" viewBox="0 0 4387.91 1898.03"><defs><style>.cls-1,.cls-12{fill:#1d1d1b;}.cls-2,.cls-3{fill:#c6c6c6;}.cls-10,.cls-11,.cls-12,.cls-13,.cls-14,.cls-3,.cls-4,.cls-5,.cls-6,.cls-9{stroke:#1d1d1b;stroke-miterlimit:10;}.cls-11,.cls-13,.cls-4,.cls-5,.cls-8,.cls-9{fill:#fff;}.cls-14,.cls-4{stroke-width:0.9px;}.cls-5,.cls-6{stroke-width:1.2px;}.cls-10,.cls-14,.cls-6,.cls-7{fill:#bdbf0e;}.cls-10,.cls-9{stroke-width:0.9px;}.cls-11{stroke-width:1.07px;}.cls-12{stroke-width:0.72px;}.cls-13{stroke-width:0.75px;}</style></defs><g id="Livello_1" data-name="Livello 1"><image width="211" height="587" transform="scale(0.6)" xlink:href="../../Immagini/Catture%20di%20schermata/Screenshot%202023-10-18%20150700.png"/><path class="cls-1" d="M3812.56,1056.57a1.81,1.81,0,0,0,0-3.62,1.81,1.81,0,0,0,0,3.62Z" transform="translate(573.61 841.47)"/><path class="cls-2" d="M808.28,138.77" transform="translate(573.61 841.47)"/><path class="cls-3" d="M37,554.82C21.22,526.25,9,478.23,24.33,438.39,39.89,397.84,73.88,391.91,157,352.61c141.43-66.92,157.27-103.82,241.64-111.32,42.88-3.82,81.25-7.23,111.73,19.4,60.28,52.66,57.9,195,8.18,278.81C419.84,705.81,109.15,685,37,554.82Z" transform="translate(573.61 841.47)"/><path class="cls-4" d="M327.82,656.7H170.05L150.28,451.46,327.82,448Z" transform="translate(573.61 841.47)"/><path class="cls-1" d="M163.15,657.35c-.21-49.23-8.7-86.52-16.54-111.68C135.82,511.07,119,475.92,134,459.36c4.85-5.34,11.59-7.17,16.31-7.9L170.05,656.7Z" transform="translate(573.61 841.47)"/><rect class="cls-5" x="684.7" y="995.72" width="348" height="182.79" rx="14.07"/><rect class="cls-6" x="699.92" y="980.5" width="348" height="182.79" rx="14.07"/><circle class="cls-1" cx="873.92" cy="1040.93" r="46.19"/><rect class="cls-4" x="755.4" y="1104.58" width="237.05" height="32.17" rx="16.09"/><circle class="cls-1" cx="784.21" cy="1120.67" r="8.04"/><circle class="cls-1" cx="806.64" cy="1120.67" r="8.04"/><circle class="cls-1" cx="829.07" cy="1120.67" r="8.04"/><circle class="cls-1" cx="851.49" cy="1120.67" r="8.04"/><circle class="cls-1" cx="873.92" cy="1120.67" r="8.04"/><circle class="cls-1" cx="896.35" cy="1120.67" r="8.04"/><circle class="cls-1" cx="918.78" cy="1120.67" r="8.04"/><circle class="cls-1" cx="941.21" cy="1120.67" r="8.04"/><circle class="cls-1" cx="963.63" cy="1120.67" r="8.04"/><path class="cls-7" d="M156.46,666.4,410.52,656c-.94-26.76-3.24-49-5.41-65.49-2.62-19.94-5.18-32.53-10-46.43-9.08-26.26-18.54-35.21-22-38.21-6.3-5.48-13.87-9.72-25.59-13.33-71.7-22.07-124.1,12.16-124.1,12.16A131,131,0,0,0,182.3,548c-10.88,18.79-14,35.74-19.34,64.54A430,430,0,0,0,156.46,666.4Z" transform="translate(573.61 841.47)"/><path class="cls-8" d="M244.5,423.78a82.48,82.48,0,0,1-5.28,24c-5.24,13.55-14.82,23.05-11.05,30.05a8.29,8.29,0,0,0,2.19,2.57c-3.79,4.28-6.88,7.66-8.86,9.8-10.35,11.25-14.84,15.36-16.61,22.83a26.89,26.89,0,0,0-.71,5.74,86,86,0,0,1,34.95-20.52,72.41,72.41,0,0,0-1.64,15c0,9.69,2,11.38,3,11.94a4.78,4.78,0,0,0,3,.46A95.05,95.05,0,0,0,238.53,539c-3.72,12.88-3.68,23-3.57,32,.22,18.56,3.8,24.5,5.6,27.05a29.12,29.12,0,0,0,3,3.56,14.22,14.22,0,0,0,6.37,1.49,14.47,14.47,0,0,0,8.28-2.69,38.47,38.47,0,0,0-.16,14c.46,2.64,4.19,22.19,16.4,24.18,8.77,1.44,19.84-6.51,23.74-20.07-1.79,6-1.25,11.34,1.08,12.8a16.34,16.34,0,0,0,4.63,1.58,6.75,6.75,0,0,0,2.12.25c2.94-.35,4.67-4.73,4.93-5.36,1.74-4.41,0-6.58,1.49-12a21.94,21.94,0,0,1,1.76-4.51,17.79,17.79,0,0,0,15.7,9.34c9.38-.25,14.23-8.64,15.13-10.21,4.71-8.14,2.1-16.46,1.64-17.83a20.66,20.66,0,0,0,7.13-7.12,21.81,21.81,0,0,0,2.3-15.63,5.28,5.28,0,0,0,2.74,2.35,4.28,4.28,0,0,0,2.3.18c3-.9,1.93-15,.93-29.18,0,0-1.29-18.35-.65-18.38.09,0-.2,3.18,1.82,5.44,1.2,1.33,3.38,2.52,5.26,1.91,2-.66,2.81-3,3-3.66,1.19-3.51-.34-6.88-1.43-9.44-2.06-4.86-3.24-10.07-5.28-14.94-1.82-4.32-4.28-10.53-6.9-18.38.36.45,2.37,2.88,5.3,2.81a6.23,6.23,0,0,0,3.25-1.18c3-2.25,2.18-10.1-1.42-19.32,1.57.24,3.55.27,4.7-.9,2.67-2.73-.87-10.19-4.24-17-3.83-7.76-9.14-18.19-16-30.63Z" transform="translate(573.61 841.47)"/><path class="cls-1" d="M247.1,468.62a140.54,140.54,0,0,0-10.31,45.15c-.23,3.88-.86,9.43,3.22,11.68a5.16,5.16,0,0,0,5.71-.77c1.85-1.46,2.74-3.73,3.57-5.85.25-.65-.79-.93-1-.29-.79,2-1.66,4.25-3.53,5.55a4,4,0,0,1-5.72-1c-1.3-1.82-1.33-4.16-1.26-6.3s.22-4.5.42-6.74a140,140,0,0,1,10-41.14c.26-.64-.79-.92-1.05-.29Z" transform="translate(573.61 841.47)"/><path class="cls-1" d="M241.77,525.65A142.39,142.39,0,0,0,234.25,572c0,6.72.12,13.91,2.14,20.39,1.59,5.11,5,10.06,10.63,11s11.86-2,14.12-7.33c.27-.63-.66-1.19-.94-.54a12,12,0,0,1-12.74,6.86c-5.73-.9-8.92-6.18-10.32-11.35-1.69-6.19-1.78-12.93-1.8-19.31A140,140,0,0,1,237,549.51a142.71,142.71,0,0,1,5.81-23.58c.22-.66-.82-.94-1-.28Z" transform="translate(573.61 841.47)"/><path class="cls-1" d="M256.74,601a53.34,53.34,0,0,0,1.47,16.84,45.18,45.18,0,0,0,6.31,14.68c2.75,3.93,6.69,6.66,11.61,6.67a18.93,18.93,0,0,0,12.49-5.15c4.45-4,7.26-9.45,10-14.72.32-.62-.61-1.16-.93-.54-4.22,8.21-9.52,18-19.73,19.22-11,1.35-16.08-10.88-18.44-19.59A52.42,52.42,0,0,1,257.83,601c.05-.7-1-.7-1.09,0Z" transform="translate(573.61 841.47)"/><path class="cls-1" d="M297.38,618.54c-.65,3.25-1.36,6.77-.28,10a8,8,0,0,0,5,5.31,7.23,7.23,0,0,0,7.13-2.32c2.13-2.23,2.9-5.3,3.25-8.29.47-4,.25-8.12,2.17-11.76.33-.61-.61-1.16-.93-.54-1.7,3.22-1.85,6.82-2.14,10.38s-.84,7.54-3.72,10a5.63,5.63,0,0,1-8.71-1.1c-2.29-3.39-1.45-7.7-.71-11.43.14-.68-.91-1-1-.29Z" transform="translate(573.61 841.47)"/><path class="cls-1" d="M313.6,609.44c1.85,7.27,9.38,12,16.73,11.35,8-.76,14.47-6.82,16.94-14.26a27.85,27.85,0,0,0,.63-14.41c-.14-.68-1.18-.39-1,.29,1.58,7.66.13,16.24-5.57,21.92-5.1,5.08-13,7.17-19.5,3.65a14,14,0,0,1-7.14-8.83.55.55,0,0,0-1,.29Z" transform="translate(573.61 841.47)"/><path class="cls-1" d="M348.32,592.08a22.42,22.42,0,0,0,8.4-24.13.54.54,0,0,0-1,.29,21.33,21.33,0,0,1-7.91,22.91c-.56.4,0,1.34.55.93Z" transform="translate(573.61 841.47)"/><path class="cls-1" d="M348,464.32q7.23,15.38,13.29,31.24,3,7.89,5.8,15.9c.92,2.62,1.81,5.26,2.69,7.9s2.1,5.65,1.39,8.47-3.41,4.87-6.18,3.24-3.16-5-3.54-7.84c-.09-.69-1.14-.39-1.05.29.36,2.6.79,5.4,2.68,7.38a5.23,5.23,0,0,0,5.6,1.56,6.32,6.32,0,0,0,3.61-4.67c.58-2.88-.5-5.8-1.39-8.49-4-12.08-8.38-24-13.24-35.77q-4.14-10-8.72-19.75c-.3-.63-1.23-.08-.94.54Z" transform="translate(573.61 841.47)"/><path class="cls-1" d="M361.32,529a145.6,145.6,0,0,1,1.16,27c-.14,4.32-.29,8.66-.62,13a4.23,4.23,0,0,1-.9,2.75,2.25,2.25,0,0,1-2.79,0c-1.81-1.14-1.88-3.62-1.95-5.51,0-.7-1.11-.7-1.08,0,.1,2.7.53,6.13,3.63,6.94s4-2.15,4.19-4.56c.54-8.56,1-17.17.67-25.75a119.79,119.79,0,0,0-1.27-14.14c-.1-.68-1.15-.39-1,.29Z" transform="translate(573.61 841.47)"/><rect class="cls-1" x="298.74" y="458.12" width="13.79" height="21.3" rx="6.89" transform="matrix(0.99, -0.14, 0.14, 0.99, 510, 889.74)"/><path class="cls-1" d="M259.79,416.42a98.27,98.27,0,0,0-6.05,19.47c-1.24,6.29-2.23,13.05-1.73,19.48.42,5.34,2.77,10,7.95,12,5.36,2.09,11.6,1.38,17.21,1.26l43.95-.93c5-.11,10.16-.39,14.76-2.45a13.11,13.11,0,0,0,8-11.71,41.09,41.09,0,0,0-1.17-10q-1.14-5.7-2.7-11.32a161.34,161.34,0,0,0-7.74-21.66c-.39-.88-1.68-.12-1.3.76a150.41,150.41,0,0,1,11,36.57c.88,5.55.49,11.54-4.62,14.9-3.94,2.6-9,3.16-13.56,3.37-6.46.31-13,.31-19.43.44l-20.48.44-10.23.21a68.06,68.06,0,0,1-8.08-.11,16.42,16.42,0,0,1-7.23-2.18,10.41,10.41,0,0,1-4.39-6.49,31.92,31.92,0,0,1-.42-9.41,94.68,94.68,0,0,1,1.29-10.88,96.1,96.1,0,0,1,6.23-20.94c.38-.88-.92-1.64-1.29-.76Z" transform="translate(573.61 841.47)"/><path class="cls-1" d="M341.91,409.28a229.13,229.13,0,0,1,15.3,25.2,196.44,196.44,0,0,1,12,27.15c.75,2.18,1.23,5.86-2.16,5.73-2.78-.1-4.21-3-5.31-5.13-.44-.86-1.73-.1-1.3.76,1,2,2.17,4.19,4.24,5.25a4.87,4.87,0,0,0,5.24-.29c1.67-1.39,1.59-3.7,1.08-5.62a64.82,64.82,0,0,0-2.82-7.6,229.25,229.25,0,0,0-14.67-30.15q-4.8-8.24-10.27-16.06c-.55-.78-1.85,0-1.29.76Z" transform="translate(573.61 841.47)"/><path class="cls-1" d="M363.79,467.24c1.45,4.95,4.79,9.73,4.15,15.1a6.58,6.58,0,0,1-3.43,5.38,4.65,4.65,0,0,1-5.46-.6c-.67-.69-1.73.37-1.06,1.06a5.93,5.93,0,0,0,6.13,1.31,7.51,7.51,0,0,0,4.82-4.81c2.19-6.19-2-12.12-3.71-17.84a.75.75,0,0,0-1.44.4Z" transform="translate(573.61 841.47)"/><path class="cls-1" d="M270.43,436.18a26.37,26.37,0,0,0,13.48-5.8c.74-.62-.32-1.67-1.06-1.06a24.49,24.49,0,0,1-12.42,5.36c-.94.12-1,1.62,0,1.5Z" transform="translate(573.61 841.47)"/><path class="cls-1" d="M309.29,427.2a16.2,16.2,0,0,0,16.36,5.12.75.75,0,0,0-.4-1.44,14.73,14.73,0,0,1-14.9-4.74c-.62-.75-1.67.32-1.06,1.06Z" transform="translate(573.61 841.47)"/><path class="cls-1" d="M300.89,471a103.58,103.58,0,0,0-25.32,35.77c-.94,2.2-1.8,4.44-2.59,6.7a39.91,39.91,0,0,0-2,7.07c-.31,2.05,0,4.39,2,5.52a3.36,3.36,0,0,0,4.66-.84c.51-.82-.79-1.58-1.3-.76a1.72,1.72,0,0,1-2.17.51,2.72,2.72,0,0,1-1.72-2.36c-.31-2.12.64-4.41,1.27-6.4a99.8,99.8,0,0,1,4.72-12.06,103.14,103.14,0,0,1,13.68-21.67,101.45,101.45,0,0,1,9.9-10.41c.72-.66-.35-1.72-1.06-1.07Z" transform="translate(573.61 841.47)"/><path class="cls-1" d="M278.9,521.23a82.34,82.34,0,0,0-8.76,38.86,80.45,80.45,0,0,0,.82,9.79c.39,2.63.67,5.68,2.27,7.92a4.52,4.52,0,0,0,5.72,1.57c2.42-1.19,3.76-3.87,4.8-6.21a147.82,147.82,0,0,0,8-23,.75.75,0,0,0-1.45-.39,145.87,145.87,0,0,1-6.06,18.42c-1.11,2.76-2.14,6-4.1,8.26a4.49,4.49,0,0,1-3.06,1.86,3.32,3.32,0,0,1-3-2c-1.3-2.32-1.51-5.39-1.84-8a80.32,80.32,0,0,1,1.13-27A80.17,80.17,0,0,1,280.2,522c.43-.86-.86-1.62-1.3-.76Z" transform="translate(573.61 841.47)"/><path class="cls-1" d="M291.18,544.91c-.75,1.6-1.57,3.39-1.15,5.2a3.66,3.66,0,0,0,2.8,2.9c3.47.56,4.63-4.14,5.34-6.56a150.94,150.94,0,0,0,6.17-43.63.75.75,0,0,0-1.5,0A150.25,150.25,0,0,1,300,532.66a146.45,146.45,0,0,1-3.57,14.3c-.43,1.44-1.15,4.54-3.11,4.59-1.2,0-1.85-1.26-1.92-2.29a7.56,7.56,0,0,1,1.06-3.59c.41-.87-.89-1.63-1.3-.76Z" transform="translate(573.61 841.47)"/><path class="cls-1" d="M310.09,469.68c12.55,10.37,18,26.4,22.45,41.51.68,2.28,1.88,5.07,1,7.43a3.24,3.24,0,0,1-2.3,2.18c-1.2.18-2.63-1.15-2-2.36.45-.86-.85-1.62-1.3-.76a3.19,3.19,0,0,0,1.58,4.29,3.76,3.76,0,0,0,4.58-1.34c1.46-1.85,1.37-4.23.86-6.42-.55-2.36-1.34-4.69-2-7-2.83-9.18-6.1-18.4-11.29-26.55a51,51,0,0,0-10.47-12c-.74-.62-1.81.44-1.06,1.06Z" transform="translate(573.61 841.47)"/><path class="cls-1" d="M311.19,500.58A122.6,122.6,0,0,0,305.85,530a119,119,0,0,0,.07,15c.26,4,.27,8.94,3.76,11.56a4.92,4.92,0,0,0,5.29.62,4,4,0,0,0,2.1-4.55.75.75,0,0,0-1.45.4c.54,2-1.66,3.51-3.49,3.09a5.63,5.63,0,0,1-3.69-3.82,23.82,23.82,0,0,1-.94-6.13q-.24-3.15-.31-6.32a120.33,120.33,0,0,1,2-25A125.05,125.05,0,0,1,312.63,501c.29-.92-1.16-1.32-1.44-.39Z" transform="translate(573.61 841.47)"/><path class="cls-1" d="M315,556a24.66,24.66,0,0,0,2,15.61c.94,1.94,2.27,4.07,4.4,4.84a4.87,4.87,0,0,0,5.25-1.53,14.48,14.48,0,0,0,2.86-5.75q1.32-4.39,2.27-8.88a115.61,115.61,0,0,0,1.62-39c-.12-1-1.62-1-1.5,0a115,115,0,0,1-.44,32.62,110.65,110.65,0,0,1-3.6,15.58c-.58,1.83-1.43,4-3,5.13-2.1,1.51-4.25,0-5.48-1.84a22.34,22.34,0,0,1-2.87-16.34c.18-1-1.26-1.35-1.45-.4Z" transform="translate(573.61 841.47)"/><path class="cls-1" d="M272.76,443.52a20,20,0,0,1,6.88.9,6.42,6.42,0,0,1,4,4.16,3.28,3.28,0,0,1-1.73,3.92,2.43,2.43,0,0,1-3.51-1c-.83-2,1-4.51,2.2-6,.61-.74-.45-1.8-1.06-1.06-1.53,1.84-3.2,4.32-2.75,6.84a3.73,3.73,0,0,0,4.57,2.94,4.86,4.86,0,0,0,3.9-4.23,7,7,0,0,0-3.33-6.09c-2.65-1.81-6.09-1.87-9.18-1.92a.75.75,0,0,0,0,1.5Z" transform="translate(573.61 841.47)"/><path class="cls-1" d="M311.75,443.85a19.91,19.91,0,0,1,6.87.91,6.42,6.42,0,0,1,4,4.15,3.28,3.28,0,0,1-1.73,3.92,2.44,2.44,0,0,1-3.52-1c-.82-2,1-4.51,2.2-6,.61-.74-.44-1.81-1.06-1.06-1.52,1.84-3.2,4.31-2.74,6.84a3.74,3.74,0,0,0,4.57,2.94,4.85,4.85,0,0,0,3.89-4.23c.23-2.47-1.36-4.76-3.32-6.1-2.65-1.81-6.09-1.87-9.18-1.92a.75.75,0,0,0,0,1.5Z" transform="translate(573.61 841.47)"/><rect class="cls-1" x="209.5" y="395.47" width="162.45" height="27.08" rx="11.87" transform="translate(552.13 857.62) rotate(-3.07)"/><path class="cls-1" d="M240.54,442.75a49.09,49.09,0,0,1-14.14-6.1,41,41,0,0,1-8.29-6.74,39.4,39.4,0,0,1-6-8.28c1.82-1.65,16.05-14.2,32.36-11.33,0,0,9.93,1.37,19.49,11.26,1.08,1.12-15.11-6-19.49,2.22-.93,1.77-1.49,4.45-2.45,9A93.56,93.56,0,0,0,240.54,442.75Z" transform="translate(573.61 841.47)"/><path class="cls-1" d="M237.13,498c-22.57,6.93-40.27,24.19-52.29,44-14.08,23.26-20.68,50.3-24.43,77-2.21,15.73-3.48,31.57-4.7,47.4-.08,1,1.42,1,1.5,0,2.15-27.71,4.35-55.66,11.8-82.55,6.61-23.84,17.56-47.06,35.57-64.44a82.74,82.74,0,0,1,32.95-20c.92-.29.53-1.73-.4-1.45Z" transform="translate(573.61 841.47)"/><path class="cls-1" d="M242.78,425a86.64,86.64,0,0,1-4.28,22.55,85.27,85.27,0,0,1-4.41,10.76c-1.65,3.35-3.67,6.52-5.15,9.95s-2.4,7.34-1.11,11.06c.31.91,1.76.52,1.44-.4-2.48-7.17,3.46-14.35,6.41-20.46a87.61,87.61,0,0,0,7.06-21.08A90.64,90.64,0,0,0,244.28,425c.05-1-1.45-1-1.5,0Z" transform="translate(573.61 841.47)"/><path class="cls-1" d="M235,473.12l-20.08,23.67c-5.37,6.33-11.7,13.18-11.93,22a.75.75,0,0,0,1.5,0c.23-8.82,7.1-15.73,12.45-22.05l19.12-22.52c.62-.74-.44-1.8-1.06-1.07Z" transform="translate(573.61 841.47)"/><path class="cls-1" d="M335.76,401.72l17.9,24.7,14.77-11Z" transform="translate(573.61 841.47)"/><path class="cls-1" d="M302.81,494.43c-1-1.95.28-4.53,2.2-5.41s4.11.51,4.8,2.45a3.74,3.74,0,0,1-.26,3.34c-.52.82.78,1.57,1.29.76,1.59-2.49.46-5.91-1.86-7.51a4.66,4.66,0,0,0-4.1-.59,5.82,5.82,0,0,0-3.25,2.88,5.28,5.28,0,0,0-.11,4.83c.44.86,1.73.11,1.29-.75Z" transform="translate(573.61 841.47)"/><path class="cls-1" d="M363.27,500.2c18.46,7.68,26.5,28.88,31.9,46.57,6.84,22.45,10,45.81,11.81,69.14,1,13.13,1.62,26.28,2.21,39.43.05,1,1.55,1,1.5,0-1.07-23.85-2.18-47.75-5.76-71.38A268.68,268.68,0,0,0,397.41,549c-2.9-10-6.32-20-11.49-29s-12.41-17.18-22.25-21.27c-.89-.37-1.28,1.08-.4,1.44Z" transform="translate(573.61 841.47)"/><path class="cls-1" d="M190.23,336.64c-2.64-5.49,3.79-14.29,5-14.75,17.89-6.73,54-15.72,87.2,3.85,19.55,11.53,29.9,28.16,34.75,37.64a7.44,7.44,0,0,0,.38.68c5.68,9.27,11,20.31,23.08,25.41,9.7,4.08,18.56,2,18.59,2.31.1,1.34-138.31,10.19-138.51,7.43-.06-.89,14.08-.79,20.87-10.81,1.5-2.21,2-4.2,3.3-8,2.43-7.24,4.62-18.17,3.22-23.39-2.22-8.3-18.77-10.27-48.62-15.45C197.08,341.12,192,340.26,190.23,336.64Z" transform="translate(573.61 841.47)"/><rect class="cls-1" x="600.22" y="1496.14" width="532.19" height="15.65"/><path class="cls-4" d="M105.1,555.87V530.21a0,0,0,0,1,0,0h0a8.88,8.88,0,0,0,8.53-6.08,9,9,0,0,0-8.52-11.86H83.34a9.17,9.17,0,0,0-9.18,7.66A9,9,0,0,0,83,530.18h0v25.68a12.7,12.7,0,0,1-7.6,11.64A46.47,46.47,0,0,0,47.7,612.9c1.4,23.68,21.56,38.85,45.26,39.76,26.5,1,47.61-16.3,47.61-42.57a46.49,46.49,0,0,0-27.79-42.56A12.76,12.76,0,0,1,105.1,555.87Z" transform="translate(573.61 841.47)"/><rect class="cls-9" x="648.21" y="1490.35" width="39.41" height="5.89" rx="2.09"/><path class="cls-10" d="M132.78,611.74c3.34,5.34-14.59,32.68-38.32,32.16-21.8-.49-40.77-24.3-37-36,1.52-4.67,7-8.16,12-8.69,9.38-1,13.07,8.87,24.46,13.86C112.39,621.18,129.89,607.11,132.78,611.74Z" transform="translate(573.61 841.47)"/><path class="cls-10" d="M121.91,602.77c-1.16.67-2.47-1.73-12.23-8.43-4.83-3.3-6.46-4.05-6.8-6-.71-4.08,5-10,9.52-9.52C120.39,579.71,125.1,600.93,121.91,602.77Z" transform="translate(573.61 841.47)"/><path class="cls-1" d="M108.11,501.3h-28a1.88,1.88,0,0,0-1.88,1.88v1.05a1.88,1.88,0,0,0,1.88,1.88h0A1.88,1.88,0,0,1,82,508v12.54a1.88,1.88,0,0,0,1.88,1.88h20.52a1.88,1.88,0,0,0,1.88-1.88V508a1.88,1.88,0,0,1,1.88-1.88h0a1.88,1.88,0,0,0,1.88-1.88v-1.05A1.88,1.88,0,0,0,108.11,501.3Z" transform="translate(573.61 841.47)"/><rect class="cls-11" x="785.73" y="1488.47" width="161.16" height="7.76"/><path class="cls-1" d="M368.9,538.87H216.51a11.83,11.83,0,0,0-11.81,12.59q3.06,47.77,6.14,95.55H372l8.67-95.23A11.83,11.83,0,0,0,368.9,538.87Z" transform="translate(573.61 841.47)"/><rect class="cls-12" x="465.56" y="566.94" width="8.15" height="77.08" transform="translate(395.88 1036.96) rotate(-19.85)"/><path class="cls-13" d="M469.14,573.52l-7.92,2.11a.87.87,0,0,0-.62.56l-2.76,7.72a.9.9,0,0,1-1.61.19l-4.45-6.89a.89.89,0,0,0-.73-.41l-8.19-.24a.9.9,0,0,1-.68-1.47l5.18-6.36a.91.91,0,0,0,.16-.83l-2.3-7.86a.9.9,0,0,1,1.19-1.1l7.65,3a.91.91,0,0,0,.83-.1l6.77-4.62a.91.91,0,0,1,1.42.79l-.45,8.19a.87.87,0,0,0,.35.76l6.48,5A.9.9,0,0,1,469.14,573.52Z" transform="translate(573.61 841.47)"/><path class="cls-8" d="M308,588.33l-.27-.15h0l-.32-.1a2,2,0,0,0-.48-.06,3.84,3.84,0,0,0-1.11.22,6.84,6.84,0,0,0-1.37.64,10,10,0,0,0-1.43,1.06,7.71,7.71,0,0,0-2.29,3.44,7.75,7.75,0,0,0-.37,2.39,11.66,11.66,0,0,0,.35,2.76c.22.91.47,1.85.74,2.76s.53,1.82.76,2.72a12.79,12.79,0,0,1,.4,2.55,6.85,6.85,0,0,1-.31,2.29,4.88,4.88,0,0,1-1,1.65c-.38-.43-.78-.82-1.19-1.22s-1-.93-1.58-1.43-1.06-.86-1.6-1.26V596.2a7.86,7.86,0,0,1,.32-2.1A1.73,1.73,0,0,1,298,593l.91-.51-1-.36a7.62,7.62,0,0,1-1.74-.86,16,16,0,0,1-1.41-1,11.71,11.71,0,0,1-1.24-1.2l-.39-.42-.35.46a11.13,11.13,0,0,1-.95,1.11,9.94,9.94,0,0,1-1,.93,5.53,5.53,0,0,1-1.12.73l-1.19.58-.73-.28a7.29,7.29,0,0,1-1.72-.86,16,16,0,0,1-1.41-1,12.76,12.76,0,0,1-1.24-1.2l-.38-.43-.35.43a12.88,12.88,0,0,1-1,1.12,11.13,11.13,0,0,1-1,.93,5.37,5.37,0,0,1-1.13.74l-1.91.91h2.09a1.21,1.21,0,0,1,.71.21,6.26,6.26,0,0,1,.78.67v13a6.76,6.76,0,0,0-2.6,1.15,7,7,0,0,0-1.89,2.15,6.34,6.34,0,0,0-.81,2.58,5.74,5.74,0,0,0,.29,2.5,4.14,4.14,0,0,0,4.07,2.72,7.78,7.78,0,0,0,1.53-.15,4.65,4.65,0,0,0,1.29-.47,2.89,2.89,0,0,0,.91-.83,2.13,2.13,0,0,0,.37-1.2,1.23,1.23,0,0,0-.53-1.15,1.54,1.54,0,0,0-.83-.24l-.33,0-.22,0-.17,0-1.24.32,1.15.57a.33.33,0,0,1,.2.27.64.64,0,0,1-.12.48,1.85,1.85,0,0,1-.72.55,3.23,3.23,0,0,1-1.47.26,2.49,2.49,0,0,1-1.52-.45,2.88,2.88,0,0,1-1-1.17,3.5,3.5,0,0,1-.29-1.56,3,3,0,0,1,.51-1.53,3.65,3.65,0,0,1,1.44-1.2,5.68,5.68,0,0,1,2.54-.49,8.06,8.06,0,0,1,2.79.47,12.17,12.17,0,0,1,2.21,1.07,10.46,10.46,0,0,1,1.88,1.51l.39.4.33-.45A20.48,20.48,0,0,1,291,611c.47-.48,1-.94,1.47-1.37.29.17.65.4,1.07.69.57.39,1.16.86,1.76,1.35s1.19,1,1.75,1.59a13.65,13.65,0,0,1,1.36,1.58l.28.39.39-.28a34.64,34.64,0,0,0,4.09-3.46c.5-.51,1-1.06,1.5-1.64a15.67,15.67,0,0,0,1.34-1.81,10.81,10.81,0,0,0,1-1.92,5.51,5.51,0,0,0,.38-2,27.38,27.38,0,0,0-.22-3.62c-.16-1.07-.32-2.09-.5-3s-.34-1.82-.5-2.68a15.09,15.09,0,0,1-.21-2.51,3.73,3.73,0,0,1,.27-1.55,3.28,3.28,0,0,1,.61-.95,1.92,1.92,0,0,1,.62-.47,1.61,1.61,0,0,1,.33-.12h1.72Zm-16.62,19.75-.33-.16c-.43-.2-.86-.39-1.38-.58s-1-.35-1.59-.5-.85-.2-1.29-.27v-10.2a10.5,10.5,0,0,1,.3-2.23,1.72,1.72,0,0,1,.77-1.1l.46-.27h1.6a1.25,1.25,0,0,1,.7.21,6,6,0,0,1,.77.65Z" transform="translate(573.61 841.47)"/><path class="cls-14" d="M1039,1441.53h30.18a8.21,8.21,0,0,1,8.21,8.21V1497a0,0,0,0,1,0,0h-46.59a0,0,0,0,1,0,0v-47.3A8.21,8.21,0,0,1,1039,1441.53Z"/><polygon class="cls-14" points="1090.37 1452.72 1077.4 1452.72 1077.4 1460.06 1090.37 1460.06 1090.37 1478.51 1077.4 1478.51 1077.4 1485.85 1095.64 1485.85 1095.64 1482.18 1095.64 1478.51 1095.64 1460.06 1095.64 1452.72 1090.37 1452.72"/><path class="cls-1" d="M284.54,450c0,.3-.25,3.25-2.36,4a3.75,3.75,0,0,1-3.91-1.25c-2.14-2.63.19-8.4,2.39-8.63C282.38,443.88,284.72,447,284.54,450Z" transform="translate(573.61 841.47)"/><path class="cls-1" d="M323.59,450c0,.3-.25,3.25-2.36,4a3.76,3.76,0,0,1-3.91-1.25c-2.14-2.63.19-8.4,2.4-8.63C321.44,443.88,323.78,447,323.59,450Z" transform="translate(573.61 841.47)"/><path class="cls-8" d="M302,206.61v5.22a1.21,1.21,0,0,1-.37.95,1.14,1.14,0,0,1-.82.34H297a1.12,1.12,0,0,1-.9-.39,1.38,1.38,0,0,1-.32-.9v-5.91a8.22,8.22,0,0,1,.63-3.36,10.52,10.52,0,0,1,1.65-2.67,16.57,16.57,0,0,1,2.34-2.23c.88-.68,1.77-1.35,2.68-2s1.9-1.39,2.81-2.08a16.08,16.08,0,0,0,2.43-2.29,10.51,10.51,0,0,0,1.71-2.77,9,9,0,0,0,.65-3.51,10,10,0,0,0-3.37-7.63,11.08,11.08,0,0,0-3.65-2.18,12.68,12.68,0,0,0-8.33-.15A11.44,11.44,0,0,0,291.6,177a10.36,10.36,0,0,0-2.75,3.33,10,10,0,0,0-1.08,4.79V186a1.15,1.15,0,0,1-.36.92,1.27,1.27,0,0,1-.83.3h-3.81a1.09,1.09,0,0,1-.92-.39,1.28,1.28,0,0,1-.31-.79v-.54a16.73,16.73,0,0,1,1.46-7.13,16,16,0,0,1,3.89-5.29,17,17,0,0,1,5.61-3.3,19.94,19.94,0,0,1,6.68-1.13,20.15,20.15,0,0,1,6.88,1.15,17.68,17.68,0,0,1,5.6,3.22,15.11,15.11,0,0,1,3.76,5,14.71,14.71,0,0,1,1.37,6.35,15,15,0,0,1-.87,5.31,17,17,0,0,1-2.19,4.14,17.88,17.88,0,0,1-2.94,3.17c-1.07.9-2.1,1.7-3.11,2.4-.75.52-1.46,1-2.14,1.58a12.6,12.6,0,0,0-1.8,1.66,7.45,7.45,0,0,0-1.25,1.85A5.07,5.07,0,0,0,302,206.61Zm-7.46,15.48a4.41,4.41,0,0,1,.36-1.77,4.65,4.65,0,0,1,1-1.44,4.71,4.71,0,0,1,1.42-1,4.24,4.24,0,0,1,1.74-.36,4.45,4.45,0,0,1,1.8.36,4.68,4.68,0,0,1,1.44,1,4.43,4.43,0,0,1,1,1.44,4.57,4.57,0,0,1,.34,1.77,4.39,4.39,0,0,1-.34,1.74,4.5,4.5,0,0,1-1,1.43,4.68,4.68,0,0,1-1.44,1,4.45,4.45,0,0,1-1.8.36,4.24,4.24,0,0,1-1.74-.36,4.68,4.68,0,0,1-2.4-2.4A4.24,4.24,0,0,1,294.57,222.09Z" transform="translate(573.61 841.47)"/></g></svg>