<svg id="Livello_1" data-name="Livello 1" xmlns="http://www.w3.org/2000/svg" viewBox="0 0 576.05 444.54"><defs><style>.cls-1,.cls-5{fill:#c6c6c6;stroke:#1d1d1b;stroke-miterlimit:10;}.cls-1{stroke-width:1.95px;}.cls-2{fill:#fff;}.cls-3{fill:#1d1d1b;}.cls-4{fill:#bdbf0e;}.cls-5{stroke-width:2.09px;}</style></defs><path class="cls-1" d="M15.38,456.55c-7.77-56.83,17.37-124.67,73.2-161.48,41.66-27.46,97.43-35.8,142.1-18.3,39.82,15.6,64.72,44,81.82,64.59,41.28,49.85,29.26,72.74,60.5,92.93,41.21,26.64,74.72-5.05,113,25.84,2.27,1.82,33.7,28,32.3,67.82-.21,6-1.79,29.7-19.38,48.44-11.49,12.24-24.84,17.08-89.43,28.52-35.63,6.32-53.45,9.48-66.88,11-7.25.8-78.37,13.37-122.26,3.14C189.79,611.87,31.58,575,15.38,456.55Z" transform="translate(-13.03 -203.23)"/><path class="cls-2" d="M444.57,505.06l24.56,5.6a24.55,24.55,0,0,1,5.05-4.73,31.85,31.85,0,0,1,4.41-2.57,22.16,22.16,0,0,0,4-1.92,15.66,15.66,0,0,0,2.69-2.63,40.26,40.26,0,0,0,4.31-5.87c.47-.79.77-1.34,1.38-2.44a83.24,83.24,0,0,0,3.89-8.07c.11-.26.64-1.55,1.25-3.29,1.32-3.83,1.24-4.76,1.1-5.39,0-.16-.6-2.53-2.18-3-.77-.23-1.38.11-1.55-.16-.29-.49,1.6-1.47,2.06-3.22a4.9,4.9,0,0,0-2.47-5.22c-1.63-.77-3.66-.16-5.05.26a3.92,3.92,0,0,0-.44.14c1-3.47.43-6.74-1.46-8-1.54-1-3.76-.57-6.1-.08a18,18,0,0,0-4.19,1.44A66.23,66.23,0,0,0,479,440.3c.47-6.39.35-17.5-2.19-18s-6.36,9.79-7.12,11.88c0,0,0,.13-.1.27a67.86,67.86,0,0,0-3.42,17.67,22,22,0,0,0-11.52,3.45c-11.37,7.51-13.95,26.51-9.78,34.71a14.82,14.82,0,0,1,2,6.65A15.17,15.17,0,0,1,444.57,505.06Z" transform="translate(-13.03 -203.23)"/><path class="cls-3" d="M266.36,531.53a1.1,1.1,0,0,0,0-2.19,1.1,1.1,0,0,0,0,2.19Z" transform="translate(-13.03 -203.23)"/><path class="cls-4" d="M101.64,635.45l253.11-4.8q.62-28.23,1.21-56.46c2.09,6.34,9.49,26.11,29.8,37.59,6.51,3.68,15.36,8.69,26,7.21,21.78-3,34.33-31.1,43.67-52,5.66-12.65,11.31-29.94,13-35.21,2.59-7.93,4.53-14.56,5.82-19.11l-31.62-8.18Q424.81,529.9,407,555.31a218.91,218.91,0,0,0-42.47-86.66A40.4,40.4,0,0,1,347,456.47c-10.29-12.75-4.76-24.35-11-34.14-11.34-17.7-49.87-10.48-75-8.48-47.12,3.75-77.17,23.38-77.17,23.38a160.57,160.57,0,0,0-50.45,53c-13.35,23-17.19,43.81-23.72,79.13A531.32,531.32,0,0,0,101.64,635.45Z" transform="translate(-13.03 -203.23)"/><path class="cls-2" d="M209.59,338a101,101,0,0,1-6.48,29.41C196.69,384,185,395.67,189.56,404.26a10.23,10.23,0,0,0,2.69,3.14c-4.64,5.24-8.44,9.4-10.86,12-12.69,13.79-18.2,18.83-20.37,28a33.13,33.13,0,0,0-.87,7A105.7,105.7,0,0,1,203,429.28a88.9,88.9,0,0,0-2,18.4c-.05,11.88,2.4,14,3.66,14.65a6.05,6.05,0,0,0,3.66.57,116.32,116.32,0,0,0-6.05,16.3c-4.55,15.8-4.5,28.25-4.37,39.2.27,22.75,4.65,30,6.87,33.16a36.75,36.75,0,0,0,3.63,4.37,17.44,17.44,0,0,0,18-1.47,47.31,47.31,0,0,0-.19,17.22c.56,3.23,5.14,27.2,20.11,29.65,10.75,1.76,24.32-8,29.1-24.62-2.19,7.35-1.53,13.91,1.32,15.7a20.31,20.31,0,0,0,5.68,1.94,8.34,8.34,0,0,0,2.6.3c3.61-.42,5.73-5.79,6-6.57,2.15-5.41,0-8.07,1.83-14.75A27.19,27.19,0,0,1,295,567.8c4,7.18,11.44,11.65,19.24,11.45,11.5-.3,17.44-10.59,18.55-12.51,5.78-10,2.57-20.19,2-21.86a25.42,25.42,0,0,0,8.73-8.74A26.63,26.63,0,0,0,346.36,517a6.57,6.57,0,0,0,3.36,2.88,5.48,5.48,0,0,0,2.82.22c3.74-1.11,2.37-18.34,1.14-35.78,0,0-1.58-22.49-.79-22.54.11,0-.26,3.91,2.22,6.67,1.47,1.64,4.14,3.09,6.46,2.34,2.48-.8,3.44-3.62,3.73-4.48,1.45-4.31-.42-8.43-1.76-11.57-2.52-6-4-12.35-6.48-18.32-2.22-5.29-5.24-12.91-8.45-22.53.44.55,2.9,3.53,6.49,3.43a7.57,7.57,0,0,0,4-1.44c3.64-2.75,2.67-12.38-1.75-23.69,1.94.3,4.36.34,5.76-1.1,3.28-3.34-1.06-12.49-5.19-20.87-4.7-9.53-11.21-22.31-19.6-37.55Z" transform="translate(-13.03 -203.23)"/><path class="cls-3" d="M212.36,392.86A172.65,172.65,0,0,0,202,429a176.4,176.4,0,0,0-2.21,18.76c-.31,5-1.18,11.84,3.75,15a6.65,6.65,0,0,0,7.7-.63c2.44-1.86,3.6-4.75,4.68-7.52.51-1.31-1.6-1.88-2.11-.58-.9,2.32-1.89,4.93-4,6.45a4.46,4.46,0,0,1-6.3-.61c-1.75-2.07-1.84-4.95-1.77-7.53.07-2.78.26-5.56.49-8.33a171,171,0,0,1,6.07-32.82,174.77,174.77,0,0,1,6.2-17.78c.53-1.3-1.58-1.86-2.11-.58Z" transform="translate(-13.03 -203.23)"/><path class="cls-3" d="M205.83,462.77a174.7,174.7,0,0,0-9.24,56.89q0,7.11.67,14.2a52.59,52.59,0,0,0,2,10.92c2,6.45,6.41,12.72,13.52,13.87s14.86-2.66,17.72-9.48c.54-1.29-1.57-1.86-2.11-.58-2.33,5.57-8.85,8.73-14.71,8-7-.87-10.89-7.22-12.62-13.43a56.24,56.24,0,0,1-1.68-10.4q-.54-6.66-.57-13.34a171.52,171.52,0,0,1,9.16-56.07c.45-1.33-1.66-1.9-2.11-.58Z" transform="translate(-13.03 -203.23)"/><path class="cls-3" d="M224.17,555.31A65.75,65.75,0,0,0,226,575.94a55.35,55.35,0,0,0,7.91,18.36c3.45,4.88,8.36,8.23,14.47,8.26,5.88,0,11.55-2.66,15.83-6.59,5.38-5,8.81-11.56,12.11-18,.64-1.25-1.25-2.36-1.89-1.1-5.11,10-11.57,22-24,23.38-5.92.67-11-2-14.41-6.75a51.68,51.68,0,0,1-7.52-16.65,63.52,63.52,0,0,1-2.1-21.56c.1-1.41-2.09-1.4-2.19,0Z" transform="translate(-13.03 -203.23)"/><path class="cls-3" d="M274,576.66c-.8,4-1.67,8.39-.36,12.42,1,3.08,3.26,6,6.47,6.9s6.81-.54,9.13-3c2.71-2.85,3.66-6.74,4.11-10.54.55-4.75.29-9.77,2.59-14.12.66-1.25-1.23-2.35-1.89-1.11-2.1,4-2.32,8.44-2.66,12.83s-1,9.21-4.54,12.18a6.48,6.48,0,0,1-10.07-1.56c-2.54-4.05-1.55-9.06-.67-13.46.27-1.37-1.83-2-2.11-.58Z" transform="translate(-13.03 -203.23)"/><path class="cls-3" d="M293.9,565.73c2.27,9.08,11.72,15.1,20.89,14.24,10-1,18.07-8.45,21.19-17.74a34.61,34.61,0,0,0,.8-18c-.29-1.38-2.4-.8-2.11.58,1.91,9.21.17,19.57-6.68,26.41-6.17,6.17-15.68,8.7-23.6,4.37A16.82,16.82,0,0,1,296,565.15a1.09,1.09,0,0,0-2.1.58Z" transform="translate(-13.03 -203.23)"/><path class="cls-3" d="M337.09,544.71a27.93,27.93,0,0,0,10.5-30.07,1.1,1.1,0,0,0-2.11.58,25.68,25.68,0,0,1-9.5,27.6c-1.13.81,0,2.71,1.11,1.89Z" transform="translate(-13.03 -203.23)"/><path class="cls-3" d="M336.16,387.92q8.91,18.94,16.37,38.52,3.74,9.74,7.14,19.57,1.68,4.88,3.3,9.76c1,3.09,2.42,6.61,1.5,9.9-.84,3-3.73,5.26-6.76,3.57-3.29-1.84-3.82-6.06-4.28-9.43-.19-1.39-2.29-.8-2.11.58.46,3.35,1.05,7,3.58,9.44a6.73,6.73,0,0,0,7.62,1.6,8.39,8.39,0,0,0,4.31-6.51c.46-3.65-.92-7.23-2.05-10.64q-7.32-22-16.17-43.55-5-12.08-10.56-23.91c-.6-1.28-2.48-.17-1.89,1.1Z" transform="translate(-13.03 -203.23)"/><path class="cls-3" d="M352.39,467.13A158,158,0,0,1,354,492.85c0,4.31-.19,8.63-.39,12.95q-.15,3.17-.33,6.35a24.63,24.63,0,0,1-.49,5.63c-.62,2.06-2.71,2.2-4.15.82s-1.55-4-1.62-6c-.05-1.4-2.24-1.41-2.18,0,.13,3.63.87,8.28,5.2,9a4.1,4.1,0,0,0,4.18-1.77c1.1-1.68,1-3.87,1.14-5.79.56-10.16,1.08-20.35.73-30.53a144.88,144.88,0,0,0-1.56-17c-.21-1.39-2.32-.8-2.11.58Z" transform="translate(-13.03 -203.23)"/><rect class="cls-3" x="276.08" y="380.09" width="16.9" height="26.12" rx="8.45" transform="translate(-66.08 -158.73) rotate(-8.18)"/><path class="cls-3" d="M228.18,328.89a119.77,119.77,0,0,0-7.35,23.55c-1.54,7.64-2.69,15.77-2.25,23.58a20.39,20.39,0,0,0,2.68,9.81,14.72,14.72,0,0,0,7.18,5.74c6.52,2.57,14.11,1.73,20.94,1.58L302.89,392c6.22-.14,12.68-.41,18.47-2.89a16.28,16.28,0,0,0,10.23-14.21,44.13,44.13,0,0,0-1.14-11.39q-1.2-6.24-2.8-12.38a192.51,192.51,0,0,0-7.9-23.85q-1.15-2.85-2.39-5.67c-.57-1.29-2.45-.18-1.89,1.1a194.39,194.39,0,0,1,8.24,22.44,163.93,163.93,0,0,1,5.35,23.05c.52,3.52.71,7.24-.43,10.67a13.11,13.11,0,0,1-5.37,6.78c-4.83,3.13-10.95,3.8-16.57,4.05-8,.36-16,.37-24,.54l-25.39.54-12.44.26a75.91,75.91,0,0,1-9.89-.19,19,19,0,0,1-8.63-2.81,12.71,12.71,0,0,1-5-7.85,37,37,0,0,1-.51-10.35A113.21,113.21,0,0,1,222,358.24a117.36,117.36,0,0,1,5.87-22.73q1-2.79,2.19-5.52c.54-1.28-1.34-2.39-1.89-1.1Z" transform="translate(-13.03 -203.23)"/><path class="cls-3" d="M328.86,320.31a278.93,278.93,0,0,1,19,31.29q4.28,8.23,8,16.73a165.28,165.28,0,0,1,6.65,16.75,7,7,0,0,1,.34,4.36,3,3,0,0,1-3.33,1.8c-3.18-.38-4.78-3.65-6.06-6.19-.64-1.25-2.53-.15-1.89,1.1,1.27,2.52,2.76,5.31,5.42,6.58,2.15,1,5,1,6.8-.76,2-2,1.6-5,.83-7.47-1-3.23-2.35-6.38-3.61-9.51a280.66,280.66,0,0,0-17.8-36.37q-5.82-10-12.43-19.42c-.8-1.14-2.7-.05-1.89,1.11Z" transform="translate(-13.03 -203.23)"/><path class="cls-3" d="M355.67,391.33c1.78,6.08,5.95,12,5.07,18.6a7.9,7.9,0,0,1-4.15,6.34,5.55,5.55,0,0,1-6.44-.74c-1-1-2.52.54-1.54,1.55a7.4,7.4,0,0,0,7.5,1.7,9.38,9.38,0,0,0,6.18-6c2.77-7.64-2.44-15-4.51-22a1.09,1.09,0,0,0-2.11.58Z" transform="translate(-13.03 -203.23)"/><path class="cls-3" d="M278.6,395.8a127.08,127.08,0,0,0-30.85,43.36c-1.17,2.72-2.26,5.49-3.24,8.28a57.57,57.57,0,0,0-2.6,8.67c-.48,2.69-.23,5.82,2.31,7.4,2,1.22,4.77,1.09,6.06-1a1.1,1.1,0,0,0-1.89-1.11c-1.16,1.92-3.83.05-4.3-1.45-.8-2.56.47-5.57,1.24-8A121.38,121.38,0,0,1,251,437.27a125.55,125.55,0,0,1,16.76-26.84,126.88,126.88,0,0,1,12.41-13.09c1-.95-.51-2.49-1.55-1.54Z" transform="translate(-13.03 -203.23)"/><path class="cls-3" d="M251.62,457.38a101.16,101.16,0,0,0-10.79,47.16,99.82,99.82,0,0,0,1,12.09c.46,3.3.79,7.15,2.68,10a5.76,5.76,0,0,0,7.51,2.23c3-1.52,4.68-4.92,6-7.88a181.18,181.18,0,0,0,9.7-27.95,1.09,1.09,0,0,0-2.11-.58,180.46,180.46,0,0,1-7.55,22.9c-1.34,3.27-2.56,7-4.88,9.76a5.45,5.45,0,0,1-3.5,2.21,3.77,3.77,0,0,1-3.43-2.07c-1.61-2.66-1.87-6.2-2.29-9.21a97,97,0,0,1-.88-11.29,99.54,99.54,0,0,1,2.11-22.38,98.14,98.14,0,0,1,8.37-23.89c.64-1.26-1.25-2.36-1.88-1.11Z" transform="translate(-13.03 -203.23)"/><path class="cls-3" d="M266.67,486.42c-1,2.07-2,4.4-1.37,6.73a4.5,4.5,0,0,0,4.1,3.51c4.46,0,5.63-6.36,6.55-9.58a185.41,185.41,0,0,0,6.29-32.94,187.16,187.16,0,0,0,.89-19.24,1.1,1.1,0,0,0-2.19,0,183.21,183.21,0,0,1-2.1,28.85c-.73,4.7-1.63,9.38-2.72,14-.54,2.31-1.13,4.62-1.76,6.91a63.26,63.26,0,0,1-2,6.63c-.54,1.37-1.95,4-3.81,2.92-2.39-1.43-.86-4.86,0-6.7.59-1.26-1.29-2.38-1.89-1.1Z" transform="translate(-13.03 -203.23)"/><path class="cls-3" d="M289.88,394.39c15.53,12.82,22.13,32.72,27.65,51.39.83,2.79,2.28,6.29.75,9.08-.58,1.07-1.81,2.22-3.14,1.89-1.06-.27-2.1-1.54-1.51-2.62.67-1.23-1.21-2.34-1.89-1.1a4.1,4.1,0,0,0,2.26,5.62c2.31,1,4.75-.41,6-2.39,1.67-2.63,1.14-5.82.35-8.66s-1.65-5.64-2.53-8.44c-3.44-11.07-7.47-22.16-13.79-32a62.62,62.62,0,0,0-12.6-14.37c-1.07-.89-2.63.65-1.54,1.55Z" transform="translate(-13.03 -203.23)"/><path class="cls-3" d="M291.18,432.1a149.94,149.94,0,0,0-6.53,53.52c.3,5,.16,11.59,4.44,15.06a6.32,6.32,0,0,0,6.83,1.09,5.15,5.15,0,0,0,2.8-5.86,1.09,1.09,0,0,0-2.1.58c.56,2-1.48,3.82-3.42,3.68-2.29-.17-4.05-2.15-4.86-4.15a24.66,24.66,0,0,1-1.28-7.34c-.21-2.59-.36-5.19-.43-7.79a147.46,147.46,0,0,1,6.66-48.21c.42-1.34-1.69-1.92-2.11-.58Z" transform="translate(-13.03 -203.23)"/><path class="cls-3" d="M295.79,500a30.41,30.41,0,0,0,2.64,19.67c1.23,2.43,3.06,5.11,5.88,5.79a6.3,6.3,0,0,0,6.31-2.41c1.87-2.24,2.75-5,3.56-7.77q1.57-5.4,2.71-10.92a143.38,143.38,0,0,0,2.77-21.66,141.24,141.24,0,0,0-1-25.26c-.18-1.38-2.37-1.39-2.19,0a141,141,0,0,1-.52,39.89,127.71,127.71,0,0,1-4.53,19.48c-.7,2.17-1.78,4.72-3.76,6-2.42,1.58-4.82-.21-6.2-2.25-3.86-5.68-4.89-13.35-3.57-20,.28-1.37-1.83-2-2.11-.58Z" transform="translate(-13.03 -203.23)"/><path class="cls-3" d="M244.24,362.37a24.21,24.21,0,0,1,8.38,1.1,7.68,7.68,0,0,1,4.8,5,3.84,3.84,0,0,1-2,4.6c-1.45.74-3.36.58-4.06-1.09a4.63,4.63,0,0,1,.31-3.46,15.26,15.26,0,0,1,2.35-3.7,1.13,1.13,0,0,0,0-1.55,1.11,1.11,0,0,0-1.55,0c-1.91,2.32-4,5.4-3.41,8.56a4.76,4.76,0,0,0,5.82,3.73,6.14,6.14,0,0,0,4.9-5.36c.28-3.09-1.7-5.95-4.16-7.62-3.28-2.23-7.53-2.32-11.34-2.38a1.1,1.1,0,0,0,0,2.19Z" transform="translate(-13.03 -203.23)"/><path class="cls-3" d="M292,362.78a24.45,24.45,0,0,1,8.38,1.1,7.68,7.68,0,0,1,4.8,5,3.84,3.84,0,0,1-2,4.6c-1.45.74-3.36.58-4.05-1.09a4.58,4.58,0,0,1,.3-3.46,15.26,15.26,0,0,1,2.35-3.7,1.13,1.13,0,0,0,0-1.55,1.11,1.11,0,0,0-1.55,0c-1.91,2.32-4,5.4-3.41,8.56a4.76,4.76,0,0,0,5.82,3.73,6.13,6.13,0,0,0,4.9-5.36c.28-3.09-1.7-5.95-4.16-7.62-3.28-2.23-7.53-2.32-11.34-2.38a1.1,1.1,0,0,0,0,2.19Z" transform="translate(-13.03 -203.23)"/><rect class="cls-3" x="166.67" y="303.29" width="199.16" height="33.2" rx="14.55" transform="matrix(1, -0.05, 0.05, 1, -29.77, -188.52)"/><path class="cls-3" d="M204.73,361.25a60,60,0,0,1-17.33-7.48,49.85,49.85,0,0,1-10.17-8.26,49,49,0,0,1-7.32-10.15c2.24-2,19.68-17.41,39.68-13.89,0,0,12.17,1.68,23.89,13.8,1.33,1.37-18.52-7.36-23.89,2.73-1.15,2.16-1.83,5.45-3,11.08A116.1,116.1,0,0,0,204.73,361.25Z" transform="translate(-13.03 -203.23)"/><path class="cls-3" d="M200.51,428.81a101.89,101.89,0,0,0-36.83,20.91,140,140,0,0,0-27.51,33.37,195.64,195.64,0,0,0-19,43.57,325.53,325.53,0,0,0-10.85,50.67c-2.41,17.18-3.9,34.48-5.27,51.78-.16,2.11-.33,4.23-.49,6.34-.11,1.41,2.08,1.4,2.19,0,1.32-17,2.67-34.09,4.82-51.06a354.12,354.12,0,0,1,9.67-50.22A205.74,205.74,0,0,1,135,489.48a144.71,144.71,0,0,1,25.79-34.14,102.65,102.65,0,0,1,35.3-22.74c1.65-.61,3.32-1.16,5-1.68,1.34-.41.77-2.52-.58-2.11Z" transform="translate(-13.03 -203.23)"/><path class="cls-3" d="M207.3,339.52A105.16,105.16,0,0,1,202.11,367,103.11,103.11,0,0,1,196.8,380c-2,4.12-4.5,8-6.34,12.23-1.94,4.4-3.12,9.23-1.48,13.92.46,1.32,2.57.75,2.11-.58-1.53-4.34-.32-8.79,1.53-12.84s4.29-8,6.27-12a107.45,107.45,0,0,0,10.6-41.19c.08-1.41-2.11-1.41-2.19,0Z" transform="translate(-13.03 -203.23)"/><path class="cls-3" d="M197.83,398.37l-19,22.44c-3.12,3.68-6.27,7.33-9.35,11a67.35,67.35,0,0,0-7.13,9.9,27.29,27.29,0,0,0-3.78,12.69,1.1,1.1,0,0,0,2.19,0c.19-8.14,5.26-15,10.26-21.05,5.9-7.09,11.94-14.08,17.91-21.11l10.48-12.36c.91-1.07-.63-2.62-1.54-1.55Z" transform="translate(-13.03 -203.23)"/><path class="cls-3" d="M321.47,311l21.95,30.28,18.11-13.53Z" transform="translate(-13.03 -203.23)"/><path class="cls-3" d="M148.29,231.16c-3.23-6.73,4.65-17.52,6.16-18.09,21.94-8.24,66.23-19.27,106.91,4.72C285.33,231.94,298,252.32,304,264c.14.28.3.56.46.83,7,11.36,13.46,24.89,28.3,31.15,11.89,5,22.76,2.41,22.79,2.83.13,1.64-169.57,12.5-169.82,9.11-.07-1.08,17.27-1,25.6-13.25,1.83-2.7,2.47-5.15,4-9.83,3-8.88,5.66-22.28,3.95-28.68-2.73-10.18-23-12.59-59.61-18.94C156.7,236.65,150.43,235.6,148.29,231.16Z" transform="translate(-13.03 -203.23)"/><path class="cls-4" d="M105.14,618.74c.07,4.84.59,11.21,4.56,17.44a29.66,29.66,0,0,0,10.18,9.63,61.88,61.88,0,0,0,19.87-1.09c8.12-1.82,15.42-5.24,33.21-18.19,8.22-6,20.5-14.94,29.66-23.45,36.64-34,66.26-100.88,67.83-104.48a105.06,105.06,0,0,1-28.71-23.13,344.89,344.89,0,0,1-43.68,54.58,345.32,345.32,0,0,1-45.23,38.7c-4-3.8-17.78-16.47-29.83-12.91C104.32,561.37,104.89,601.41,105.14,618.74Z" transform="translate(-13.03 -203.23)"/><path class="cls-2" d="M244.82,478.85a170.63,170.63,0,0,0,10.12-14.2,29.84,29.84,0,0,0,3.85-7.61,26.9,26.9,0,0,0,.78-11.55c-.92-7.93-4.82-18.32-3.75-21.18.05-.12.88-2.31.88-2.31a5.49,5.49,0,0,1,3.74-1.84c2.6,0,4.37,2.69,9.24,9.66,1.52,2.18,3.4,4.87,5.58,7.94a70.49,70.49,0,0,0,9-7.47c3.55-3.46,9.46-9.23,13-17.31.92-2.11,2-4.15,3-6.23,2.29-4.92,3-6.66,4.69-7.27a5.78,5.78,0,0,1,5.11,1.14c5.17,4.46-4.29,23.86-7.82,30.72a7,7,0,0,1,7.63,11,8.46,8.46,0,0,1,3.27,6.36,8,8,0,0,1-1.6,4.8,5.92,5.92,0,0,1,4,3.54,5.72,5.72,0,0,1-1.83,6.24c-18.69,17.42-27.3,23.34-30.8,23.85l-.68.1a26,26,0,0,0-10.71,5.15,24,24,0,0,0-4.53,5.12c-3.49-2.47-7.16-5.25-10.92-8.38C251.88,485.61,248.14,482.16,244.82,478.85Z" transform="translate(-13.03 -203.23)"/><path class="cls-3" d="M303.12,432.16a6.28,6.28,0,0,1,6.1,2.67,6.2,6.2,0,0,1-.29,6.92,1.11,1.11,0,0,0,.39,1.5,6.82,6.82,0,0,1,1.45,9.44,1.11,1.11,0,0,0,.77,1.87c1.68,0,2.74,1.55,3,3.08.35,1.9-.68,3.71-1.86,5.12a44,44,0,0,1-4.23,4.08l-5.54,5c-3.27,3-6.47,6.08-9.92,8.85-3.26,2.62-6.89,4.79-11.08,5.42-1.39.21-.8,2.32.58,2.11,7.63-1.15,13.37-7,18.83-12l10.15-9.23c2.36-2.16,5-4.73,5.31-8.11.25-3.13-1.9-6.55-5.26-6.57l.77,1.87a9,9,0,0,0-1.89-12.88l.4,1.5a8.18,8.18,0,0,0-7.7-12.89c-1.38.17-1.4,2.36,0,2.19Z" transform="translate(-13.03 -203.23)"/><path class="cls-3" d="M282.59,486a23,23,0,0,0-15.91,10.37c-.76,1.19,1.13,2.29,1.89,1.11a20.89,20.89,0,0,1,14.6-9.37,1.09,1.09,0,0,0,.76-1.34,1.12,1.12,0,0,0-1.34-.77Z" transform="translate(-13.03 -203.23)"/><path class="cls-3" d="M258.36,460.63A30,30,0,0,0,260.89,448a54,54,0,0,0-1.2-8.31c-.48-2.45-1-4.89-1.68-7.3-.58-2.23-1.44-4.43-1.27-6.78.16-2.1,1.44-5.13,4.05-4.85,2.13.22,3.54,2.88,4.59,4.47q4.53,6.79,8.67,13.83a1.09,1.09,0,0,0,1.88-1.1q-4.06-6.88-8.48-13.57c-1.23-1.84-2.48-4-4.46-5.14a5,5,0,0,0-5.79.57c-4.37,3.58-2.22,9.54-1.06,14.05a104.45,104.45,0,0,1,2.37,11.88,27.62,27.62,0,0,1-2.26,14.31c-.54,1.3,1.57,1.87,2.11.58Z" transform="translate(-13.03 -203.23)"/><path class="cls-3" d="M275.81,438.7A72.86,72.86,0,0,0,299,412c1.29-2.55,2.29-5.19,3.43-7.81,1-2.37,3.05-5.17,5.92-3.38s2.79,5.52,2,8.47a81.56,81.56,0,0,1-3.48,9.52,149.35,149.35,0,0,1-10.74,21.09A1.1,1.1,0,0,0,298,441a152.77,152.77,0,0,0,10.32-20.08,108.61,108.61,0,0,0,3.86-10.18c1-3.17,1.49-6.89-.56-9.77-1.53-2.14-4.24-3.57-6.85-2.62s-3.79,3.6-4.74,6a74.44,74.44,0,0,1-9.44,17.09,70,70,0,0,1-15.91,15.39c-1.14.8,0,2.7,1.1,1.89Z" transform="translate(-13.03 -203.23)"/><path class="cls-3" d="M256.36,459.79l-12,16.7c-.82,1.15,1.07,2.24,1.89,1.11q6-8.36,12-16.7c.82-1.15-1.08-2.24-1.89-1.11Z" transform="translate(-13.03 -203.23)"/><path class="cls-3" d="M240.87,476.13a83.87,83.87,0,0,0,28.19,23c1.26.63,2.37-1.25,1.11-1.88a82.37,82.37,0,0,1-27.75-22.67c-.87-1.1-2.41.46-1.55,1.55Z" transform="translate(-13.03 -203.23)"/><path class="cls-3" d="M268.74,498.07a315.16,315.16,0,0,1-19.13,41.33,282,282,0,0,1-25.29,38.08,244.74,244.74,0,0,1-31,32.68A200.1,200.1,0,0,1,156,636.22a87.72,87.72,0,0,1-20.12,7.63c-5.23,1.28-10.57,2.72-15.84.77-6.48-2.4-9.7-9.23-11.36-15.47-2.32-8.67-2.48-17.88-2.15-26.8a254.15,254.15,0,0,1,3.27-30.89c1.48-9.19,3.3-18.32,5.36-27.4,1.29-5.63,2.66-11.25,4.16-16.83.16-.56.31-1.13.47-1.69a1.1,1.1,0,0,0-2.11-.59c-1.25,4.51-2.39,9-3.47,13.59-2.08,8.7-3.93,17.47-5.49,26.29a298.11,298.11,0,0,0-4,31.36c-.66,9.59-.8,19.38.88,28.88,1.21,6.86,3.57,14.49,9.23,19,4.17,3.33,9.46,4.17,14.67,3.45,2.29-.32,4.51-1,6.76-1.51,2.67-.64,5.3-1.43,7.9-2.32a111.75,111.75,0,0,0,22.41-11.07,213.48,213.48,0,0,0,18.71-13,236,236,0,0,0,33.29-31.7,276.55,276.55,0,0,0,27.15-37.37,310.69,310.69,0,0,0,21-41.33q2.19-5.24,4.2-10.54c.5-1.32-1.62-1.89-2.11-.58Z" transform="translate(-13.03 -203.23)"/><path class="cls-3" d="M240.7,474.81a338.45,338.45,0,0,1-30.3,40.31,342,342,0,0,1-35.65,35.16q-10.86,9.24-22.47,17.53c-1.14.81-.05,2.71,1.1,1.89a342.4,342.4,0,0,0,39-32.49,343.43,343.43,0,0,0,33.65-37.75q8.76-11.41,16.54-23.55c.76-1.19-1.13-2.29-1.89-1.1Z" transform="translate(-13.03 -203.23)"/><path class="cls-3" d="M166.27,559.35a198.24,198.24,0,0,0,21.42-33.16c.64-1.25-1.24-2.36-1.88-1.1a196,196,0,0,1-21.09,32.71c-.87,1.09.67,2.65,1.55,1.55Z" transform="translate(-13.03 -203.23)"/><path class="cls-3" d="M274.5,420.12l14.07-6a1.09,1.09,0,0,0-1.1-1.89l-14.07,6a1.09,1.09,0,0,0-.39,1.49,1.11,1.11,0,0,0,1.49.39Z" transform="translate(-13.03 -203.23)"/><path class="cls-3" d="M244.18,347.89l10.72,2.68a1.09,1.09,0,0,0,.58-2.11l-10.71-2.68a1.1,1.1,0,0,0-.59,2.11Z" transform="translate(-13.03 -203.23)"/><path class="cls-3" d="M293.67,353.24l12.73-4c1.33-.43.76-2.54-.58-2.11l-12.73,4c-1.34.42-.77,2.53.58,2.1Z" transform="translate(-13.03 -203.23)"/><ellipse class="cls-5" cx="474.53" cy="139.63" rx="79.15" ry="79.66"/><path class="cls-4" d="M436.37,337.65c-.19-2.92-1.34-3.92-1.5-6.59-.28-4.64-.33-7-1.19-8.37s-2.4-2.45-2.86-4.05c-.58-2,.64-4,1.21-6,1.52-5.28-1.48-11.54,1.44-16.17,1.48-2.35,4.13-3.62,6.59-4.87,5.21-2.64,6.09-4,6.18-5.29.18-2.78-5.73-5.26-7.67-6a98.73,98.73,0,0,1,22.29-12.44c-3,2.32-3.41,4.07-3.34,5.17.16,2.42,2,5.14,10.43,9.72,2.26,1.23,5.12,2.86,4.8,5.42-.34,2.81-4,3.47-6.62,4.41a8.56,8.56,0,0,0-5.65,5.69c-.65,2.72.94,6,3.66,6.57a6.92,6.92,0,0,1,2.29-5.25c1.56-1.19,4.17-1.06,5.16.65,1.44,2.49-1.33,5.89,0,8.42.61,1.14,1.94,1.78,2.45,3a3.51,3.51,0,0,1-1.54,4,10.13,10.13,0,0,1-4.44,1.29l-9.9,1.27c-2.77.36-5.72.69-8.27-.47-2.2-1-4-3.07-6.37-3.37-2.74-.35-5.31,1.9-6.12,4.56s-.21,5.54.78,8.13l3.48-.24c-1.61,1.24-3.35,2.66-3.72,4.67s1.65,4.39,3.48,3.51c.7-.34,1.38-1.1,2.1-.81,1,.4.41,1.94-.44,2.58s-2,1.41-1.71,2.44c.4,1.41,2.47.76,3.92.68,2.93-.17,4.72,3.11,5.76,5.87l5.31,14a5.21,5.21,0,0,1,.49,2.18c-.16,2.56-3.44,3.36-5.93,3.9a23.46,23.46,0,0,0-17.89,21c-3.12-1.29-4.31-5.23-4-8.62.35-3.84,2.05-7.4,3.72-10.87.48-1,1-2,1.43-3a13,13,0,0,0,1.63-5c.15-3.18-1.94-6-3.26-8.85s-1.57-7,1.17-8.61c.58-.34,1.07-.06,1.69-.55C436.37,340.73,436.48,339.26,436.37,337.65Z" transform="translate(-13.03 -203.23)"/><path class="cls-3" d="M437.42,337.65a16.12,16.12,0,0,0-.85-3.82,14.89,14.89,0,0,1-.74-4.14,25.45,25.45,0,0,0-.73-6.4c-.71-2.15-3.42-3.48-3.39-5.85,0-1.49.85-2.92,1.27-4.32a14.71,14.71,0,0,0,.55-4.38c0-2.77-.59-5.57-.28-8.34.36-3.17,2.3-5.16,5-6.67a53.68,53.68,0,0,0,6.79-3.89,5.31,5.31,0,0,0,2.18-2.94c.9-4.09-5.48-6.49-8.36-7.62l.25,1.91a99.86,99.86,0,0,1,22.05-12.34l-1-1.74c-2.31,1.85-4.39,4.38-3.36,7.47.88,2.66,3.4,4.54,5.62,6.05s4.34,2.53,6.49,3.84c1.43.86,3.79,2.55,2.5,4.48-1,1.53-3.47,1.91-5.09,2.46A11.14,11.14,0,0,0,461,295c-2.78,3.54-2,9.65,2.88,10.89a1.06,1.06,0,0,0,1.32-1c.14-2.13,1.11-5.08,3.74-5s2,2.86,1.64,4.62c-.44,1.94-.64,3.88.73,5.5.63.75,1.78,1.42,1.92,2.47.19,1.47-1.25,2.52-2.46,2.93-2.68.89-5.8.93-8.59,1.29a52,52,0,0,1-8.62.83c-2.71-.12-4.46-1.52-6.65-2.9a6.57,6.57,0,0,0-6-.89c-5.61,2.19-5.41,8.93-3.67,13.64a1.08,1.08,0,0,0,1,.77l3.48-.25-.53-1.94c-2.15,1.66-4.95,4-4.14,7.13a4.53,4.53,0,0,0,2.19,2.83,3.42,3.42,0,0,0,3.66-.53L443,335a1.24,1.24,0,0,1-.21.58,3,3,0,0,1-.76.7,5.44,5.44,0,0,0-1.32,1.3,2.29,2.29,0,0,0,.53,3.14c.92.65,2.15.44,3.19.32a3.62,3.62,0,0,1,3.61,1.32,12.66,12.66,0,0,1,2,3.7c.76,1.95,1.49,3.92,2.23,5.89l1.88,5c.35.9.69,1.81,1,2.71s.91,2,.47,2.93c-.53,1.11-2.05,1.56-3.13,1.87-1.42.4-2.87.64-4.27,1.12a24,24,0,0,0-7.51,4.3A24.55,24.55,0,0,0,432,386.91l1.58-.9c-3-1.35-3.78-4.94-3.47-7.94.45-4.28,2.63-8.21,4.47-12a21.5,21.5,0,0,0,2.15-5.43,9.51,9.51,0,0,0-.73-5.39c-1.27-3.11-3.73-6-3.32-9.57a3.87,3.87,0,0,1,.95-2.25c.66-.69,1.56-.52,2.32-1,1.49-1,1.53-3.1,1.45-4.72-.07-1.34-2.17-1.35-2.09,0a5,5,0,0,1-.24,2.61c-.38.65-1.62.66-2.26,1.11a5.45,5.45,0,0,0-2.12,3.56c-.65,3.63,1.23,6.67,2.79,9.78,1,2,1.65,4,1,6.21a37.49,37.49,0,0,1-2.76,6.18c-1.79,3.71-3.67,7.65-3.8,11.85-.11,3.45,1.22,7.36,4.56,8.86a1.06,1.06,0,0,0,1.57-.9,22.4,22.4,0,0,1,7.61-15.13,21.42,21.42,0,0,1,7.46-4.33c2.4-.79,5.22-.91,7.24-2.58,2.7-2.23,1-5.42,0-8.07-1.37-3.62-2.73-7.24-4.11-10.86-.9-2.37-2-5.14-4.36-6.46a5.07,5.07,0,0,0-3.15-.59,8.29,8.29,0,0,1-1.79.17c-1.1-.1-.06-.82.41-1.2a3.54,3.54,0,0,0,1.71-3.13,2,2,0,0,0-3-1.35c-.59.29-1.11.92-1.82.7a2.29,2.29,0,0,1-1.31-1.95c-.12-1.88,1.92-3.39,3.24-4.41.72-.56.63-2-.53-2l-3.48.25,1,.76c-1-2.8-1.86-6.27-.12-9a4.52,4.52,0,0,1,6.57-1.5c2.25,1.36,4.05,2.85,6.77,3.19,3.21.39,6.54-.33,9.71-.74l4.46-.57a24.63,24.63,0,0,0,4.68-.8c2.19-.73,4.22-2.58,4-5.08a4.58,4.58,0,0,0-1.55-2.8c-1-1-1.63-1.79-1.42-3.33.28-2.05,1.28-4.17.3-6.19-1.06-2.18-3.85-2.72-5.93-1.77-2.53,1.16-3.45,4.05-3.62,6.62l1.33-1a4.31,4.31,0,0,1-3-4.27,6.37,6.37,0,0,1,3.3-5.13c2.76-1.71,7.52-1.64,8.86-5.15,1.53-4-3.11-6.34-5.91-7.9s-6.28-3.38-8.2-6.13a4.43,4.43,0,0,1-.86-2.3c-.05-1.85,1.73-3.31,3-4.36a1,1,0,0,0-1-1.74A101.41,101.41,0,0,0,438,279.39a1.06,1.06,0,0,0,.25,1.91c1.73.68,7.94,3.09,6.78,5.48-.64,1.31-2.38,2.19-3.6,2.89-2.36,1.34-4.93,2.33-7,4.11-4.46,3.8-3.14,9.43-3,14.56a13.58,13.58,0,0,1-.41,4,31.15,31.15,0,0,0-1.35,4.41c-.35,2.76,1.44,4.12,2.9,6.15,1.16,1.61,1,4.05,1.11,5.93a21.17,21.17,0,0,0,.56,4.63,21.3,21.3,0,0,1,1.08,4.17C435.44,339,437.53,339,437.42,337.65Z" transform="translate(-13.03 -203.23)"/><path class="cls-4" d="M480.35,309.13c-.1-.14,1.5-1,1.5-2.24,0-.88-.54-1.29-1.59-2.65a3.57,3.57,0,0,1-1-2.85c.41-1.74,2.85-2.25,3.46-3.93.86-2.36-2.53-4.85-1.47-7.13a2.76,2.76,0,0,1,2.33-1.44,8,8,0,0,1,2.82.44,34.46,34.46,0,0,1,9.71,4c1.22.82,2.43,1.94,2.56,3.41.15,1.69-1.41,3-1.79,3.38a7.4,7.4,0,0,1-3.6,1.68C487.17,303,480.56,309.43,480.35,309.13Z" transform="translate(-13.03 -203.23)"/><path class="cls-3" d="M481.39,309.13c0,.88-.39.64,0,.42a2.08,2.08,0,0,0,.41-.37,4.29,4.29,0,0,0,.81-1.09,2.83,2.83,0,0,0-.1-2.61c-.53-1-1.42-1.67-1.93-2.64-.65-1.24.07-1.9,1-2.61,1.63-1.25,2.81-2.66,2.17-4.84a18.13,18.13,0,0,0-1.12-2.51c-.37-.76-.85-1.8-.1-2.49,1-.89,2.55-.35,3.63-.05,1.47.42,2.93.86,4.37,1.39a25.08,25.08,0,0,1,3.59,1.61,8.88,8.88,0,0,1,3.08,2.34c1.35,1.91-.79,3.88-2.45,4.62a13.27,13.27,0,0,1-2.24.62,17.33,17.33,0,0,0-3.19,1.14,33.58,33.58,0,0,0-6.16,3.73c-.74.54-1.47,1.11-2.2,1.68l-.67.5c-.59.47,0-.16.58.26-1.11-.76-2.15,1-1.05,1.8s2.48-1,3.15-1.5a42.62,42.62,0,0,1,6-4,18.27,18.27,0,0,1,3.59-1.5,24.26,24.26,0,0,0,2.89-.8c2-.83,4.13-2.69,4.33-5,.24-2.9-2.66-4.76-4.88-5.93a40.29,40.29,0,0,0-8.85-3.24,5.67,5.67,0,0,0-4.3.28A3.33,3.33,0,0,0,480,291.3a7.14,7.14,0,0,0,1,3.09c.41.82,1.12,1.94.65,2.87s-1.88,1.54-2.62,2.41a3.48,3.48,0,0,0-.46,3.91,10.7,10.7,0,0,0,1.45,2.09c.29.35.78.8.72,1.31-.12.94-1.44,1.13-1.49,2.15C479.24,310.47,481.33,310.47,481.39,309.13Z" transform="translate(-13.03 -203.23)"/><path class="cls-4" d="M554.86,384.79c-8.85-5.19-10.42-8.58-10.15-10.73a18,18,0,0,0,.42-4.82c-.13-1.61-1.12-3.34-2.71-3.56-1.94-.27-3.38,1.7-4.34,3.41l-5.16,9.14c-1.56-4.23-.28-8.91.7-13.32s1.55-9.43-1.11-13.06a4.92,4.92,0,0,0-3-2.09,2.69,2.69,0,0,0-3,1.61c-.79,2.5,3,4.27,3.16,6.88.13,2.41-3.29,3.75-5.31,2.45s-2.64-4-2.39-6.45,1.15-4.7,1.43-7.11c-4.82,4.69-4.92,13.39-.21,18.19-.24,2.24-2.26,3.85-4.29,4.78s-4.29,1.46-6.06,2.82c-2.19,1.68-3.32,4.36-5,6.58-2.42,3.26-5.93,5.48-9.35,7.64q-4.19,2.61-8.35,5.24c-.86.53-2,1.05-2.78.38a2.16,2.16,0,0,1-.57-1.25c-.95-4.92,1.25-9.89,3.86-14.15s5.76-8.34,7-13.18,0-10.85-4.4-13.2c-2.31-1.24-5.29-1.37-7.06-3.32-2.66-2.94-.7-7.81,2.23-10.48A18.85,18.85,0,0,1,510,334.88a36.39,36.39,0,0,0,4.56,2.63,5.28,5.28,0,0,0,5-.3,3.66,3.66,0,1,0-5.73-3.72c-1.3.68-2.67-.89-3-2.32s-.45-3.15-1.68-4-2.7-.24-4.09-.17-3.16-1-2.63-2.32a2.35,2.35,0,0,1,1-1,31.66,31.66,0,0,1,20.48-5.3c7.39.67,14.28,3.94,21,7.23a29.61,29.61,0,0,1,8.13,5.18c2.54,2.51,2.86,4.35,5.16,5.9,2.83,1.9,6.25,1.88,9,1.45a89.28,89.28,0,0,1-12.24,46.63Z" transform="translate(-13.03 -203.23)"/><path class="cls-3" d="M555.39,383.89a34.07,34.07,0,0,1-7.74-5.73,6.32,6.32,0,0,1-1.92-3.5,16.7,16.7,0,0,1,.39-2.8,8.69,8.69,0,0,0-.49-4.74A4,4,0,0,0,539,366a22.12,22.12,0,0,0-3.32,5.15L532,377.7l1.91.25c-1.75-5.08.39-10.22,1.2-15.26.65-4.12.65-8.89-2.35-12.16a4.8,4.8,0,0,0-5-1.62,3.35,3.35,0,0,0-2.26,3.89c.37,1.66,1.78,2.77,2.65,4.15,1,1.55.23,3-1.62,3.2-2.41.24-3.43-2.55-3.51-4.5-.12-2.88,1.1-5.68,1.47-8.51.12-.93-1.2-1.32-1.78-.74a14.46,14.46,0,0,0-.21,19.67l-.27-1c-.45,2.94-3.47,4.05-5.9,5a13.27,13.27,0,0,0-6.47,4.64c-1.71,2.37-3,4.85-5.2,6.85a48.8,48.8,0,0,1-7,5l-4.17,2.62a36.43,36.43,0,0,1-4.37,2.7c-1,.43-1.15-.19-1.28-1a12.12,12.12,0,0,1-.09-2.33,16.07,16.07,0,0,1,1.05-4.84c2.06-5.69,6.34-10.2,8.77-15.71,1.95-4.44,2.56-9.69.1-14.08a9.71,9.71,0,0,0-5-4.32c-2.17-.87-5.24-1.2-6.26-3.64-.94-2.23.29-4.93,1.68-6.69a14.8,14.8,0,0,1,6.33-4.4,17.8,17.8,0,0,1,14.94.89c2.68,1.51,5.21,3.72,8.5,3.29a4.65,4.65,0,0,0,4.17-4.83,4.49,4.49,0,0,0-3.93-4.5,4.94,4.94,0,0,0-5.2,3.56l.73-.73c-1.35.53-1.78-1.72-2-2.61a5.78,5.78,0,0,0-1.47-3.19,4.06,4.06,0,0,0-3.15-.9c-.72.06-3.22.71-3.54-.43-.21-.77,2.58-2.06,3.19-2.39a29.15,29.15,0,0,1,4.2-1.86,30.5,30.5,0,0,1,8.81-1.75c6.28-.29,12.34,1.56,18,4.06,2.88,1.26,5.71,2.63,8.5,4.07a22.37,22.37,0,0,1,7,5.06c1.8,2.09,2.94,4.43,5.53,5.7a14.5,14.5,0,0,0,8.68.93l-1.32-1A89,89,0,0,1,554,384.26a1,1,0,0,0,1.8,1.06,91.1,91.1,0,0,0,12.38-47.16,1.05,1.05,0,0,0-1.32-1,12.16,12.16,0,0,1-7.08-.73c-2-1-3-2.68-4.31-4.39-3.09-4-7.64-6.15-12.11-8.32a68.6,68.6,0,0,0-14.69-5.61,33.27,33.27,0,0,0-14.89,0,32.89,32.89,0,0,0-6.82,2.4,30.06,30.06,0,0,0-3.15,1.74c-.89.56-2,1.17-2.35,2.22-.6,1.76,1,3.17,2.6,3.53a9.63,9.63,0,0,0,3-.1c1.48-.11,2.1.48,2.45,1.87.46,1.84.83,4.13,2.94,4.82a2.28,2.28,0,0,0,2.2-.33c.31-.3.33-.79.54-1.15a2.64,2.64,0,0,1,1.07-1,2.41,2.41,0,0,1,3.69,2.07c.13,2.65-2.66,3.17-4.7,2.48-2.33-.79-4.21-2.58-6.47-3.55a19.12,19.12,0,0,0-6-1.51,20.1,20.1,0,0,0-12.27,2.85c-3.36,2.08-6.41,5.55-6.49,9.71a6.08,6.08,0,0,0,2.08,4.76c1.62,1.39,3.75,1.78,5.69,2.53,4,1.53,5.58,5.72,5.4,9.76-.22,4.94-3.24,9.28-5.83,13.3-2.74,4.24-5.47,8.82-5.71,14-.09,1.78-.12,4.84,2,5.53s4.51-1.56,6.1-2.55c4.37-2.75,9.17-5.27,12.91-8.88a29,29,0,0,0,4.2-5.53,11.26,11.26,0,0,1,5.7-4.84c2-.81,4.11-1.5,5.76-3,1.19-1.11,2.8-3.37,1.5-4.85A12.41,12.41,0,0,1,521.22,353a11.28,11.28,0,0,1,2.93-5.11l-1.79-.74c-.56,4.3-3,9.2,0,13.15,2,2.58,6.84,2.75,8.1-.73.58-1.59-.16-3.13-1.11-4.39-.74-1-3.16-3.26-1.16-4.23,2.22-1.08,4.08,2.21,4.61,3.87a15.48,15.48,0,0,1,.32,6.87c-.79,5.6-3.21,11.19-1.26,16.83a1.06,1.06,0,0,0,1.91.25l3.93-7c.87-1.54,1.86-4.18,3.61-4.93,2.25-.95,2.8,2.22,2.77,3.69s-.5,2.66-.49,4a7.6,7.6,0,0,0,2.13,4.65c2.32,2.71,5.52,4.7,8.56,6.49A1,1,0,0,0,555.39,383.89Z" transform="translate(-13.03 -203.23)"/><path class="cls-3" d="M363.88,469.3a219.07,219.07,0,0,1,36.39,66c2.28,6.65,4.22,13.42,5.84,20.26.27,1.15,2,.66,1.77-.49a219.45,219.45,0,0,0-30-69.66q-5.91-9-12.67-17.4c-.74-.92-2,.38-1.3,1.3Z" transform="translate(-13.03 -203.23)"/><path class="cls-3" d="M355.67,630.65l1.1-52.46.31-15a.92.92,0,0,0-1.84,0l-1.09,52.45-.32,15a.92.92,0,0,0,1.84,0Z" transform="translate(-13.03 -203.23)"/><path class="cls-3" d="M355.12,574.43a66.57,66.57,0,0,0,15.77,27.27A62.15,62.15,0,0,0,386,612.91a55.23,55.23,0,0,0,18.89,6.5,31.66,31.66,0,0,0,22.88-5.32c5.51-4,9.31-9.61,12.78-15.37,8.4-14,15-29,20.84-44.25,4.79-12.55,9-25.33,12.76-38.23.32-1.11.64-2.21.95-3.32a.88.88,0,0,0-1.69-.47c-3.34,11.7-7,23.3-11.18,34.74a316.37,316.37,0,0,1-19.07,43.42c-3.25,6-6.61,12.19-11.16,17.27A29.37,29.37,0,0,1,411.3,618c-7.18.32-14.32-1.71-20.78-4.73A64.15,64.15,0,0,1,376,604.11,63.22,63.22,0,0,1,357.46,576c-.23-.68-.44-1.36-.65-2a.88.88,0,0,0-1.69.47Z" transform="translate(-13.03 -203.23)"/><path class="cls-3" d="M399.56,567.43l34.09-48.6,9.74-13.89c.65-.93-.87-1.8-1.52-.88l-34.09,48.6L398,566.55c-.65.92.87,1.8,1.52.88Z" transform="translate(-13.03 -203.23)"/><path class="cls-3" d="M442.4,505.35,474,513.53a.88.88,0,0,0,.47-1.69l-31.62-8.19a.88.88,0,0,0-.46,1.7Z" transform="translate(-13.03 -203.23)"/><path class="cls-3" d="M445.28,505.47A16.85,16.85,0,0,0,447.06,495c-.52-3.31-2.18-6.27-2.65-9.6a35.86,35.86,0,0,1,2.27-17.26,26.05,26.05,0,0,1,11.71-13.65c1.95-1.06,4.76-2,6.66-1.24a4.87,4.87,0,0,1,2.66,2.5c.83,2.18-.89,4.19-2.37,5.58a25.93,25.93,0,0,1-2.44,2,3.1,3.1,0,0,0-.73.67,5.47,5.47,0,0,0-.72,1.87,52.94,52.94,0,0,0-.94,10.44c0,1.05,1.6,1.05,1.64,0a50,50,0,0,1,.88-10,4.88,4.88,0,0,1,.52-1.42c.09-.11.83-.62,1.18-.89a25.62,25.62,0,0,0,2.52-2.25c2.47-2.59,3.31-6.39.25-8.9a6.89,6.89,0,0,0-6.18-1.28c-5.59,1.28-10.54,6.06-13.52,10.72a36.44,36.44,0,0,0-5.17,16.69,29.28,29.28,0,0,0,1.84,12.71,15.76,15.76,0,0,1-.61,13c-.48.93.93,1.76,1.42.82Z" transform="translate(-13.03 -203.23)"/><path class="cls-3" d="M481.66,453.23a20.18,20.18,0,0,0-7.42,3.24,52,52,0,0,0-6.71,5.22,13,13,0,0,0-3.78,4.69,6.15,6.15,0,0,0,.58,5.62c1.45,2.12,3.91,2.34,6.14,1.36a38.89,38.89,0,0,0,4.38-2.53l4.9-3c2.64-1.6,5.64-3.06,7.73-5.39a5.55,5.55,0,0,0,1.37-5.87c-1.23-3.09-4.18-3.81-7.19-3.36-1,.15-.6,1.73.44,1.58a5.28,5.28,0,0,1,3.65.45,4,4,0,0,1,1.84,3.18c0,1.66-1.25,3-2.45,4a56.67,56.67,0,0,1-7,4.5c-2.43,1.47-4.82,3-7.29,4.42-1.2.67-2.72,1.39-4.07.71a3.54,3.54,0,0,1-1.67-2.36,4.86,4.86,0,0,1,.75-3.79,22.39,22.39,0,0,1,4.6-4.57,44.5,44.5,0,0,1,5.41-3.94,17.92,17.92,0,0,1,6.26-2.59C483.14,454.64,482.7,453.06,481.66,453.23Z" transform="translate(-13.03 -203.23)"/><path class="cls-3" d="M488.48,461.21q-7.73,4.55-15,9.74c-1.71,1.22-4.13,2.54-4.62,4.78a4,4,0,0,0,2.64,4.35c2.29.94,5,.11,7.24-.6a39.3,39.3,0,0,0,7.34-3.22,41.37,41.37,0,0,0,6.2-4.19c1.7-1.43,3.34-3.29,3.61-5.58.6-5.14-5.86-7.86-9.25-4.06-.7.78.46,1.94,1.16,1.15a3.72,3.72,0,0,1,5-.7,3.87,3.87,0,0,1,.92,5.11,13,13,0,0,1-4,4,45.25,45.25,0,0,1-5.17,3.24,36.3,36.3,0,0,1-5.57,2.44c-1.92.65-4.33,1.54-6.36,1a2.89,2.89,0,0,1-2-1.66,2.54,2.54,0,0,1,1-2.62,47.62,47.62,0,0,1,5.29-3.85q6.1-4.2,12.5-8a.82.82,0,0,0-.83-1.41Z" transform="translate(-13.03 -203.23)"/><path class="cls-3" d="M494.73,469.75a4.06,4.06,0,0,0-3.2,1c-1.44,1-2.85,2-4.26,3.08s-3.1,2.33-4.61,3.53c-1.91,1.51-4.08,2.94-5.06,5.26-.86,2-.42,4.6,1.79,5.52,1.62.68,3.37.22,5-.21a23.07,23.07,0,0,0,10.76-6.5c1.75-1.81,3.42-3.74,3.18-6.42-.18-2.17-1.34-4.66-3.59-5.3a.82.82,0,0,0-.44,1.58c1.72.49,2.45,2.78,2.42,4.37,0,2-1.57,3.42-2.85,4.73a21.16,21.16,0,0,1-9.29,5.79,11.53,11.53,0,0,1-3.43.67c-2.57-.08-2.73-2.61-1.61-4.41s3-2.89,4.52-4.11c1.24-1,2.49-1.94,3.77-2.87s2.5-1.83,3.76-2.74c.71-.51,1.9-1.6,2.71-1.43C495.32,471.55,495.76,470,494.73,469.75Z" transform="translate(-13.03 -203.23)"/><path class="cls-3" d="M494.94,480.29c-2.51,5.89-5.25,12-9.3,17.06a17.08,17.08,0,0,1-3.51,3.44,23.81,23.81,0,0,1-3.89,1.83,27.67,27.67,0,0,0-9.69,7.46c-.67.81.48,2,1.16,1.16a26.52,26.52,0,0,1,8.91-7,32.51,32.51,0,0,0,4.23-2c3.4-2.28,5.79-6,7.8-9.47a106.25,106.25,0,0,0,5.71-11.7c.41-1-1-1.79-1.42-.82Z" transform="translate(-13.03 -203.23)"/><path class="cls-3" d="M466.92,452.37c1.28-8.34,2.57-16.79,5.75-24.66.6-1.5,1.36-3.68,3-4.41,2.5-1.13,3.17,2.51,3.2,4.13a93.33,93.33,0,0,1-.74,13.16,102.57,102.57,0,0,1-3,15.11.82.82,0,0,0,1.58.43,105.66,105.66,0,0,0,3-15.06c.33-2.55.55-5.11.68-7.67a40.94,40.94,0,0,0,0-7.67,4.81,4.81,0,0,0-2.73-4,3.83,3.83,0,0,0-4.26,1.32,16.46,16.46,0,0,0-2.7,5.29,68.5,68.5,0,0,0-2.25,7.17,166.53,166.53,0,0,0-3.08,16.42c-.16,1,1.42,1.48,1.58.44Z" transform="translate(-13.03 -203.23)"/><path class="cls-3" d="M469.39,492a29.58,29.58,0,0,0-1.92-9.92.82.82,0,0,0-1.58.44,28.23,28.23,0,0,1,1.86,9.48.82.82,0,0,0,1.64,0Z" transform="translate(-13.03 -203.23)"/><path class="cls-3" d="M408.72,380.41a78.32,78.32,0,0,1-6.19-23.53c-.15-1.38-2.33-1.4-2.19,0a81.91,81.91,0,0,0,6.49,24.64c.57,1.28,2.45.17,1.89-1.11Z" transform="translate(-13.03 -203.23)"/><path class="cls-3" d="M398.83,379.55a32.6,32.6,0,0,1-4.32-13.74c-.11-1.39-2.3-1.4-2.19,0a35.36,35.36,0,0,0,4.62,14.84,1.09,1.09,0,0,0,1.89-1.1Z" transform="translate(-13.03 -203.23)"/><path class="cls-3" d="M578.47,345.56a46.6,46.6,0,0,0-3.68-29.43c-.61-1.27-2.49-.16-1.88,1.11A44.13,44.13,0,0,1,576.36,345c-.28,1.37,1.83,2,2.11.58Z" transform="translate(-13.03 -203.23)"/><path class="cls-3" d="M588.36,336.64a24.62,24.62,0,0,0-2.88-18.7c-.73-1.2-2.63-.1-1.89,1.1a22.39,22.39,0,0,1,2.66,17c-.33,1.37,1.78,1.95,2.11.58Z" transform="translate(-13.03 -203.23)"/><path class="cls-3" d="M419.37,288.65a42.61,42.61,0,0,1,14.79-13c1.25-.66.14-2.55-1.1-1.89a45,45,0,0,0-15.58,13.79c-.81,1.15,1.09,2.25,1.89,1.1Z" transform="translate(-13.03 -203.23)"/><path class="cls-3" d="M415.3,280l9.84-7.12a1.13,1.13,0,0,0,.4-1.5A1.11,1.11,0,0,0,424,271l-9.84,7.13a1.11,1.11,0,0,0-.39,1.49,1.09,1.09,0,0,0,1.49.39Z" transform="translate(-13.03 -203.23)"/><path class="cls-3" d="M536.21,419.28l8.93-8a1.11,1.11,0,0,0,0-1.55,1.1,1.1,0,0,0-1.54,0l-8.94,8a1.09,1.09,0,1,0,1.55,1.54Z" transform="translate(-13.03 -203.23)"/><path class="cls-3" d="M161.41,635l75.44-1.39,75.44-1.4,42.46-.78a.82.82,0,0,0,0-1.64l-75.44,1.39-75.44,1.4-42.46.78a.82.82,0,0,0,0,1.64Z" transform="translate(-13.03 -203.23)"/><path class="cls-3" d="M101.64,636.77l7.38-.24a1.33,1.33,0,0,0,1.31-1.32,1.34,1.34,0,0,0-1.31-1.32l-7.38.24a1.32,1.32,0,0,0,0,2.64Z" transform="translate(-13.03 -203.23)"/></svg>